<svg width="91" height="91" viewBox="0 0 91 91" fill="none" xmlns="http://www.w3.org/2000/svg">
<path fill-rule="evenodd" clip-rule="evenodd" d="M45.4448 0.185059C20.5936 0.185059 0.444824 20.3338 0.444824 45.1851C0.444824 70.0363 20.5936 90.1851 45.4448 90.1851C70.2961 90.1851 90.4448 70.0363 90.4448 45.1851C90.4448 20.3338 70.2961 0.185059 45.4448 0.185059ZM87.5177 45.1851C87.5177 68.4199 68.6815 87.258 45.4448 87.258C22.2082 87.258 3.37193 68.4199 3.37193 45.1851C3.37193 21.9502 22.21 3.11216 45.4448 3.11216C68.6797 3.11216 87.5177 21.9502 87.5177 45.1851ZM45.4448 19.9805C59.3402 19.9805 70.6494 31.2862 70.6494 45.1851L45.4448 45.1851L45.4448 70.3878L45.4431 70.3861V70.3878C31.5485 70.3869 20.2403 59.0816 20.2403 45.1833H45.4448V19.9805ZM72.1103 45.1851L72.112 45.1851C72.112 30.4577 60.1722 18.5196 45.4466 18.5196L45.4448 18.5179H45.4431C30.7069 18.5179 18.7776 30.4471 18.7776 45.1833C18.7776 59.9107 30.7175 71.8487 45.4431 71.8487V70.3878H45.4448L45.4448 71.8505C60.181 71.8505 72.1103 59.9213 72.1103 45.1851ZM68.9765 28.534C68.4818 27.8963 67.6021 26.8452 66.9909 26.1951V26.1934L69.812 20.7861L70.0682 20.4398L69.7184 20.6942L64.2793 23.4977C63.6646 22.9395 62.7001 22.118 61.967 21.558L67.7452 12.5259C68.5684 13.1565 69.2132 13.6759 69.8845 14.2429L66.0706 19.9664L65.7296 20.3568L66.1589 20.0653L71.2411 17.5375L73.0412 19.3252L70.4957 24.3703L70.2024 24.7961L70.5964 24.4604L76.3605 20.6748C76.9028 21.3072 77.6253 22.2064 78.081 22.7964L68.9765 28.534ZM46.3334 14.7481L48.8206 9.21544L48.9796 8.72435L48.9354 9.23664L49.1969 16.6312C50.0695 16.7125 50.9704 16.8326 51.859 16.981L51.4545 6.02866C50.2126 5.89264 48.9743 5.79548 47.7377 5.74248L45.2876 11.7822L45.201 12.2309L45.1145 11.7822L42.6661 5.74248C41.4295 5.79371 40.1912 5.89264 38.9494 6.02866L38.5448 16.981C39.4334 16.8344 40.3343 16.716 41.207 16.6312L41.4684 9.23664L41.4242 8.72435L41.5832 9.21544L44.0705 14.7481H46.3334ZM27.029 18.5762C28.4669 20.2349 27.6526 21.9732 26.2146 23.4765V23.4782C25.7894 23.923 25.4073 24.3209 25.0451 24.6979L25.0447 24.6983C23.6781 26.1209 22.5959 27.2474 20.56 29.4844L12.7909 22.1657C13.5364 21.1994 14.78 19.7085 15.6333 18.7634C18.4614 15.6314 19.5019 14.7146 20.8515 14.5786C21.5776 14.5061 22.293 14.6757 22.8636 15.135C24.0348 16.0783 23.9305 17.4438 23.7698 17.8713L23.7362 17.965L23.844 17.9226C24.9321 17.4792 26.2464 17.6753 27.029 18.5762ZM20.0584 17.3785C19.3041 18.0621 17.6418 19.7862 16.0766 21.687L17.5835 23.1126C17.5835 23.1126 20.6183 19.9593 21.4451 19.0337C21.8125 18.6239 22.1428 18.1275 22.0245 17.6046C21.9061 17.0852 21.3797 16.7249 20.8692 16.8644C20.5547 16.9475 20.2951 17.163 20.0584 17.3785ZM23.0385 20.4593C22.0739 21.452 19.1186 24.554 19.1186 24.554L20.6943 26.0379C20.6996 26.0326 24.2061 22.307 24.6124 21.8742C24.9127 21.551 25.2784 21.1288 25.3755 20.6854C25.4586 20.3127 25.3066 19.9382 24.9798 19.7191C24.646 19.4983 24.2732 19.5336 23.9323 19.6979C23.6673 19.8269 23.4218 20.0653 23.0385 20.4593Z" fill="black"/>
</svg>
