<svg width="161" height="62" viewBox="0 0 161 62" fill="none" xmlns="http://www.w3.org/2000/svg">
<path d="M13.9317 0.664672C17.3396 0.573889 20.7474 0.619236 24.1553 0.619236C25.9728 0.664628 27.8358 0.664672 29.6987 0.664672C31.2891 0.755456 32.9248 0.710108 34.5152 0.710108C37.4686 0.846283 40.4221 0.800892 43.3756 0.937067C45.0113 0.937067 46.6471 1.07315 48.3283 1.07315C50.0095 1.11855 51.6907 1.16394 53.3719 1.30011C55.2349 1.30011 57.1433 1.3909 59.0062 1.52707C61.778 1.57246 64.5951 1.79944 67.3668 1.89023C68.4574 2.0264 69.5933 1.98108 70.7292 2.07186C71.5017 2.07186 72.2741 2.25334 73.0466 2.20795C76.0001 2.38951 78.9535 2.61654 81.907 2.8435C85.1785 3.07046 88.4046 3.43355 91.6762 3.7059C92.7667 3.84207 93.8117 3.84205 94.9023 4.02362C95.8565 4.02362 96.8107 4.20523 97.8103 4.29601C109.851 5.56698 121.892 7.24643 133.706 9.92454C140.658 11.5586 147.565 13.4197 154.108 16.2794C155.289 16.8241 156.425 17.4142 157.516 18.1405C158.379 18.776 159.197 19.5023 159.697 20.4555C160.242 21.4087 160.378 22.5889 160.151 23.6783C159.879 25.2216 158.788 26.4018 157.743 27.5366C154.653 30.3962 150.746 32.1212 146.929 33.8461C137.841 37.7952 128.39 40.8817 118.893 43.6506C107.579 46.9188 96.1291 49.6878 84.6333 52.1843C69.2752 55.4979 53.7809 58.3122 38.2865 60.8542C37.3323 60.9903 36.3327 61.2173 35.3785 61.3081C34.3334 61.4897 33.3338 61.7166 32.2887 61.762C32.3796 61.535 32.4705 61.2627 32.6522 61.0811C33.1066 60.4456 33.561 59.7647 34.0154 59.1293C37.0143 54.7717 40.0131 50.414 42.9666 46.0564C43.2847 45.5571 43.6482 45.1032 43.9208 44.6039C43.8754 44.4677 43.6936 44.3315 43.6028 44.2407C29.4715 30.1239 15.3858 16.0525 1.25457 1.93566C1.02738 1.66331 0.663874 1.43629 0.572998 1.07315C3.84453 0.846195 7.11606 0.7555 10.3876 0.710108C10.6602 0.710108 10.7965 0.891586 10.9783 1.07315C11.3418 1.43629 11.7053 1.79949 12.0688 2.16262C25.6093 15.644 39.1498 29.1707 52.6904 42.6975C55.5984 42.5613 58.5064 42.2435 61.4144 42.0619C65.0495 41.7442 68.6845 41.4265 72.3195 41.0633C73.2737 41.0179 74.228 40.8363 75.1822 40.7909C76 40.6548 76.8179 40.6094 77.6358 40.5186C94.5842 38.6576 111.487 36.2064 128.163 32.5751C135.342 30.941 142.476 29.1253 149.473 26.7649C150.791 26.311 152.063 25.8571 153.29 25.2217C154.063 24.8131 154.835 24.3592 155.335 23.5875C155.653 23.2244 155.653 22.7251 155.562 22.2712C155.471 21.6811 154.971 21.2725 154.562 20.9548C153.517 20.2285 152.245 19.7292 151.064 19.2753C148.973 18.4128 146.838 17.732 144.657 17.0511C139.977 15.644 135.16 14.5545 130.344 13.6013C121.529 11.8764 112.669 10.6962 103.763 9.74302C102.945 9.65224 102.172 9.6068 101.354 9.47063C99.4915 9.37984 97.6285 9.06217 95.7201 8.97138C94.1752 8.78982 92.6303 8.74436 91.1309 8.56279C89.8132 8.56279 88.5409 8.3359 87.2232 8.29051C85.542 8.15433 83.8608 8.06353 82.1796 7.92735C81.1345 7.79118 80.0894 7.882 79.0898 7.74583C78.2719 7.74583 77.4995 7.56424 76.6816 7.60963C72.9103 7.38267 69.1843 7.20106 65.413 7.11028C63.55 7.11028 61.6416 6.88336 59.7787 6.92876C57.0524 6.83797 54.3261 6.83797 51.5998 6.7018C50.0095 6.7018 48.3737 6.7018 46.7834 6.7018C45.7838 6.7018 44.8296 6.61101 43.8299 6.7018C50.1004 13.0112 56.3708 19.2299 62.6413 25.4939C66.6853 29.5338 70.7292 33.5736 74.7732 37.6135C74.8641 37.7497 74.9095 37.8859 75.0004 38.0221C73.1374 38.2945 71.229 38.4306 69.3206 38.6122C64.8677 39.0661 60.4148 39.4293 56.0073 39.747C55.0532 39.747 54.1444 39.9285 53.1902 39.9285C52.8267 39.8831 52.7358 39.52 52.4632 39.3384C39.786 26.6741 27.1088 14.0098 14.4316 1.30011C14.3407 1.20933 14.2044 1.11861 14.1135 1.02783C13.9772 0.891653 13.9317 0.800847 13.9317 0.664672Z" fill="black"/>
</svg>
