<svg width="47" height="99" viewBox="0 0 47 99" fill="none" xmlns="http://www.w3.org/2000/svg">
<path d="M0.596924 94.8517C3.28556 91.4287 4.45695 89.037 5.63393 84.8837L12.3834 86.7903C10.8662 92.2649 9.89 94.5117 7.34639 98.4699L0.596924 94.8517ZM26.9478 66.3134H35.9898C38.6785 66.3134 40.2403 66.2632 41.5623 66.1183C41.4173 67.4395 41.3671 68.7106 41.3671 70.5169V80.8251C41.3671 82.5366 41.4173 83.8077 41.5121 84.8335C40.2905 84.7331 38.7733 84.6885 37.111 84.6885H10.3697C8.70745 84.6885 7.24041 84.7387 6.11922 84.8335C6.21405 83.7073 6.26425 82.5366 6.26425 80.9254V70.5169C6.26425 68.7106 6.21405 67.4395 6.06902 66.1183C7.39102 66.2632 9.09791 66.3134 11.6415 66.3134H19.1719V57.1314C19.1719 55.13 19.0715 53.7585 18.8763 52.3926H27.1876C26.9924 53.4686 26.9422 54.1989 26.9422 56.4011H39.4594C41.9026 56.4011 43.5146 56.3063 45.0319 56.1056V63.3363C43.3194 63.1412 41.6571 63.0409 39.4594 63.0409H26.9422V66.3134H26.9478ZM13.6998 72.9588V77.9428H33.9873V72.9588H13.6998ZM14.8712 98.4142C14.9716 96.7528 14.9716 96.1674 14.9716 94.8963C14.9716 92.0141 14.8712 90.2524 14.531 86.9297L21.2302 86.4391C22.0112 91.5235 22.2064 93.5249 22.2566 97.773L14.8768 98.4086L14.8712 98.4142ZM26.8027 98.5145C26.072 93.7256 25.4807 91.1834 24.1643 86.9353L30.7632 85.7645C32.325 90.0628 33.0613 92.3597 34.0877 96.658L26.8027 98.5145ZM39.2697 98.3194C37.6577 93.09 36.8265 91.0886 34.5284 86.9353L41.2778 84.9338C44.6024 90.8935 44.6526 90.9939 46.5603 95.3423L39.2753 98.325L39.2697 98.3194Z" fill="black"/>
<path d="M10.6042 10.4762C8.11076 10.8664 7.17922 11.0114 4.68582 11.3069C4.04992 8.56954 3.51443 7.00855 2.43786 4.51653C7.22943 4.12628 10.8942 3.54091 15.3957 2.41476C18.5752 1.63426 19.9921 1.09349 21.3141 0.312988L25.6148 6.81342C25.4511 6.88032 25.0756 7.01041 24.488 7.20367C22.5803 7.83922 20.0869 8.52494 17.984 9.00997V13.994H21.0129C22.8704 13.994 23.8465 13.9438 25.0235 13.7487V20.9293C23.8019 20.7843 22.5803 20.7342 20.8678 20.7342H18.2294C20.8232 24.3969 22.3851 25.9635 25.6092 28.2604C24.1924 30.6521 23.2608 32.5141 22.2847 35.1511C20.2821 33.2444 19.2056 31.8786 17.8334 29.5315C17.9282 30.6576 17.9784 31.9733 17.9784 33.5399V40.1351C17.9784 43.2627 18.0286 44.584 18.274 46.5352H10.3029C10.4982 44.5338 10.5986 43.0174 10.5986 40.1351V34.3706C10.5986 32.7427 10.6302 31.4716 10.6934 30.5573C9.17618 34.3204 7.66452 36.7121 4.87548 39.5943C3.55348 36.0264 2.96778 34.7553 1.35571 32.1183C3.26341 30.5071 4.43481 29.0911 6.00225 26.6938C7.46928 24.3969 8.39525 22.5906 9.03115 20.7342H6.83338C5.02609 20.7342 3.80449 20.7843 2.53269 20.9795V13.7487C3.85469 13.9438 4.97588 13.994 6.98399 13.994H10.6042V10.4762ZM34.5062 4.41618C34.311 6.22247 34.2608 7.6441 34.2608 10.6713V28.751C34.2608 31.7336 34.311 33.0995 34.5062 34.7107H26.7304C26.9256 33.2444 26.9758 32.2186 26.9758 28.9461V10.6713C26.9758 7.78905 26.8754 6.17787 26.7304 4.41618H34.5062ZM45.8018 1.23844C45.5564 3.48516 45.5062 5.34163 45.5062 8.37442V39.1595C45.5062 42.3372 44.7253 44.2439 42.9626 45.1192C41.596 45.8495 38.8571 46.1951 34.5062 46.1951C33.6751 46.1951 32.8942 46.145 31.1315 46.0948C30.5458 43.0676 30.0549 41.4062 28.8333 38.5239C31.9124 38.8194 33.4296 38.9142 35.5326 38.9142C37.6355 38.9142 38.1264 38.6689 38.1264 37.448V8.37442C38.1264 6.07752 38.026 3.73046 37.8308 1.23844H45.8018Z" fill="black"/>
</svg>
