<svg width="139" height="70" viewBox="0 0 139 70" fill="none" xmlns="http://www.w3.org/2000/svg">
<path d="M76.5777 0.840899C76.6 0.818582 76.6223 0.796276 76.6223 0.796276C81.8446 1.06408 87.0445 1.62199 92.1775 2.51466C98.5379 3.6305 104.809 5.23729 110.835 7.51361C113.669 8.58482 116.436 9.78993 119.115 11.1959C121.636 12.5126 124.069 13.9855 126.345 15.6593C128.555 17.2884 130.63 19.0961 132.438 21.1492C134.402 23.3586 136.053 25.8357 137.102 28.603C137.683 30.1429 138.084 31.7497 138.24 33.3789C138.598 36.771 137.906 40.2524 136.41 43.3321C135.138 45.9432 133.353 48.2865 131.344 50.3619C129.38 52.3704 127.171 54.1335 124.828 55.718C122.484 57.3025 120.007 58.6861 117.485 59.9359C111.861 62.6809 105.903 64.6894 99.8324 66.1846C93.2264 67.8137 86.4866 68.818 79.7021 69.3312C74.1228 69.7329 68.4988 69.8222 62.9195 69.5544C58.6792 69.3312 54.4389 68.9519 50.2433 68.327C44.9764 67.5682 39.7541 66.4524 34.6435 64.9348C31.7645 64.0868 28.9079 63.1048 26.1182 61.9667C23.3509 60.8285 20.6282 59.5342 18.0171 58.0612C15.5845 56.6776 13.2635 55.1378 11.0764 53.397C8.84463 51.5894 6.76911 49.5586 5.05068 47.2599C3.22066 44.8051 1.79236 42.0155 1.12284 39.0027C0.92198 38.0431 0.765756 37.0834 0.743439 36.1015C0.721122 34.8518 0.698802 33.5797 0.921975 32.3523C1.36832 29.585 2.48418 26.9293 4.00176 24.586C5.25153 22.6444 6.76912 20.8591 8.44292 19.2523C10.3622 17.4 12.46 15.7709 14.6918 14.298C18.8651 11.553 23.3955 9.38826 28.0375 7.60291C32.2555 5.9961 36.5851 4.74635 40.9816 3.74209C47.8107 2.17991 54.796 1.2426 61.7813 0.840899C62.25 0.818582 62.7187 0.796255 63.1873 0.773938L63.165 0.840899C63.1873 0.796265 63.2319 0.773959 63.2766 0.796276C65.2851 0.707009 67.2937 0.662354 69.2799 0.662354C69.6816 0.662354 70.0834 0.662354 70.4851 0.662354V0.729315C70.4851 0.706998 70.4851 0.68467 70.4851 0.662354C72.2705 0.68467 74.0558 0.729293 75.8412 0.81856C75.8635 0.81856 75.8859 0.840866 75.8859 0.863183L75.8635 0.81856C76.109 0.840877 76.3322 0.863183 76.5777 0.863183V0.840899ZM130.273 36.3916C130.385 34.6063 130.273 32.7986 129.782 31.0802C129.403 29.6743 128.778 28.3352 128.086 27.0632C127.327 25.7019 126.412 24.4521 125.386 23.2693C123.556 21.2162 121.48 19.3862 119.248 17.8017C116.816 16.0833 114.205 14.6327 111.527 13.3606C108.759 12.0439 105.903 10.9281 103.001 9.96846C99.8547 8.94189 96.641 8.07156 93.405 7.37974C88.5175 6.35317 83.563 5.66131 78.5639 5.28193C74.8369 5.01413 71.1323 4.92488 67.4053 4.96951C67.3606 4.96951 67.2937 4.99182 67.2491 5.01414C67.2044 4.99182 67.1821 4.96951 67.1375 4.96951C63.589 5.03646 60.0629 5.23732 56.5367 5.63902C49.8192 6.37547 43.1463 7.66986 36.6966 9.72301C32.0546 11.2182 27.5465 13.0928 23.3286 15.5477C21.1192 16.842 18.999 18.2927 17.0351 19.9218C15.9192 20.8814 14.8703 21.9303 13.866 23.0238C13.1742 23.7603 12.5716 24.5637 11.9914 25.3894C11.2995 26.3937 10.697 27.4425 10.1837 28.5361C9.22402 30.6338 8.66608 32.9325 8.6884 35.2535C8.73304 37.7083 9.33561 40.1631 10.4292 42.3725C11.6566 44.8497 13.4197 47.0144 15.3836 48.9113C16.4771 49.9825 17.66 50.9868 18.8651 51.9018C21.1192 53.5979 23.5517 55.0262 26.0513 56.2982C28.8186 57.7042 31.6976 58.9093 34.6435 59.9359C40.0219 61.8328 45.5789 63.1272 51.1806 63.9975C55.4878 64.667 59.8174 65.0911 64.1469 65.2919V65.3588C64.1469 65.3365 64.1469 65.3142 64.1469 65.2919C64.2362 65.2919 64.3478 65.3142 64.4371 65.3142C65.3967 65.3365 66.3787 65.3366 67.3383 65.3366C68.4988 65.3366 69.6593 65.3366 70.8198 65.3366C71.8018 65.3366 72.7838 65.3142 73.7434 65.2919C74.77 65.2696 75.8189 65.2696 76.8455 65.1804C82.8935 64.7786 88.9192 63.9975 94.8333 62.6362C97.8684 61.9444 100.859 61.0964 103.805 60.0921C106.706 59.0878 109.54 57.9497 112.285 56.5884C114.941 55.2717 117.485 53.7764 119.873 52.0357C120.967 51.2546 121.993 50.3843 122.975 49.4693C123.98 48.532 124.939 47.55 125.81 46.4788C126.68 45.4076 127.484 44.2694 128.131 43.042C128.823 41.7253 129.425 40.364 129.805 38.9134C130.095 38.0877 130.229 37.2397 130.273 36.3916Z" fill="black"/>
<path d="M28.1045 22.7109C28.2607 22.7778 28.2607 22.9563 28.2607 23.0902C28.2607 29.1604 28.2607 35.2529 28.2607 41.3231C28.2607 41.4347 28.3277 41.5909 28.4616 41.5686C28.6178 41.524 28.7517 41.4347 28.8856 41.3454C38.5267 35.4761 48.1678 29.6067 57.8312 23.7374C58.2329 23.4919 58.6346 23.2241 59.1033 23.0902C59.4603 22.9787 59.8397 22.9563 60.2191 22.9563C65.486 22.9563 70.7529 22.9563 76.0421 22.9563C76.4661 22.9563 76.8902 23.0456 77.2473 23.3134C77.6936 23.6482 77.9391 24.2061 77.9391 24.7417C77.9391 28.1338 77.9391 31.526 77.9391 34.9405C77.9391 38.1318 77.9614 41.3008 77.9614 44.4921C77.9614 44.6483 77.9391 44.8269 77.9837 44.9831C78.006 45.0724 78.1176 45.117 78.2069 45.0947C78.4077 45.0277 78.564 44.8938 78.7425 44.7822C83.8309 41.4347 88.9192 38.0872 94.0076 34.7396C95.726 33.6015 97.4667 32.4856 99.1629 31.3475C99.4307 31.1913 99.6985 30.9904 99.9663 30.8119C102.354 29.2497 104.72 27.6875 107.108 26.1254C107.666 25.7683 108.224 25.3889 108.782 25.0318C109.407 24.6078 110.076 24.1838 110.701 23.7598C111.058 23.5366 111.393 23.2911 111.794 23.1572C112.107 23.0456 112.442 23.001 112.776 23.001C115.142 23.001 117.508 23.001 119.873 23.001C120.253 22.9787 120.632 23.0456 120.967 23.2242C121.525 23.5143 121.86 24.1615 121.86 24.7863C121.86 29.3167 121.86 33.8693 121.86 38.3996C121.882 39.1584 121.86 39.9172 121.569 40.6313C121.302 41.2785 120.744 41.7917 120.163 42.1488C117.262 43.9118 114.361 45.6749 111.482 47.4379C111.326 47.5272 111.192 47.6611 111.013 47.6164C110.879 47.5718 110.879 47.3933 110.879 47.2817C110.879 41.9256 110.879 36.592 110.879 31.2582C110.879 31.102 110.902 30.9235 110.768 30.7896C110.589 30.7672 110.455 30.9011 110.299 30.9904C108.715 32.0393 107.13 33.0659 105.568 34.1147C105.055 34.4272 104.564 34.7843 104.05 35.0967C103.091 35.7216 102.153 36.3464 101.194 36.9713C100.904 37.1498 100.636 37.3507 100.346 37.5292C98.2032 38.9352 96.0607 40.3412 93.9183 41.7471C93.0033 42.3497 92.0883 42.9523 91.1732 43.5325C91.1286 43.5771 91.0393 43.5994 91.0393 43.6664C91.0393 43.6664 91.017 43.6664 91.017 43.6441C90.9278 43.6664 90.8608 43.7333 90.7939 43.7779C89.5887 44.5814 88.3613 45.3624 87.1561 46.1658C86.8883 46.3444 86.5982 46.5453 86.3081 46.7015C85.8617 46.947 85.3484 47.0808 84.8351 47.0808C79.6798 47.0808 74.5022 47.0808 69.3469 47.0808C69.0791 47.0808 68.8336 47.1032 68.5658 47.0362C68.0079 46.947 67.4946 46.5452 67.2937 46.0096C67.1821 45.7195 67.1375 45.4071 67.1375 45.117C67.1375 38.5112 67.1375 31.9277 67.1375 25.3443C67.1375 25.2327 67.0928 25.0541 66.9589 25.0541C66.7804 25.0765 66.6465 25.188 66.5126 25.2773C66.3564 25.3666 66.2002 25.4558 66.0439 25.5451C66.0439 25.5674 66.0439 25.5897 66.0662 25.5897C66.0662 25.5674 66.0439 25.5674 66.0439 25.5451C62.1161 27.9553 58.1659 30.3432 54.2158 32.7311C54.1711 32.7981 54.1265 32.8204 54.0595 32.7981C53.9703 32.8873 53.8587 32.932 53.7694 32.9989C52.8321 33.5791 51.8948 34.1371 50.9574 34.7173C50.8682 34.7843 50.7789 34.8735 50.8012 34.9851C50.8682 35.1413 51.0021 35.2306 51.1136 35.3422C51.6269 35.8555 52.1179 36.3688 52.6312 36.8821C53.1445 37.4177 53.7025 37.9309 54.2158 38.4889C55.6887 39.9841 57.1617 41.457 58.6346 42.9522C59.5273 43.8672 60.42 44.7599 61.3127 45.6749C61.6028 45.9873 61.9152 46.2775 62.2054 46.5899C62.317 46.7015 62.4509 46.8354 62.4285 47.0139C62.317 47.1255 62.1607 47.1478 62.0045 47.1478C60.2191 47.1478 58.4114 47.1478 56.626 47.1478C54.9299 47.1478 53.2338 47.1478 51.56 47.1478C51.5377 47.2148 51.5154 47.1924 51.4931 47.1478C51.1137 47.1255 50.7119 47.0362 50.3772 46.8353C50.1763 46.7238 50.0201 46.5229 49.8416 46.3667C48.3463 44.8492 46.8734 43.354 45.3781 41.8587C44.8425 41.3008 44.2622 40.7652 43.7266 40.185C43.5258 40.0064 43.3472 39.7832 43.1464 39.6047C43.1241 39.6047 43.0571 39.6047 43.0125 39.6047C42.8786 39.6493 42.7447 39.7386 42.6107 39.8279C38.973 42.0372 35.313 44.2689 31.6753 46.4783C31.4075 46.6345 31.1397 46.8131 30.8495 46.9246C30.4925 47.0809 30.0907 47.1478 29.689 47.1478C26.2075 47.1478 22.7483 47.1478 19.2668 47.1478C18.9321 47.1478 18.575 47.1031 18.2626 46.9469C18.0394 46.813 17.8162 46.6568 17.66 46.456C17.4145 46.1212 17.3029 45.6749 17.3029 45.2732C17.3029 40.6089 17.3029 35.9225 17.3029 31.2582C17.3252 30.6557 17.4368 30.0531 17.7269 29.5175C18.0171 29.0042 18.4857 28.6025 18.9767 28.2677C21.878 26.5047 24.7792 24.7417 27.6581 22.9787C27.792 22.8448 27.9259 22.6886 28.1045 22.7109Z" fill="black"/>
</svg>
