<svg width="119" height="61" viewBox="0 0 119 61" fill="none" xmlns="http://www.w3.org/2000/svg">
<path fill-rule="evenodd" clip-rule="evenodd" d="M71.4972 37.1473C72.3684 41.75 69.9414 45.6063 67.95 49.3382C65.7097 52.8213 62.038 55.8068 57.5574 55.3714C47.6004 55.247 37.8301 53.692 28.7443 50.9553C28.3087 50.8309 27.9353 50.5821 27.6864 50.2089C27.4997 49.7114 27.7486 49.2138 28.122 48.8406C36.3988 42.1232 46.2313 39.0755 55.9394 35.779C59.5488 34.7216 63.4071 33.602 67.5144 34.1618C69.1946 34.4106 70.8749 35.5302 71.4972 37.1473ZM105.538 17.3061C110.143 21.1002 114.375 26.3248 112.943 32.6068C110.641 41.8743 100.559 46.7881 92.4691 49.9602C88.113 51.3908 83.6945 52.8835 78.9027 53.3811C78.5916 53.3189 78.0937 53.4433 78.0315 52.9458L78.1559 52.4481C84.9392 44.7978 90.1044 36.2143 94.6472 27.5066C96.7631 23.5881 98.6922 19.5452 100.497 15.5645C100.746 15.2536 100.995 15.1292 101.306 15.0048C102.986 15.1292 104.169 16.4353 105.538 17.3061ZM40.3193 7.47877L40.1949 8.03849C30.3623 19.2342 23.8903 32.1714 17.7916 45.0465C16.6092 46.166 15.4268 44.6733 14.3689 44.1757C8.89254 40.5682 3.97625 34.7837 5.40757 27.9419C7.71013 18.9854 16.9204 14.1962 24.6371 10.9619C29.1799 9.22038 33.9717 7.8519 38.9502 7.10552C39.3859 7.04332 40.0082 6.98118 40.3193 7.47877ZM89.1086 9.28246C89.6687 9.59345 90.3533 9.71791 90.6644 10.2777C90.9756 10.8997 90.3533 11.3351 90.0421 11.7083C82.3254 17.7415 73.4263 21.1002 64.4028 24.0857C59.7977 25.2052 55.1926 27.1956 50.0274 26.076C48.845 25.765 47.7248 25.0187 47.1025 23.8369C45.8579 20.3538 47.5382 16.6841 49.0317 13.5742C51.0231 9.71794 54.5081 5.1774 59.3621 5.11521C69.8169 5.05301 79.7117 6.67013 89.1086 9.28246ZM101.991 9.53134C109.894 13.8852 118.917 21.4733 117.984 31.6738C116.926 41.0658 108.089 47.6588 100.248 51.6395C77.3469 62.5864 45.1733 62.8974 21.4632 53.3811C13.4354 50.0846 4.47413 44.3623 1.11364 35.7167C-1.43784 28.6261 1.6737 21.2868 6.96336 16.3732C17.9783 6.35923 32.0426 2.9383 46.5425 0.947953C62.2248 -0.980193 78.7782 0.699099 92.8425 5.55056C95.9541 6.73233 99.0657 7.97639 101.991 9.53134Z" fill="black"/>
</svg>
