<svg width="108" height="91" viewBox="0 0 108 91" fill="none" xmlns="http://www.w3.org/2000/svg">
<path fill-rule="evenodd" clip-rule="evenodd" d="M45.0621 1.04602C47.4579 0.52196 49.9287 0.259924 52.3994 0.185059C53.5225 0.185059 54.683 0.185059 55.8061 0.185059C57.1537 0.297357 58.5388 0.33479 59.8865 0.559386C60.9722 0.709117 62.0203 0.858846 63.0685 1.08344C63.2183 1.12087 63.368 1.15831 63.5178 1.19575C67.4485 2.0567 71.2669 3.44171 74.8607 5.31335C79.6525 7.82134 83.995 11.1529 87.5888 15.1956C90.3964 18.3399 92.7549 21.8586 94.5518 25.6393C95.0384 26.6126 95.4502 27.6233 96.199 28.4093C97.06 29.2703 98.2953 29.6446 99.4933 29.7944C101.215 29.9815 102.9 30.2061 104.622 30.3933C104.622 30.8799 104.659 31.404 104.622 31.8906C100.541 31.8532 96.4984 31.8906 92.418 31.8906C91.6318 29.5698 90.6211 27.2864 89.4231 25.1527C88.8616 24.1795 88.3001 23.2062 87.6637 22.3078C86.5406 20.5485 85.1929 18.9389 83.8078 17.4041C80.3263 13.6608 76.1335 10.5914 71.5664 8.38283C70.1064 7.70904 68.609 7.07268 67.0367 6.54862C65.0526 5.8374 62.9937 5.38822 60.9347 4.97646C61.0845 4.90159 61.2342 4.86415 61.4214 4.82672C61.1968 4.78928 61.0096 4.82673 60.8598 4.97646C57.9399 4.52726 54.945 4.26523 51.9876 4.45239C42.4041 4.86415 32.9704 8.86945 26.0074 15.495C25.1464 16.2063 24.4351 17.0672 23.649 17.8533C22.8628 18.7517 22.0767 19.6875 21.3654 20.6608C20.5044 21.8961 19.6059 23.1313 18.8947 24.4415C18.7824 24.6286 18.7075 24.8532 18.5203 25.003C17.3224 27.2115 16.2742 29.4949 15.4506 31.8906C11.3701 31.8532 7.3271 31.8532 3.24663 31.8906C3.24663 31.404 3.20919 30.9173 3.24663 30.3933C5.0061 30.1687 6.803 30.019 8.56247 29.7569C9.38605 29.6446 10.2096 29.42 10.9209 29.0083C11.707 28.5591 12.2311 27.773 12.6055 26.9869C13.0922 26.0511 13.5414 25.0778 14.0281 24.1046C15.1511 22.0083 16.4239 19.987 17.8465 18.0779C19.9054 15.3828 22.2264 12.8748 24.8469 10.7411C30.5371 5.91227 37.4627 2.58076 44.7626 1.04602C44.8749 1.08345 45.0246 1.08345 45.0621 1.04602ZM0.102051 38.8905C1.29999 38.8905 2.49792 38.8905 3.69585 38.8905C5.45532 40.7247 7.28966 42.5215 9.08657 44.3183C9.38605 44.6177 9.68554 44.9172 9.94759 45.2167C10.2471 45.4787 10.5466 45.8156 10.846 46.115C11.1455 46.4145 11.445 46.714 11.7071 47.0134C12.1188 47.3877 12.4932 47.7995 12.8675 48.2113C12.8675 48.2113 12.905 48.1738 12.9424 48.1364C12.905 45.0669 12.9424 41.9974 12.905 38.8905C13.8409 38.8905 14.7393 38.8905 15.6752 38.8905C15.6752 43.083 15.6752 47.238 15.6752 51.4305C14.5147 51.393 13.3168 51.4679 12.1563 51.3931C9.08657 48.2861 6.01686 45.2166 2.98458 42.1097C2.94715 42.1097 2.90971 42.1472 2.87227 42.1472C2.90971 45.2166 2.87228 48.2861 2.90971 51.3556C1.97383 51.4305 1.03793 51.3556 0.139483 51.3931C0.102047 47.238 0.102051 43.0455 0.102051 38.8905ZM21.8146 38.8905C22.7131 38.8905 23.649 38.8905 24.5474 38.8905C24.5474 39.0402 24.5849 39.1525 24.5849 39.3023C24.5474 42.3343 24.5849 45.3289 24.5474 48.361C24.5474 49.1471 24.51 49.8957 24.5849 50.6818C24.5474 50.9064 24.5849 51.1684 24.5849 51.4305C23.649 51.4305 22.7131 51.4679 21.8146 51.4305C21.8521 47.2006 21.7772 43.0455 21.8146 38.8905ZM32.334 39.1525C32.8955 38.9279 33.4945 38.8905 34.0935 38.8905C37.7622 38.8905 41.4308 38.8905 45.0995 38.8905C45.0995 39.7515 45.0621 40.575 45.0995 41.4359C41.2811 41.4359 37.5001 41.4359 33.6817 41.4359C33.4571 41.5482 33.2325 41.698 33.0078 41.8477C32.8207 42.222 32.6709 42.6712 32.8955 43.0455C33.1201 43.6445 33.8314 43.7193 34.3555 43.7193C36.9011 43.7193 39.4468 43.7193 41.9924 43.7193C42.7036 43.6819 43.4149 43.7942 44.0139 44.1311C45.0621 44.6552 45.6236 45.7407 45.8482 46.8263C45.9605 47.8369 45.8108 48.9225 45.2118 49.7834C44.5754 50.7941 43.3775 51.3556 42.1795 51.3182C38.2114 51.3556 34.2432 51.3182 30.275 51.3182C30.275 50.4572 30.275 49.6337 30.275 48.7728C34.056 48.7728 37.837 48.7728 41.618 48.7728C41.8801 48.7728 42.1047 48.6979 42.3667 48.6605C42.479 48.5856 42.5539 48.5107 42.6662 48.4359C43.078 47.9867 43.1529 47.3503 42.8908 46.7888C42.5913 46.3396 42.0298 46.2273 41.5057 46.2273C38.8852 46.2273 36.3022 46.2273 33.6817 46.2273C32.7458 46.2273 31.7725 45.9653 31.1361 45.3289C30.6494 44.9172 30.3125 44.3557 30.1253 43.7942C29.7884 42.7461 29.8633 41.5857 30.4248 40.6124C30.9489 39.9761 31.5479 39.4146 32.334 39.1525ZM51.6507 40.2007C52.362 39.3023 53.5974 38.8905 54.7204 38.8905C58.464 38.8905 62.1701 38.8905 65.9136 38.8905C65.9136 39.7515 65.9136 40.575 65.9136 41.4359C62.245 41.4359 58.5763 41.4359 54.9076 41.4359C54.6081 41.3985 54.2712 41.5108 54.0091 41.698C53.4851 42.0723 53.4476 42.8958 53.8968 43.345C54.1589 43.6819 54.6456 43.6819 55.0199 43.7193C57.4907 43.7568 59.9614 43.7193 62.4321 43.7193C62.9937 43.7193 63.5552 43.6819 64.0793 43.8316C64.9403 43.9814 65.6142 44.5803 66.1008 45.2541C66.55 46.0402 66.8121 46.9386 66.7372 47.8369C66.6623 48.4733 66.4752 49.0722 66.1757 49.5963C65.5767 50.5695 64.5285 51.2059 63.4055 51.2808C62.1326 51.3556 60.8224 51.2808 59.5496 51.3182C56.7419 51.3182 53.9343 51.3556 51.1266 51.2808C51.1641 50.4198 51.1266 49.5963 51.1266 48.7353C54.9825 48.7353 58.8009 48.7353 62.6567 48.7353C63.1434 48.7353 63.5552 48.4359 63.7798 48.0615C63.9296 47.6872 63.9296 47.2755 63.7798 46.9011C63.5178 46.4519 63.0311 46.1899 62.507 46.2273C59.8491 46.1899 57.1537 46.2273 54.4958 46.2273C53.4102 46.2273 52.2497 45.8156 51.5758 44.9172C50.5651 43.6445 50.5276 41.5108 51.6507 40.2007ZM77.7433 38.8905C78.754 38.8531 79.7648 38.8531 80.7755 38.8905C82.9842 42.5215 85.3052 46.115 87.5139 49.746C87.8508 50.2701 88.1503 50.869 88.5621 51.3556C87.439 51.4305 86.316 51.3931 85.1555 51.3931C84.7437 50.6444 84.1822 49.9706 83.8078 49.1845C80.7381 49.1096 77.7058 49.1845 74.6361 49.1471C74.2243 49.8957 73.7002 50.607 73.2884 51.3931C72.1654 51.3931 71.0423 51.3931 69.9192 51.3931C70.8177 49.8957 71.7536 48.4733 72.652 46.976C72.8392 46.6765 73.0264 46.3771 73.2136 46.0776C73.3633 45.8904 73.4756 45.6658 73.5879 45.4412C73.6254 45.5161 73.6628 45.6284 73.7002 45.7033L73.7751 45.4412C73.7377 45.4412 73.6628 45.4412 73.6254 45.4412C74.7484 43.5696 75.9463 41.7354 77.0694 39.8638C77.2566 39.6017 77.4063 39.3397 77.5561 39.0777C77.631 39.0777 77.7058 38.9654 77.7433 38.8905ZM76.9945 45.4038C76.7325 45.8904 76.3581 46.3022 76.171 46.8263C78.2299 46.7888 80.2889 46.8263 82.3478 46.8263C81.8986 45.8904 81.2622 45.0669 80.7381 44.1685C80.214 43.3824 79.7648 42.5589 79.2407 41.8103C78.492 43.0081 77.7433 44.206 76.9945 45.4038ZM92.2308 38.8905C93.4287 38.8905 94.6267 38.8531 95.8246 38.8905C96.6482 39.714 97.4718 40.5376 98.2953 41.3985C98.4076 41.5108 98.52 41.6231 98.6323 41.7354C98.7071 41.8103 98.782 41.8851 98.8569 41.96C99.1189 42.2595 99.4558 42.5589 99.7179 42.8584C100.017 43.1578 100.279 43.4573 100.579 43.7568C102.039 45.2541 103.536 46.714 104.996 48.2113C105.034 45.1044 105.034 41.9974 104.996 38.9279C105.932 38.8905 106.868 38.9279 107.804 38.8905C107.767 43.0455 107.804 47.238 107.804 51.3931C106.643 51.3931 105.483 51.3931 104.322 51.3931C101.215 48.2487 98.1082 45.1044 94.9636 41.96C95.0385 42.3718 95.001 42.821 95.001 43.2327C95.001 45.9279 95.001 48.6605 95.001 51.3556C94.0651 51.3556 93.1292 51.3931 92.2308 51.3556C92.2682 47.2006 92.1933 43.0455 92.2308 38.8905ZM3.24663 58.3555C4.59431 58.4304 5.90455 58.3181 7.25223 58.393C9.7604 58.3555 12.2686 58.3555 14.7768 58.393C15.0014 58.393 15.226 58.3555 15.488 58.3555C17.1726 63.3341 19.8305 67.9383 23.2746 71.9062C23.7613 72.4677 24.2479 72.9917 24.7346 73.5158C28.3658 77.2216 32.6709 80.2537 37.4252 82.3499C39.7462 83.3981 42.1795 84.1841 44.6877 84.7831C53.2604 86.8044 62.4696 85.9435 70.5182 82.3499C77.893 79.0933 84.2945 73.5907 88.5247 66.703C90.1344 64.1202 91.4446 61.3502 92.418 58.4304C96.4984 58.393 100.579 58.4304 104.659 58.4304C104.659 58.917 104.659 59.3662 104.659 59.8528C103.499 60.0026 102.338 60.1149 101.178 60.2646C99.8676 60.4143 98.52 60.4518 97.322 61.0507C96.199 61.5748 95.4877 62.6977 95.001 63.7833C93.8031 66.3661 92.418 68.8367 90.7708 71.1575C89.3108 73.2163 87.6637 75.1628 85.8667 76.9596C85.8667 76.997 85.8667 77.1093 85.8667 77.1842C85.8667 77.1468 85.8293 77.0345 85.8293 76.997C81.3371 81.489 75.8715 84.9702 69.9567 87.2536C65.2772 88.9755 60.3357 90.0236 55.3568 90.1734C52.9984 90.2108 50.64 90.1734 48.2815 89.8365C37.2755 88.4889 26.831 82.874 19.6434 74.4516C17.5844 72.0559 15.825 69.4356 14.2901 66.6656C13.6911 65.5426 13.1296 64.3448 12.5681 63.1844C12.1188 62.3234 11.4824 61.5748 10.6214 61.1256C9.57323 60.6015 8.37529 60.5266 7.25223 60.3769C5.90455 60.2646 4.55687 60.04 3.24663 59.9277C3.24663 59.3662 3.24663 58.8422 3.24663 58.3555Z" fill="#221716"/>
</svg>
