<svg width="35" height="19" viewBox="0 0 35 19" fill="none" xmlns="http://www.w3.org/2000/svg">
<path d="M34.2094 2.31782L17.8467 18.4459C17.7707 18.5209 17.6805 18.5804 17.5812 18.621C17.4819 18.6615 17.3754 18.6824 17.2679 18.6824C17.1604 18.6824 17.0539 18.6615 16.9546 18.621C16.8553 18.5804 16.765 18.5209 16.6891 18.4459L0.326428 2.31782C0.250415 2.24289 0.190119 2.15395 0.148981 2.05605C0.107843 1.95816 0.0866699 1.85324 0.0866699 1.74728C0.0866699 1.64133 0.107843 1.53641 0.148981 1.43851C0.190119 1.34062 0.250415 1.25168 0.326428 1.17675C0.479943 1.02544 0.688154 0.94043 0.905257 0.94043C1.01276 0.94043 1.1192 0.961301 1.21852 1.00185C1.31783 1.0424 1.40807 1.10183 1.48409 1.17675L17.2679 16.7343L33.0517 1.17675C33.1277 1.10183 33.218 1.0424 33.3173 1.00185C33.4166 0.961301 33.523 0.94043 33.6305 0.94043C33.738 0.94043 33.8445 0.961301 33.9438 1.00185C34.0431 1.0424 34.1333 1.10183 34.2094 1.17675C34.2854 1.25168 34.3457 1.34062 34.3868 1.43851C34.4279 1.53641 34.4491 1.64133 34.4491 1.74728C34.4491 1.85324 34.4279 1.95816 34.3868 2.05605C34.3457 2.15395 34.2854 2.24289 34.2094 2.31782Z" fill="#D60000"/>
</svg>
