<svg width="54" height="47" viewBox="0 0 54 47" fill="none" xmlns="http://www.w3.org/2000/svg">
<path opacity="0.1" d="M44.4443 44.6558C50.5094 38.0185 53.542 29.3594 53.542 18.6787C53.542 13.212 52.0087 8.87871 48.942 5.67871C46.0087 2.34538 42.2087 0.678711 37.542 0.678711C33.542 0.678711 30.0087 2.21205 26.942 5.27872C26.8101 5.41066 26.6811 5.54368 26.5551 5.67778C23.6218 2.34507 19.8221 0.678711 15.1559 0.678711C11.1559 0.678711 7.62255 2.21205 4.55588 5.27872C1.62255 8.21205 0.155884 11.6787 0.155884 15.6787C0.155884 19.6787 1.62255 23.2121 4.55588 26.2787C7.62255 29.2121 11.1559 30.6787 15.1559 30.6787C17.6892 30.6787 19.8226 30.2121 21.5559 29.2787L24.1559 27.6787C23.1438 33.2453 20.864 37.9283 17.3167 41.7279L20.61 46.1465C25.4584 41.4486 28.6351 35.6361 30.1399 28.7091C32.3984 30.0222 34.8657 30.6787 37.542 30.6787C40.0753 30.6787 42.2087 30.2121 43.942 29.2787L46.542 27.6787C45.667 32.4911 43.8446 36.6432 41.0748 40.1349L44.4443 44.6558Z" fill="black"/>
</svg>
