<svg width="91" height="91" viewBox="0 0 91 91" fill="none" xmlns="http://www.w3.org/2000/svg">
<path d="M45.542 86.0451C23.132 86.0451 4.77199 67.5951 4.77199 45.1851C4.77199 40.1451 5.67199 35.3751 7.38199 30.8751L31.232 78.8451C31.502 79.4751 31.952 80.0151 32.672 80.0151C33.392 80.0151 33.842 79.4751 34.112 78.8451L45.092 54.2751C45.182 54.0051 45.362 53.7351 45.632 53.7351C45.902 53.7351 45.992 54.0051 46.172 54.2751L57.152 78.8451C57.422 79.4751 57.872 80.0151 58.592 80.0151C59.312 80.0151 59.762 79.4751 60.032 78.8451L83.882 30.8751C85.592 35.3751 86.492 40.1451 86.492 45.1851C86.312 67.5951 67.952 86.0451 45.542 86.0451ZM45.542 35.9151C45.272 35.9151 45.182 35.6451 45.002 35.3751L32.222 6.57506C36.362 5.04506 40.862 4.23506 45.542 4.23506C50.222 4.23506 54.722 5.04506 58.862 6.57506L46.082 35.3751C45.902 35.7351 45.812 35.9151 45.542 35.9151ZM32.492 65.5251C32.222 65.5251 32.132 65.2551 31.952 64.9851L11.252 23.2251C14.942 17.5551 19.892 12.7851 25.922 9.45506L40.862 42.6651C41.042 43.2051 41.492 43.3851 41.942 43.3851H49.142C49.682 43.3851 50.042 43.2951 50.312 42.6651L65.252 9.45506C71.192 12.7851 76.232 17.5551 79.922 23.2251L59.042 64.9851C58.952 65.2551 58.772 65.5251 58.502 65.5251C58.232 65.5251 58.142 65.2551 57.962 64.9851L50.132 47.1651C49.862 46.5351 49.502 46.4451 48.962 46.4451H41.762C41.222 46.4451 40.862 46.5351 40.592 47.1651L33.032 64.9851C32.942 65.2551 32.762 65.5251 32.492 65.5251ZM45.542 90.1851C70.472 90.1851 90.542 70.1151 90.542 45.1851C90.542 20.2551 70.472 0.185059 45.542 0.185059C20.612 0.185059 0.541992 20.2551 0.541992 45.1851C0.541992 70.1151 20.612 90.1851 45.542 90.1851Z" fill="black"/>
</svg>
