<svg width="360" height="494" viewBox="0 0 360 494" fill="none" xmlns="http://www.w3.org/2000/svg">
<path fill-rule="evenodd" clip-rule="evenodd" d="M252.205 5.14034C252.205 5.14034 252.649 4.74757 254.322 4.81752C255.995 4.88747 255.575 1.97969 255.575 1.97969L256.869 0.633287C256.869 0.633287 257.691 2.83385 261.635 4.5767C265.579 6.31955 270.008 9.16105 272.816 11.2444C274.62 12.5831 275.143 14.5222 275.543 16.0081C275.766 16.8346 275.951 17.5209 276.297 17.8856C276.823 18.42 277.918 18.7792 279.08 19.1605C280.123 19.5027 281.22 19.8627 282.01 20.3833C282.673 20.8211 283.409 21.5592 284.164 22.3155C285.306 23.4607 286.489 24.6474 287.526 24.8958C289.246 25.3082 290.371 27.1473 290.371 27.1473L292.577 27.4813C292.577 27.4813 293.231 28.5425 294.552 28.3668C295.867 28.1631 297.329 29.1331 297.329 29.1331C297.329 29.1331 299.652 30.1178 300.178 31.5309C300.732 32.9377 301.307 33.5163 301.789 33.2917C302.271 33.067 302.508 31.3667 302.508 31.3667C302.508 31.3667 306.654 32.2998 309.642 32.166C312.63 32.0322 314.478 32.0927 315.011 32.3568C315.212 32.4564 315.04 32.7473 314.847 33.0745C314.527 33.6155 314.149 34.2556 315.3 34.2932C316.401 34.3292 316.933 32.9157 317.334 31.8512C317.606 31.1282 317.817 30.5662 318.105 30.7284C318.425 30.899 318.3 31.4489 318.165 32.0413C317.988 32.8192 317.794 33.6704 318.569 33.8323C319.935 34.1174 322.654 35.5438 322.654 35.5438C322.654 35.5438 330.749 36.0122 331.647 34.224C332.545 32.4359 335.165 29.8831 335.165 29.8831C335.165 29.8831 334.835 26.4553 336.043 25.7753C337.278 25.089 337.78 24.0361 338.097 22.8183C338.414 21.6006 339.636 17.4457 339.636 17.4457L341.539 22.4662C341.539 22.4662 339.78 23.0626 340.197 24.6471C340.562 26.1416 339.988 27.0653 339.361 28.0759C339.321 28.141 339.28 28.2064 339.24 28.2724C339.032 28.6103 338.783 28.8923 338.553 29.1523C338.042 29.7314 337.627 30.2013 337.977 30.9359C338.461 32.0345 338.591 33.9182 338.591 33.9182C338.591 33.9182 337.68 35.6503 338.54 36.842C339.373 38.0399 341.2 40.1056 342.219 40.2914C342.478 40.3387 342.868 40.378 343.312 40.4228C344.613 40.554 346.381 40.7321 346.706 41.2958C347.143 42.052 345.46 42.9846 345.46 42.9846C345.46 42.9846 344.411 41.4818 343.67 42.2641C342.225 40.3194 340.538 42.5474 342.028 43.5112C342.36 43.7207 342.955 44.0681 343.675 44.4889C346.173 45.9477 350.181 48.2893 350.005 48.8307C349.778 49.5284 347.544 49.2006 347.544 49.2006C347.544 49.2006 345.834 47.7856 345.616 48.6576C345.502 49.1157 345.786 49.4204 346.131 49.7914C346.444 50.1268 346.806 50.5164 346.971 51.1223C347.166 51.8378 347.695 51.5637 348.393 51.2024C348.939 50.9193 349.589 50.5826 350.262 50.6271C350.727 50.6603 351.213 50.7279 351.662 50.7903C352.666 50.93 353.481 51.0434 353.442 50.6862C353.356 50.1756 352.434 48.3208 352.434 48.3208C352.434 48.3208 354.269 44.9126 354.854 44.4885C355.467 44.0582 359.448 42.8212 359.438 43.8238C359.427 44.8265 358.798 46.2314 357.699 46.74C357.397 46.8715 357.039 46.9515 356.68 47.0318C355.725 47.2451 354.763 47.4602 354.815 48.6453C354.894 50.3049 355.273 51.7212 355.273 51.7212C355.273 51.7212 354.474 53.1637 353.673 53.2828C353.404 53.3234 353.115 53.3314 352.815 53.3396C352.192 53.3567 351.523 53.3751 350.895 53.6934C349.966 54.1645 348.503 55.5485 348.503 55.5485C348.503 55.5485 346.988 53.2957 346.17 54.3894C345.33 55.5174 346.676 56.6308 346.676 56.6308C346.676 56.6308 345.223 57.0121 344.374 57.9657C343.524 58.9194 342.567 58.2197 342.567 58.2197C342.567 58.2197 344.625 59.734 343.775 60.6877C342.925 61.6413 341.166 61.0608 341.166 61.0608C341.166 61.0608 341.283 58.5635 339.731 59.2906C338.179 60.0176 337.635 61.9331 338.953 63.0527C340.305 64.1941 339.497 65.4621 337.917 65.0185C336.338 64.5748 335.288 64.2489 335.288 64.2489L329.981 65.5152C329.981 65.5152 328.757 64.0219 326.761 65.1417C324.765 66.2615 315.737 76.2094 314.969 78.9689C314.817 79.5158 314.585 80.2709 314.317 81.1437C313.233 84.6751 311.558 90.1318 312.176 91.5043C312.919 93.2224 313.208 95.1588 313.208 95.1588C313.208 95.1588 312.785 97.8712 312.688 99.5403C312.592 101.209 312.966 103.656 312.966 103.656L309.587 102.318C309.587 102.318 308.279 100.195 305.691 99.7403C305.004 99.6164 304.098 99.5005 303.072 99.3693C300.279 99.012 296.595 98.5407 293.997 97.4821C290.409 96.7065 287.164 94.0557 284.97 92.2629C283.797 91.3045 282.924 90.5912 282.459 90.5407C280.784 90.9846 279.771 90.7744 278.268 90.4627C277.316 90.2652 276.168 90.027 274.53 89.8885C273.834 89.8251 273.2 89.7575 272.62 89.6956L272.615 89.6951L272.615 89.695C269.678 89.3813 268.138 89.2168 266.948 90.5126C266.254 91.268 265.759 92.342 265.279 93.3813C264.774 94.4771 264.286 95.5345 263.602 96.1392C262.41 97.1941 260.701 101.004 260.001 102.567L260 102.568L259.999 102.571C259.918 102.752 259.85 102.903 259.798 103.015C259.303 104.096 256.213 104.694 255.31 103.188C254.808 102.338 255.63 102.421 256.525 102.511C257.248 102.583 258.018 102.66 258.178 102.257C258.542 101.382 256.684 101.147 256.684 101.147C256.684 101.147 256.526 99.0047 254.631 99.1311C252.73 99.2295 252.213 99.1678 251.375 97.9418C250.536 96.7159 248.525 95.544 247.864 96.8088C247.231 98.0674 246.58 98.3296 245.747 97.1316C244.915 95.9337 243.187 96.6702 243.483 98.6347C243.648 99.736 243.138 100.562 242.598 101.436C242.175 102.121 241.734 102.835 241.586 103.734C241.249 105.78 241.895 109.167 243.258 109.306C243.961 109.377 244.137 109.519 244.408 109.738C244.662 109.943 245.001 110.217 245.939 110.564C247.027 110.967 247.77 111.159 248.434 111.331C248.951 111.465 249.422 111.587 249.972 111.787C250.554 112.018 251.217 111.794 251.939 111.549C252.749 111.275 253.633 110.976 254.56 111.268C255.776 111.67 257.045 112.932 258.207 114.088C258.725 114.604 259.222 115.098 259.684 115.485C261.215 116.764 262.137 117.442 263.459 117.266C264.15 117.159 264.197 117.382 264.265 117.71C264.327 118.006 264.406 118.388 264.994 118.69C265.075 118.732 265.157 118.774 265.239 118.815L265.375 118.884C266.501 119.452 267.58 119.997 266.745 120.42C266.36 120.615 265.819 120.547 265.27 120.478C264.493 120.38 263.7 120.28 263.307 120.918C262.636 122.009 261.525 122.461 260.05 121.435C258.554 120.444 256.127 122.012 255.756 122.859C255.632 123.143 255.632 122.891 255.633 122.439C255.635 121.541 255.638 119.855 254.669 120.012C253.207 120.218 252.835 123.42 252.835 123.42C252.835 123.42 250.592 121.741 249.882 123.84C249.207 125.961 250.497 130.235 250.497 130.235L249.382 131.718C249.382 131.718 247.08 131.876 246.852 133.751C246.624 135.625 245.204 136.147 245.204 136.147L242.12 135.596C242.12 135.596 239.502 132.646 239.42 130.841C239.37 130.033 239.779 129.355 240.214 128.633C240.748 127.747 241.322 126.795 241.134 125.458C241.015 124.683 241.04 123.739 241.066 122.742L241.066 122.741C241.122 120.592 241.185 118.194 239.834 116.685C237.828 114.483 235.437 115.161 235.437 115.161C235.437 115.161 233.479 112.124 232.026 112.505C230.574 112.887 229.553 107.052 229.553 107.052C229.553 107.052 231.164 104.488 229.598 101.747C228.026 98.977 227.785 96.2061 231.274 96.1964C231.539 95.9536 231.787 95.728 232.019 95.5174C234.228 93.5057 234.941 92.8571 234.751 91.5411C234.656 90.8836 234.995 91.345 235.521 92.0606C236.158 92.9276 237.07 94.1678 237.817 94.2438C239.18 94.3826 238.32 90.8369 238.32 90.8369C238.32 90.8369 239.287 90.5339 239.831 88.6185C240.064 87.8002 240.609 87.2453 241.134 86.7113C241.838 85.9953 242.506 85.3169 242.331 84.0918C242.157 82.9727 240.63 82.2371 239.122 81.5099C237.793 80.8696 236.478 80.2359 236.113 79.3527C235.682 78.3121 235.759 77.6066 235.828 76.975C235.884 76.4619 235.935 75.9976 235.703 75.4423C235.471 74.8853 235.823 74.8767 236.318 74.8646C236.924 74.8498 237.743 74.8298 237.964 73.7929C238.368 71.9087 240.05 72.153 240.05 72.153C240.05 72.153 239.675 74.0309 241.702 74.2282C242.932 74.3479 243.783 75.2021 244.537 75.9585C245.025 76.4484 245.472 76.8973 245.955 77.0792C247.191 77.5699 248.644 76.0116 248.644 76.0116C248.644 76.0116 250.155 73.7932 251.352 74.1158C251.791 74.229 252.16 74.7567 252.558 75.3267C253.274 76.35 254.085 77.5098 255.564 76.6524C257.867 75.3174 261.381 70.8302 260.552 69.7786C260.097 69.2011 260.12 69.165 260.249 68.9687C260.355 68.8075 260.532 68.5385 260.573 67.7734C260.669 66.1043 258.171 65.1291 258.171 65.1291C258.171 65.1291 259.286 63.6459 257.624 61.3963C255.963 59.1468 255.45 58.0544 255.45 58.0544L256.971 56.0103L256.052 55.4788C256.052 55.4788 258.54 53.1317 258.592 52.4435C258.612 52.2116 258.935 52.0543 259.324 51.8642C260.042 51.5134 260.989 51.0509 260.688 49.801C260.482 48.8876 260.815 48.6361 261.166 48.3708C261.558 48.0746 261.973 47.7611 261.687 46.4901C261.437 45.3862 261.097 44.7843 260.76 44.1906C260.363 43.4885 259.972 42.7977 259.746 41.3015C259.551 40.0094 259.62 38.2786 259.698 36.3346L259.698 36.3344C259.786 34.124 259.885 31.6381 259.62 29.2081C259.094 24.647 256.927 18.9791 255.316 17.2184C254.578 16.4114 253.632 15.8113 252.787 15.2757L252.787 15.2756L252.787 15.2754L252.786 15.2752C251.788 14.6424 250.932 14.0996 250.729 13.4118C250.578 12.8564 250.64 12.0809 250.709 11.2259L250.709 11.2256C250.799 10.1157 250.899 8.87176 250.557 7.80109C249.952 5.90544 249.539 3.29035 250.644 2.80974C251.748 2.32913 252.158 5.06255 252.158 5.06255L252.205 5.14034ZM223.789 113.059C226.092 112.136 226.602 118.457 226.602 118.457C226.602 118.457 225.269 119.488 224.956 120.85C224.672 122.207 219.863 114.636 223.789 113.059ZM226.399 236.901L225.534 236.211L225.45 236.23C225.45 236.23 222.84 239.984 222.746 240.093C222.618 240.18 221.624 240.489 221.512 240.514C221.399 240.539 220.817 242.02 220.753 242.651C220.689 243.283 218.917 245.91 218.917 245.91L219.657 250.889L220.585 250.683L220.357 249.147C220.357 249.147 220.614 247.796 221.668 247.885C222.722 247.975 223.119 249.209 222.701 249.978C222.341 250.608 222.412 251.163 222.491 251.773C222.505 251.881 222.519 251.991 222.531 252.102C222.611 252.849 221.281 254.026 221.281 254.026L222.042 254.65C222.042 254.65 222.917 254.074 223.372 253.473C223.608 253.162 224.071 253.013 224.612 252.84C225.115 252.678 225.685 252.495 226.203 252.139C226.984 251.603 227.225 250.751 227.547 249.616L227.548 249.616C227.669 249.189 227.801 248.723 227.978 248.218C228.631 246.398 228.574 244.706 228.574 244.706L228.078 244.081C228.078 244.081 226.856 244.294 226.274 244.335C225.692 244.376 225.323 244.311 224.952 243.453C224.7 242.869 225.435 241.631 225.968 240.733C226.218 240.311 226.424 239.965 226.462 239.797C226.579 239.271 226.399 236.901 226.399 236.901ZM105.526 323.621L106.077 325.146L107.469 326.601C107.469 326.601 109.395 325.438 109.714 325.279C110.033 325.12 110.458 322.026 110.458 322.026L107.53 319.795L106.799 320.222L105.526 323.621ZM100.016 329.059L100.01 329.051L100.017 329.079L100.016 329.074L100.016 329.059ZM100.916 330.703C100.534 329.876 100.07 329.145 100.016 329.059C100.011 328.954 99.9988 328.433 100.142 327.669C100.275 326.816 101.696 325.118 101.696 325.118L103.503 324.864C103.503 324.864 102.375 327.732 102.535 328.049C102.551 328.079 102.562 328.101 102.568 328.116C102.574 328.131 102.576 328.138 102.573 328.141C102.568 328.146 102.553 328.139 102.527 328.126C102.402 328.069 102.028 327.897 101.333 328.228C100.285 328.696 102.413 329.606 102.413 329.606L103.847 329.141L103.128 327.006L104.749 326.322L106.697 327.743L105.107 328.302L105.313 329.609L104.09 331.793C104.09 331.793 101.322 331.584 100.916 330.703ZM12.2968 402.755L13.4486 403.41C13.4486 403.41 13.466 399.822 14.3838 399.177C14.9678 398.758 15.4655 398.295 15.7827 397.999L15.7829 397.999L15.7833 397.999C15.9489 397.845 16.0653 397.736 16.1189 397.704C16.1733 397.682 16.1021 397.236 16.001 396.601C15.8004 395.344 15.4822 393.348 15.792 392.459C16.2581 391.121 17.754 387.41 17.754 387.41C17.754 387.41 17.4281 385.572 17.3925 385.022C17.357 384.471 17.1229 383.172 17.1229 383.172L16.5806 382.469L15.1055 384.178L13.7624 384.77C13.7624 384.77 13.531 387.672 13.1206 388.733C12.7101 389.794 11.8572 391.511 11.8572 391.511C11.8572 391.511 11.1598 392.871 11.3102 393.014C11.4324 393.163 12.256 393.802 12.5842 393.818C12.9125 393.833 13.0022 391.874 13.0022 391.874L14.1976 392.46C14.1976 392.46 14.345 394.161 14.5091 394.889C14.6796 395.644 14.7748 396.328 14.7748 396.328L13.0571 395.652L11.7572 394.472L11.1683 395.396C11.1683 395.396 11.6217 395.442 11.4029 396.96C11.1842 398.477 11.0979 402.023 12.256 402.706L12.2968 402.755ZM93.4078 400.907L92.036 401.123L92.0296 401.095L91.5369 397.732L92.5809 396.588C92.5809 396.588 93.2601 397.761 94.0389 398.589C94.6582 399.247 94.7577 398.681 94.829 398.275C94.8473 398.171 94.8638 398.077 94.8867 398.018C94.9648 397.816 95.3304 397.808 95.8391 397.795L95.8398 397.795C96.0616 397.79 96.3106 397.784 96.5749 397.761C97.452 397.713 98.9947 396.812 98.9947 396.812L99.2776 398.721C99.2776 398.721 97.2702 399.137 96.3499 399.518C95.4296 399.899 96.7248 401.966 96.7248 401.966L95.3766 401.5C95.3766 401.5 94.8245 399.709 94.1912 399.526C93.558 399.343 93.4078 400.907 93.4078 400.907ZM100.261 396.7L101.578 394.674L102.054 394.95C102.054 394.95 102.033 396.954 101.949 397.237C101.893 397.514 101.446 397.76 101.446 397.76L100.268 396.728L100.261 396.7ZM101.068 391.339C101.529 391.677 99.0526 393.021 99.0526 393.021L99.0245 393.027C99.0245 393.027 97.4275 391.324 97.2614 391.243C97.1737 391.2 97.1222 391.756 97.071 392.308C97.0253 392.802 96.9798 393.293 96.909 393.35C96.7677 393.464 95.8292 392.139 95.5395 391.73L95.4936 391.665C95.3769 391.501 95.4548 391.438 95.5997 391.322C95.7239 391.223 95.8972 391.084 96.0396 390.808C96.2496 390.402 95.7108 390.134 95.2372 389.899C95.0147 389.788 94.8065 389.685 94.6972 389.577C94.5869 389.457 94.6759 389.394 94.8217 389.292C95.0904 389.102 95.5517 388.778 95.3099 387.706C94.9652 386.048 96.922 386.202 96.922 386.202C96.922 386.202 97.7519 386.341 97.7208 387.906C97.7017 388.866 97.4531 389.202 97.3034 389.405C97.2089 389.533 97.1537 389.608 97.2207 389.752C97.3936 390.125 99.4679 388.048 99.4679 388.048C99.4679 388.048 99.5454 389.177 99.3384 390.488C99.198 391.332 99.8073 391.296 100.362 391.263C100.65 391.246 100.923 391.23 101.068 391.339ZM136.454 375.277C136.737 376.009 138.952 375.193 139.346 374.841C139.498 374.705 140.05 374.289 140.682 373.813C141.694 373.05 142.913 372.131 143.021 371.962C143.196 371.687 142.598 370.612 142.598 370.612C142.598 370.612 141.315 371.752 140.232 372.464C139.547 372.921 139.294 373.023 138.967 373.154C138.791 373.225 138.593 373.305 138.293 373.454C138.146 373.527 137.983 373.599 137.815 373.673C137.012 374.025 136.109 374.422 136.419 375.255L136.454 375.277ZM112.251 386.426C111.582 385.955 110.153 386.45 110.153 386.45C109.238 386.608 109.016 386.543 108.303 386.335C108.083 386.27 107.816 386.192 107.468 386.103C106.513 385.858 106.621 385.721 106.805 385.491C106.905 385.365 107.028 385.211 107.011 384.996C106.985 384.674 107.359 384.766 107.848 384.886C108.285 384.994 108.814 385.124 109.234 385.003C110.124 384.746 110.626 384.87 111.204 385.332C111.53 385.591 112.297 385.472 113.045 385.356C113.625 385.266 114.194 385.178 114.537 385.269C115.325 385.477 114.082 386.402 113.969 386.427C113.962 386.429 113.953 386.432 113.941 386.436C113.926 386.441 113.908 386.447 113.887 386.455C113.619 386.552 112.833 386.836 112.251 386.426ZM122.41 380.505C122.781 380.904 122.929 380.755 123.125 380.559C123.3 380.383 123.513 380.169 123.958 380.279C124.11 380.317 124.237 380.354 124.346 380.386C124.91 380.55 124.982 380.571 125.476 379.795C125.725 379.387 126.101 379.154 126.437 378.945C126.861 378.681 127.223 378.456 127.196 377.97C127.147 377.098 126.895 376.241 126.372 376.416C126.15 376.503 126.048 376.977 125.933 377.509C125.781 378.215 125.607 379.025 125.099 379.172C124.431 379.364 123.996 378.741 123.771 378.417C123.696 378.31 123.644 378.236 123.615 378.235C123.489 378.204 122.864 378.844 122.864 378.844C122.864 378.844 121.76 379.854 122.353 380.517L122.41 380.505ZM146.294 380.625C145.249 380.062 143.246 378.534 143.246 378.534L143.272 378.646L142.651 377.077L141.146 378.147L140.144 376.986L139.181 376.523L138.024 377.692C138.024 377.692 136.65 378.556 134.21 378.627C132.725 378.688 132.673 378.463 132.63 378.275C132.602 378.156 132.578 378.051 132.184 378.047C131.583 378.023 131.501 378.689 131.421 379.335C131.366 379.78 131.311 380.216 131.089 380.409C130.545 380.883 129.615 381.355 129.615 381.355C129.615 381.355 129.418 382.841 128.505 383.515C127.625 384.21 125.664 382.997 125.627 382.829C125.595 382.689 124.311 383.033 124.311 383.033C124.311 383.033 125.928 384.558 126.78 384.663C127.347 384.733 127.404 385.385 127.481 386.267C127.52 386.711 127.563 387.214 127.68 387.73C128 389.278 126.893 389.23 126.893 389.23C126.893 389.23 126.949 391.837 126.236 392.614C125.524 393.39 124.494 392.5 124.494 392.5C124.494 392.5 122.724 392.922 122.537 393.141C122.356 393.387 121.631 391.487 121.631 391.487C121.631 391.487 121.245 392.662 120.791 392.881C120.337 393.099 118.669 392.792 118.669 392.792C118.669 392.792 117.573 394.625 116.258 395.094C115.328 395.425 115.134 395.211 114.674 394.703C114.484 394.493 114.248 394.233 113.896 393.941C112.7 392.97 110.885 390.959 110.885 390.959L109.274 390.905C109.274 390.905 109.533 391.789 109.122 392.852C108.71 393.915 106.558 393.951 106.558 393.951C106.558 393.951 105.738 395.958 105.094 396.778C104.686 397.298 104.594 396.848 104.503 396.4C104.45 396.141 104.397 395.882 104.284 395.81C104.088 395.687 103.776 396.391 103.54 396.925C103.405 397.23 103.294 397.479 103.245 397.484C103.234 397.481 103.232 397.481 103.24 397.484C103.242 397.484 103.244 397.484 103.245 397.484C103.36 397.518 104.423 397.869 104.423 397.869C104.423 397.869 104.717 400.747 104.459 401.57C104.359 401.859 104.329 401.947 104.288 401.951C104.271 401.953 104.251 401.94 104.223 401.92C104.131 401.856 103.947 401.728 103.435 401.886C102.43 402.195 102.892 403.199 103.513 404.547L103.55 404.627C104.035 405.681 102.454 406.346 101.123 406.906C100.701 407.083 100.304 407.25 100.006 407.416C99.2796 407.819 98.5517 408.985 97.8859 410.051C97.4182 410.8 96.9811 411.5 96.5966 411.852C95.6646 412.707 92.0904 414.707 91.7648 414.838C91.4392 414.97 91.1411 416.272 91.1411 416.272L92.5194 416.084L93.8806 415.163C93.8806 415.163 97.8587 411.543 98.4921 411.726C99.1254 411.909 98.2354 413.343 98.2354 413.343C98.2354 413.343 98.2859 415.009 98.5408 415.483C98.7028 415.784 99.3215 415.721 100.028 415.65C100.432 415.61 100.865 415.566 101.258 415.586C102.308 415.647 102.747 418.905 102.747 418.905C102.747 418.905 103.681 418.845 104.508 419.103C105.308 419.367 103.167 420.637 102.563 420.712C101.986 420.782 101.58 419.635 101.58 419.635L100.118 420.637L102.455 421.413C102.455 421.413 103.232 422.889 102.498 422.787C101.73 422.663 100.612 422.823 99.9168 424.597C99.4803 425.71 100.216 425.449 101.219 425.093C101.812 424.883 102.499 424.639 103.091 424.628C104.294 424.605 104.55 425.18 104.71 425.54C104.762 425.656 104.803 425.75 104.864 425.794C105.112 425.975 105.406 427.146 105.031 427.582C104.662 428.047 103.991 426.253 103.991 426.253L102.74 427.267L103.789 428.771L104.637 428.2L105.6 428.663C105.6 428.663 107.179 426.87 107.329 426.748C107.479 426.627 108.629 426.607 108.848 427.971C108.991 428.863 108.254 429.498 107.659 430.009C107.345 430.28 107.07 430.517 106.986 430.739C106.747 431.381 107.254 432.976 107.254 432.976C107.254 432.976 105.512 434.305 105.293 434.383C105.074 434.461 104.115 433.231 104.115 433.231L104.059 432.066L102.98 432.659C102.98 432.659 103.285 433.357 103.454 433.319C103.623 433.282 104.065 434.714 104.065 434.714L105.245 435.483C105.245 435.483 106.733 435.388 107.109 435.216C107.484 435.044 107.316 433.904 107.316 433.904C107.316 433.904 108 432.869 108.338 432.529C108.563 432.325 109.095 432.974 109.487 433.452C109.693 433.704 109.86 433.908 109.923 433.914C110.083 433.967 112.057 434.058 112.057 434.058C112.057 434.058 113.421 431.312 113.796 430.876C114.165 430.411 116.83 432.91 116.83 432.91L117.637 432.289L115.633 429.703C115.633 429.703 116.037 429.525 116.512 429.007C116.972 428.506 116.278 426.826 116.173 426.573L116.165 426.553C116.071 426.397 115.749 423.79 116.52 422.618C116.95 421.965 117.396 422.24 117.892 422.545C118.286 422.788 118.711 423.05 119.184 422.88C119.787 422.678 119.856 421.549 119.921 420.485C119.969 419.702 120.015 418.954 120.269 418.636C120.869 417.884 122.03 415.948 122.02 415.509C122.003 415.042 121.812 414.849 120.713 413.915C119.902 413.209 120.666 412.344 121.324 411.599C121.562 411.33 121.786 411.076 121.916 410.852C122.406 410.007 122.902 411.81 122.902 411.81C122.902 411.81 123.221 411.651 123.184 411.483L123.179 411.465L123.175 411.448C123.117 411.22 122.874 410.259 123.505 409.233C124.176 408.142 125.966 410.041 125.966 410.041C125.966 410.041 126.467 408.193 126.773 407.978C127.052 407.769 128.293 406.316 128.293 406.316C128.293 406.316 130.04 405.663 130.701 404.133C131.236 402.893 131.954 403.583 132.712 404.309L132.712 404.31C132.89 404.48 133.07 404.653 133.25 404.803C133.762 405.23 134.55 405.2 135.433 405.168C136.186 405.139 137.007 405.109 137.785 405.356C139.045 405.737 139.855 406.548 140.551 407.245C140.786 407.479 141.007 407.701 141.228 407.889C142.107 408.635 145.96 411.283 145.96 411.283L146.705 410.911L145.832 407.043C145.832 407.043 146.32 404.874 146.343 403.927C146.346 403.817 146.349 403.706 146.353 403.594L146.353 403.594L146.353 403.594C146.382 402.751 146.41 401.902 145.98 401.27C145.465 400.56 148.47 400.894 148.47 400.894L149.44 398.765C149.44 398.765 151.359 396.249 151.872 395.635C152.412 395.014 153.735 395.368 153.735 395.368L153.725 393.487L156.391 393.101L156.659 392.188L154.629 390.931C154.629 390.931 153.651 390.795 153.505 390.15C153.36 389.505 155.058 389.688 155.058 389.688L155.127 388.289C155.127 388.289 153.06 387.129 152.837 387.06C152.615 386.992 151.911 385.971 151.583 385.308C151.25 384.617 151.946 383.638 151.946 383.638C151.946 383.638 151.845 382.924 151.367 382.383C150.918 381.835 151.393 379.875 151.393 379.875C151.393 379.875 148.524 380.277 148.355 380.314C148.347 380.316 148.336 380.32 148.323 380.327C148.311 380.333 148.297 380.341 148.282 380.351C148.261 380.364 148.237 380.379 148.209 380.397L148.208 380.398C147.884 380.605 147.127 381.091 146.294 380.625ZM57.4228 403.411C58.7844 403.549 60.0961 402.288 60.0961 402.288L61.3204 402.604C61.3204 402.604 58.7603 403.966 59.6352 404.83C60.5102 405.694 61.2065 406.422 61.2065 406.422C61.2065 406.422 60.4756 407.113 60.9967 407.85C61.3184 408.317 62.3371 409.044 63.1084 409.595C63.6015 409.947 63.9934 410.227 64.0375 410.321C64.1079 410.469 65.0571 410.866 65.9813 411.253L65.9827 411.254C66.5444 411.488 67.0966 411.719 67.4364 411.888C67.8511 412.095 68.127 412.438 68.3966 412.774C68.7116 413.166 69.0181 413.548 69.5276 413.688C70.4732 413.948 70.895 412.149 70.895 412.149L71.8838 412.077C71.8838 412.077 72.4428 412.982 73.2868 412.53C74.1308 412.078 75.739 410.427 75.6936 409.702C75.6764 408.971 76.9261 407.959 76.9261 407.959L79.4551 408.161C79.4551 408.161 82.3919 411.743 82.4109 411.827C82.4235 411.883 81.2427 415.82 81.2427 415.82C81.2427 415.82 80.1396 415.124 79.565 415.722C78.9842 416.292 79.0025 417.552 79.0025 417.552C79.0025 417.552 78.163 418.679 77.149 418.64C76.7111 418.635 76.3348 418.383 76.0108 418.166C75.5891 417.884 75.2561 417.662 74.9917 418.119C74.5239 418.929 74.2746 419.396 75.2437 420.415C76.2411 421.428 77.7762 422.205 79.4814 422.032C81.2147 421.853 84.778 421.268 84.778 421.268L85.4743 421.995C85.4743 421.995 86.4814 423.182 85.7505 423.874C85.0197 424.565 85.9791 425.411 85.9791 425.411L87.0311 424.177L90.3559 424.762L90.4863 425.733L89.4015 426.297L88.5162 426.435C88.5162 426.435 87.8101 425.533 87.7853 427.126C87.7783 427.577 87.7332 427.984 87.6928 428.348C87.5904 429.273 87.5185 429.922 88.177 430.303C89.0951 430.834 91.7327 430.601 91.7327 430.601L92.7095 429.296L93.2782 430.375C93.2782 430.375 91.5207 430.971 91.0812 431.775C90.9735 431.961 90.8495 432.151 90.7279 432.337C90.3212 432.96 89.9421 433.54 90.2968 433.801C90.7576 434.14 91.7337 434.011 91.7337 434.011L91.6664 434.761C91.6664 434.761 88.1854 434.27 88.3393 435.999C88.5213 437.723 88.492 438.641 88.492 438.641C88.492 438.641 85.0914 437.72 85.401 439.092C85.7106 440.464 86.5959 440.326 86.5959 440.326L86.4103 441.337L84.4643 441.622C84.4643 441.622 83.1693 441.91 83.5531 442.824C83.9368 443.739 85.0692 443.517 85.0692 443.517L84.5739 444.597C84.5739 444.597 82.6533 443.553 83.1129 444.804C83.5443 446.06 84.4452 445.86 84.4452 445.86L84.51 446.934L83.2805 447.118L83.1494 450.205C83.1494 450.205 82.2909 451.248 82.0662 453.003C81.8908 454.276 81.8444 456.65 81.8097 458.428C81.7956 459.15 81.7834 459.773 81.7653 460.185C81.7348 460.88 81.4438 461.668 81.1634 462.427C80.869 463.224 80.5863 463.989 80.6293 464.582C80.6522 464.899 80.6571 465.136 80.6611 465.325C80.6717 465.829 80.6753 466 80.99 466.442C81.4231 467.052 81.303 467.96 81.303 467.96C81.303 467.96 80.2235 468.024 80.4825 469.172C80.5497 469.469 80.5871 469.69 80.6171 469.868C80.7001 470.359 80.7273 470.52 81.1718 471.047C81.7837 471.793 81.5756 472.574 81.5756 472.574C81.5756 472.574 80.4927 472.491 80.4667 473.556C80.4753 474.641 81.4255 475.577 81.4255 475.577L80.9388 476.302L79.9266 475.616L79.8202 477.109C79.8202 477.109 78.3034 477.593 78.9618 478.153C79.1848 478.342 79.4998 478.548 79.8036 478.747C80.3968 479.135 80.9477 479.496 80.6893 479.65C80.2986 479.884 79.3512 480.271 79.3512 480.271L75.9093 479.036L75.4009 478.355C75.4009 478.355 74.2249 477.205 72.5317 478.61C70.8103 480.021 70.2242 481.092 71.3641 481.427C72.5039 481.762 73.9121 481.714 73.9121 481.714L73.4679 483.282L73.2357 484.481C73.2357 484.481 72.8405 484.039 71.7792 485.363C71.2376 486.038 71.004 486.645 70.7934 487.192C70.5913 487.717 70.4105 488.187 69.9991 488.609C69.1591 489.472 68.3059 490.014 66.8081 490.582L65.304 491.122L63.6756 493.6C63.6756 493.6 62.8163 491.233 63.2311 490.583C63.6459 489.932 65.392 488.368 65.392 488.368C65.392 488.368 64.366 487.097 64.8147 486.203C65.2635 485.31 65.2038 483.736 65.2038 483.736L64.7241 483.313C64.7241 483.313 65.6761 483.601 65.3418 482.382C64.9856 481.197 62.906 478.925 62.906 478.925L62.2166 477.049C62.2166 477.049 63.2847 477.459 63.6731 476.167C63.8546 475.564 64.0444 475.369 64.1857 475.224C64.3469 475.059 64.445 474.958 64.3954 474.39C64.3024 473.323 63.0857 470.682 61.4368 470.843C59.7879 471.003 58.1338 471.664 58.4945 473.525C58.8552 475.385 59.6653 475.176 59.6653 475.176C59.6653 475.176 61.9077 474.501 61.8881 475.593C61.8967 476.679 61.4197 477.579 60.5712 477.356C60.1644 477.255 59.8394 476.953 59.5335 476.668C59.1801 476.339 58.8521 476.034 58.453 476.091C57.7084 476.198 57.4716 476.721 57.5071 478.712C57.5131 479.049 57.5113 479.422 57.5093 479.812C57.4996 481.731 57.4878 484.074 58.3991 484.629C59.4958 485.297 61.3762 485.115 61.3762 485.115L61.93 486.52C61.93 486.52 61.4898 488.5 61.7098 488.951C61.9299 489.402 61.4397 489.981 61.4397 489.981C61.4397 489.981 60.8997 489.16 60.2585 489.332C60.2208 489.342 60.1877 489.351 60.1586 489.359C60.0368 489.393 59.983 489.408 59.9383 489.394C59.9029 489.383 59.8731 489.353 59.8198 489.301C59.6824 489.167 59.3889 488.879 58.4414 488.353C56.7272 487.403 55.622 487.86 55.1246 488.066L55.1228 488.067L55.0663 488.09C55.0381 488.102 55.0124 488.112 54.989 488.12C54.6075 488.264 52.46 487.918 52.46 487.918C52.46 487.918 51.4884 488.721 51.1535 488.678C50.8185 488.635 49.6201 487.255 49.6477 486.984C49.6816 486.741 48.3964 485.762 48.3964 485.762L46.7649 483.773L47.6378 483.098C47.7067 483.201 47.9695 483.314 48.6074 483.422C50.4827 483.741 52.4069 482.05 52.4708 479.713C52.4925 478.918 52.6645 478.274 52.8099 477.728C53.0921 476.671 53.2745 475.987 52.0671 475.304C50.8542 474.603 50.6278 474.157 50.386 473.68C50.2617 473.435 50.1334 473.183 49.8651 472.883C49.4049 472.369 48.7086 472.007 48.2014 471.743L48.2011 471.743C47.8371 471.554 47.5704 471.416 47.5584 471.308C47.5016 471.056 47.7924 469.462 47.7924 469.462C47.7924 469.462 48.7857 470.065 49.0971 469.349C49.4086 468.633 48.0297 467.763 48.0297 467.763L47.9495 463.871C47.9495 463.871 46.9183 463.1 46.6552 462.983C46.392 462.865 43.9734 460.138 44.0355 459.889C44.0694 459.647 44.8198 457.863 45.0829 457.981C45.1788 458.024 45.3968 458.052 45.6484 458.083C46.0873 458.139 46.6285 458.207 46.8019 458.393C46.8184 458.409 46.8381 458.427 46.8606 458.447L46.8952 458.478L46.9428 458.521C47.396 458.926 48.4337 459.854 47.8354 460.222C47.5959 460.376 47.2054 460.48 46.8632 460.572C46.2097 460.746 45.7321 460.874 46.8173 461.212C48.4707 461.727 49.286 461.017 49.286 461.017C49.286 461.017 49.2377 461.851 49.9168 461.847C50.5959 461.843 52.1576 458.938 52.1915 458.696C52.2054 458.596 52.5138 458.2 52.9186 457.68C53.5028 456.93 54.288 455.921 54.6783 455.174C55.3109 453.917 55.7167 450.475 55.7167 450.475L55.1355 447.899L56.3093 446.551C56.3093 446.551 58.1405 443.792 56.822 443.321C55.5034 442.849 53.9699 444.307 53.9699 444.307C53.9699 444.307 52.656 444.51 52.6221 444.753C52.5882 444.996 51.8264 444.371 51.8264 444.371L53.8931 442.001L55.9063 440.966L55.1601 438.839C55.1601 438.839 56.9377 437.415 55.5968 436.713C54.7629 436.262 53.5502 435.939 52.687 435.709C52.1558 435.568 51.757 435.462 51.6602 435.383C51.3782 435.181 48.5556 432.368 48.5556 432.368C48.5556 432.368 50.2323 429.056 48.5041 428.734C47.7001 428.584 47.2002 428.761 46.8062 428.901C46.3532 429.062 46.0401 429.173 45.5654 428.681C45.2953 428.394 45.1292 428.138 44.9996 427.938C44.7004 427.477 44.5953 427.315 43.8517 427.768C42.7859 428.416 39.3449 430.591 41.4102 432.014C42.1423 432.518 42.9256 432.904 43.6011 433.237C44.8315 433.843 45.7045 434.273 45.2594 434.922C44.9866 435.32 44.2344 435.544 43.5097 435.759C42.4032 436.088 41.3606 436.398 42.185 437.281C43.5776 438.735 44.4819 438.682 45.685 437.856C46.8881 437.03 48.7179 438.065 48.9535 438.453C49.0944 438.686 49.1256 440.027 49.1538 441.237C49.1728 442.05 49.1903 442.803 49.2388 443.123C49.3657 443.947 48.5061 444.462 47.5794 444.285C47.3271 444.233 47.0944 444.151 46.887 444.077C46.3041 443.87 45.921 443.734 45.865 444.548C45.8376 444.947 45.8598 445.258 45.8776 445.508C45.909 445.949 45.9267 446.197 45.6311 446.394C45.1686 446.702 44.1012 445.116 44.1012 445.116L43.764 444.015C43.764 444.015 46.0679 444.268 45.5003 442.277C44.9328 440.287 42.6641 438.879 41.9556 439.801C41.2472 440.723 40.8002 440.969 40.8002 440.969C40.8002 440.969 38.3797 440.331 38.1941 441.342C38.0085 442.353 37.0335 443.011 37.0335 443.011C37.0335 443.011 36.6979 444.144 35.9429 445.252C35.1879 446.361 33.555 448.164 33.555 448.164L33.4281 447.339C33.4281 447.339 35.8475 444.568 35.1702 443.924C34.4929 443.281 32.6981 442.533 32.6981 442.533C32.6981 442.533 33.2313 441.621 31.8622 440.925C30.515 440.195 28.7559 438.557 28.6427 438.318C28.5296 438.078 28.2459 435.642 28.2459 435.642C28.2459 435.642 29.7053 433.202 29.795 432.682C29.8846 432.162 31.0825 431.837 31.275 432.559C31.4392 433.287 35.107 434.736 35.107 434.736L35.1131 437.646C35.1131 437.646 33.7291 437.277 33.9818 438.397C34.0265 438.594 34.067 438.819 34.109 439.052C34.3045 440.135 34.5314 441.392 35.3548 440.943C35.8579 440.653 36.1156 439.981 36.336 439.405C36.5511 438.844 36.7305 438.376 37.0676 438.446C37.2395 438.482 37.4991 438.575 37.7911 438.679C38.6586 438.989 39.811 439.401 39.7909 438.724C39.7358 437.825 37.0012 435.139 37.0012 435.139C37.0012 435.139 37.6671 433.374 36.5652 433.207C35.4633 433.04 34.6899 432.889 34.6899 432.889L33.2824 431.761L31.8932 431.893C31.8932 431.893 32.7424 430.94 31.8146 430.234C30.8867 429.529 29.6279 430.632 29.6279 430.632L28.4828 430.798C28.4828 430.798 30.0238 429.897 29.2482 428.688C28.4727 427.478 27.558 428.534 27.558 428.534L26.5313 428.438C26.5313 428.438 27.3392 427.171 27.4001 426.393C27.4674 425.643 27.2388 424.106 27.2388 424.106C27.2388 424.106 28.0035 423.172 28.2759 423.2C28.3418 423.209 28.4137 423.292 28.5072 423.4C28.7599 423.692 29.1708 424.167 30.0517 423.864C30.4656 423.721 30.9029 423.503 31.313 423.299L31.3133 423.299C32.0711 422.922 32.7358 422.591 32.9882 422.859C33.2019 423.086 33.1522 423.887 33.1088 424.587C33.0732 425.16 33.0419 425.665 33.1632 425.731C33.4264 425.849 34.9495 425.393 35.0202 424.789C35.0909 424.186 34.7658 421.436 34.393 421.224C34.0264 421.041 31.3313 420.758 31.3313 420.758C31.3313 420.758 32.0008 419.139 32.4138 419.136C32.8269 419.132 35.124 417.652 35.124 417.652L36.1087 418.609L36.6193 420.348L38.4848 420.492C38.4848 420.492 39.6237 417.417 40.4246 417.298C41.6036 416.889 41.4353 415.751 41.4353 415.751L39.0096 415.613L39.3739 414.738L41.4302 413.37L42.4856 413.724C42.4856 413.724 41.5796 414.425 42.616 414.695C43.0971 414.82 43.3456 414.959 43.568 415.083C43.8247 415.226 44.0467 415.35 44.5515 415.412C45.4938 415.526 47.4351 414.565 47.4351 414.565C47.4351 414.565 47.946 413.423 47.6691 412.72C47.3922 412.017 46.4213 411.645 46.2184 411.925C46.0156 412.205 45.2365 413.731 45.2365 413.731L44.7091 412.966L47.2659 410.017L47.8181 409.189L48.0452 405.61C48.0452 405.61 48.9743 403.963 49.604 404.265C49.7638 404.341 49.9587 404.472 50.1698 404.614L50.1702 404.614C50.7908 405.032 51.5507 405.543 51.9653 405.034C52.1253 404.837 52.2896 404.606 52.4526 404.376C52.8554 403.809 53.2496 403.254 53.5482 403.271C53.6791 403.279 54.0097 403.291 54.432 403.306C55.3625 403.34 56.7378 403.39 57.401 403.445L57.4228 403.411ZM48.099 482.742C48.099 482.742 47.5039 482.899 47.6378 483.098L48.099 482.742ZM53.0821 447.849C53.4835 446.613 51.7176 445.475 51.7176 445.475L51.6675 445.515C51.6675 445.515 52.0941 447.274 51.5317 447.929C51.2973 448.202 50.7832 448.168 50.1443 448.127C49.2503 448.07 48.1119 447.997 47.1543 448.724C45.8682 449.701 46.792 450.494 47.2801 450.913C47.4151 451.029 47.5168 451.117 47.5291 451.171C47.5515 451.402 47.1069 452.971 46.7883 453.395C46.4697 453.819 46.0795 448.551 46.0795 448.551C46.0795 448.551 44.317 447.559 44.0347 447.357C43.8918 447.24 43.3109 447.834 42.7862 448.37L42.786 448.37L42.7857 448.371L42.7847 448.372L42.7844 448.372L42.7833 448.373C42.3757 448.79 42.0027 449.171 41.8959 449.156C41.6452 449.094 41.0753 449.191 41.0753 449.191C41.0753 449.191 41.6923 450.613 41.4956 450.922C41.2707 451.237 40.0796 453.825 40.0796 453.825C40.0796 453.825 41.2515 455.478 41.8933 455.306C42.5351 455.134 43.6276 456.304 42.7828 456.756C41.938 457.208 40.3428 458.269 40.3428 458.269C40.3428 458.269 41.9689 461.409 42.8516 461.125C43.5164 460.911 43.1897 459.799 42.9499 458.982C42.8712 458.714 42.8019 458.478 42.7799 458.316C42.6676 457.693 43.8119 457.115 44.725 456.654L44.8467 456.592C45.776 456.121 46.2344 455.136 46.3529 454.875C46.4996 454.607 47.7216 453.335 47.7216 453.335C47.7216 453.335 48.0241 452.709 48.9816 452.232C49.9392 451.754 50.0991 450.365 50.0991 450.365C50.0991 450.365 51.3831 451.728 51.4854 452.706C51.5758 453.57 50.1165 453.812 49.5619 453.905L49.4852 453.918C49.4481 453.924 49.4178 453.93 49.3956 453.934C49.0793 453.975 49.583 455.158 49.583 455.158L50.56 455.029C50.56 455.029 52.5717 452.406 52.6994 452.054C52.7543 451.863 52.6328 451.29 52.5202 450.758C52.4288 450.327 52.3432 449.924 52.3626 449.774C52.3836 449.612 52.4583 449.437 52.5766 449.161C52.7009 448.871 52.8732 448.468 53.0821 447.849ZM38.9732 468.489C39.2675 468.482 40.7499 469.153 41.3143 469.557C41.8788 469.961 42.0057 470.786 41.543 471.094C41.3529 471.221 40.9676 471.059 40.5726 470.892C40.0063 470.653 39.4201 470.406 39.3605 470.991C39.2593 471.984 39.2172 472.846 39.2172 472.846C39.2172 472.846 38.5378 472.85 38.2354 473.476C37.9049 474.108 36.4705 478.367 36.4705 478.367C36.4705 478.367 35.4026 476.781 35.002 476.84C34.6013 476.9 35.1843 474.241 35.1843 474.241C35.1843 474.241 35.9759 473.948 37.0715 472.381C37.5194 471.741 37.5877 470.973 37.6488 470.288C37.7371 469.295 37.8103 468.474 38.995 468.454L38.9732 468.489ZM12.6474 431.419C11.609 430.356 10.7032 429.88 9.8532 430.569L9.85952 430.597C9.43766 430.955 10.3215 431.465 10.6756 431.592C11.0296 431.719 11.9479 432.251 12.614 433.367C13.28 434.484 12.0178 437.146 11.4614 437.563C11.2027 437.758 10.9729 438.193 10.7169 438.679C10.4224 439.238 10.0932 439.862 9.6452 440.26C9.1817 440.672 8.97033 441.038 8.6702 441.556C8.42808 441.975 8.12819 442.493 7.59159 443.216C6.38977 444.835 5.79038 444.145 5.79038 444.145C5.79038 444.145 5.00755 445.524 3.09946 446.242C1.21954 446.954 3.16042 445.464 3.16042 445.464C3.16042 445.464 2.05301 444.357 1.7806 444.33C1.48003 444.308 1.36322 446.804 1.47755 447.573C1.50585 447.763 1.55879 447.982 1.61436 448.212C1.78322 448.911 1.9764 449.71 1.57683 450.109C1.28465 450.382 1.1544 450.21 0.998261 450.004C0.867238 449.831 0.717985 449.634 0.439493 449.656C-0.177178 449.675 0.726227 450.533 1.61355 451.189L1.61443 451.189L1.61547 451.19C1.92147 451.416 2.01541 451.486 2.00659 451.503C2.00267 451.511 1.97853 451.509 1.9437 451.505C1.8302 451.493 1.60319 451.47 1.59283 451.752C1.57211 452.315 0.855438 452.416 0.855438 452.416C0.855438 452.416 1.43243 452.876 1.96517 453.14C2.31736 453.298 2.43292 452.876 2.51954 452.56C2.5624 452.404 2.59817 452.274 2.652 452.252C2.6953 452.235 2.77898 452.229 2.90037 452.221C3.23503 452.199 3.85627 452.157 4.70777 451.796C5.56855 451.426 5.41247 451.927 5.32124 452.221C5.29248 452.313 5.27016 452.385 5.2882 452.402C5.33533 452.48 5.70886 452.955 6.07496 452.874C6.44738 452.821 6.59738 452.699 6.6101 451.314C6.62282 449.93 5.74806 450.771 5.74806 450.771C5.74806 450.771 6.00672 450.213 6.73779 449.522C7.24677 449.04 7.73954 449.503 8.04259 449.788C8.17483 449.912 8.27094 450.002 8.31651 449.965C8.3659 449.925 8.57495 449.812 8.83764 449.669L8.83794 449.668C9.37311 449.377 10.1306 448.965 10.2143 448.809C10.2614 448.705 10.1358 448.686 9.93682 448.655C9.63556 448.609 9.16606 448.538 8.87292 448.107C8.47603 447.523 8.21972 447.476 7.3983 447.324L7.39801 447.324C7.21213 447.289 6.99731 447.25 6.74539 447.197C5.62165 446.972 6.00414 445.84 6.24148 445.137L6.24156 445.137L6.24178 445.136L6.24185 445.136L6.24208 445.135L6.24216 445.135L6.24239 445.134L6.24248 445.134L6.24253 445.134C6.29908 444.966 6.34724 444.823 6.36449 444.723C6.41494 444.431 6.90749 444.273 7.37657 444.123L7.37672 444.123C7.74145 444.006 8.09197 443.893 8.20938 443.726C8.40304 443.449 8.54284 443.139 8.73328 442.716L8.73381 442.715L8.73497 442.712C8.80803 442.55 8.88856 442.371 8.98245 442.172C9.20132 441.706 9.93455 441.725 10.4149 441.737C10.6801 441.744 10.8683 441.749 10.8503 441.669C10.8279 441.439 10.7929 439.711 11.159 439.63C11.5188 439.521 11.7457 441.705 11.606 442.266C11.4699 442.812 11.8323 442.828 12.1551 442.843L12.1801 442.844C12.5089 442.859 13.3647 441.934 13.1319 441.427L13.1034 441.365C12.8742 440.868 12.5855 440.242 12.7516 439.218C12.8865 438.386 13.7563 438.82 14.2327 439.057C14.3675 439.124 14.4708 439.176 14.5171 439.179C14.755 439.185 14.9378 438.291 15.0046 437.277C15.0431 436.268 13.339 437.235 13.339 437.235C13.339 437.235 13.7368 435.853 14.3162 434.489C14.7817 433.393 14.0924 432.763 13.265 432.006C13.0624 431.821 12.8516 431.628 12.6474 431.419ZM12.3555 427.938C12.9984 426.854 13.866 426.897 14.5433 427.276C15.2269 427.683 15.4281 429.492 14.2948 429.714C13.1615 429.936 11.7782 428.92 12.3555 427.938ZM20.7462 431.737C19.3739 432.865 18.0834 432.651 17.9138 432.424L17.8793 432.403C17.405 431.811 18.0825 431.543 18.9383 431.204C19.4193 431.013 19.9565 430.8 20.3772 430.495C21.0987 429.972 20.9253 429.625 20.72 429.215C20.5926 428.96 20.4529 428.68 20.5073 428.319C20.5801 427.835 20.8084 427.557 21.0031 427.319C21.1879 427.094 21.3425 426.905 21.3053 426.613C21.2288 426.012 21.2496 425.448 21.9204 425.799C22.5913 426.151 23.1606 422.906 23.1606 422.906C23.1606 422.906 24.7678 424.785 24.1555 425.48C23.9296 425.736 23.597 426.501 23.1967 427.42C22.5122 428.993 21.63 431.021 20.7462 431.737ZM23.7076 411.075C24.1254 413.188 26.1834 413.526 26.8773 412.931C27.5712 412.335 27.9053 410.408 27.0839 409.914C26.2906 409.414 23.1949 408.542 23.7076 411.075ZM291.4 301.673C290.854 302.529 292.911 302.867 294.161 303.03L294.089 303.105C294.481 303.148 294.97 303.321 295.512 303.513L295.514 303.514L295.514 303.514C296.689 303.931 298.111 304.435 299.322 303.884C299.229 305.434 297.26 305.754 295.513 305.877C293.766 306 292.86 306.701 291.791 309.173C291.679 309.433 291.56 309.705 291.437 309.986C290.389 312.374 289.074 315.372 289.559 316.58C290.1 317.93 291.029 318.901 291.029 318.901C291.029 318.901 290.236 320.106 290.223 321.226C290.21 322.347 288.705 325.769 287.776 326.24C287.28 326.491 287.024 326.011 286.783 325.56C286.572 325.165 286.373 324.793 286.036 324.95C285.697 325.093 285.667 325.39 285.628 325.781C285.583 326.233 285.526 326.81 284.967 327.422C284.456 327.982 283.995 328.164 283.559 328.337C283.104 328.516 282.676 328.686 282.247 329.261C281.407 330.389 281.318 331.173 281.267 332.39C281.217 333.607 280.086 334.888 280.086 334.888C280.086 334.888 278.182 333.399 277.48 333.172C277.178 333.075 277.31 332.957 277.542 332.751C277.848 332.477 278.33 332.048 278.212 331.304C278.147 330.939 278.092 330.49 278.035 330.028C277.893 328.879 277.742 327.652 277.403 327.455C277.295 327.402 277.184 327.385 277.082 327.369C276.712 327.312 276.462 327.273 276.907 325.653C277.476 323.586 275.657 322.078 275.657 322.078C275.657 322.078 277.618 321.466 277.098 319.553C276.825 318.49 277.725 317.761 278.563 317.083C279.239 316.536 279.876 316.021 279.825 315.389C279.771 314.707 280.015 314.62 280.268 314.53C280.541 314.432 280.824 314.331 280.754 313.477C280.664 312.345 279.221 311.557 278.174 310.986C277.723 310.74 277.346 310.534 277.182 310.358C275.799 310.783 274.043 311.261 274.043 311.261C274.043 311.261 272.173 310.97 272.035 312.324C271.897 313.678 272.893 315.075 272.893 315.075C272.893 315.075 271.106 317.118 271.03 318.223C270.954 319.328 270.773 322.457 271.812 323.52C272.85 324.583 273.938 325.077 273.938 325.077C273.938 325.077 272.644 326.158 273.231 327.057C273.791 327.963 273.883 328.501 273.883 328.501L272.568 328.705C272.568 328.705 272.862 326.992 271.844 326.807C271.436 326.732 271.381 326.286 271.319 325.777C271.226 325.018 271.117 324.121 269.787 324.116C267.539 324.116 263.555 324.941 261.604 325.992C260.206 326.744 259.348 328.052 258.967 328.724L258.967 328.724C258.876 328.715 258.785 328.706 258.701 328.725C256.14 328.911 256.02 328.114 255.931 327.457C255.87 327.059 256.13 326.766 256.545 326.38C256.867 326.103 257.154 325.804 257.185 325.414C257.211 324.906 256.856 324.721 256.619 324.597L256.582 324.578C256.284 324.438 255.918 324.255 255.465 323.561C255.06 322.945 255.882 322.263 257.023 321.421C257.07 321.387 257.117 321.353 257.164 321.319L257.183 321.306C257.529 321.056 257.848 320.825 258.073 320.571C258.907 319.68 258.529 318.528 258.268 317.763C258.202 317.601 258.17 317.461 258.138 317.321C257.921 316.487 256.673 315.676 254.036 314.085C251.773 312.706 247.999 310.926 247.999 310.926C247.827 310.817 246.453 309.71 245.183 308.669L245.133 307.004C245.129 306.858 244.966 306.659 244.966 306.659L241.021 303.594L240.807 303.171C241.085 302.697 241.649 301.66 241.595 301.025C241.553 300.446 241.038 300.002 240.693 299.784C240.821 299.433 241.02 299.006 241.142 298.891C241.63 298.429 241.355 297.344 241.198 296.908L241.179 296.824C241.072 296.612 239.95 294.656 238.635 294.595C237.648 294.549 236.645 295.213 236.182 295.522L236.154 295.528C236.072 295.428 235.956 295.307 235.903 295.201C236.168 294.672 235.943 293.546 235.287 292.868C234.933 292.476 234.984 291.523 235.03 291.072C235.031 291.056 235.033 291.041 235.035 291.026L235.04 290.987C235.043 290.963 235.046 290.94 235.049 290.918C235.063 290.817 235.073 290.741 235.06 290.683C235.135 290.49 235.641 289.848 236.166 289.555C236.866 289.168 236.705 288.658 236.6 288.327L236.596 288.313C236.517 288.095 236.426 287.821 236.45 287.404C236.498 286.57 238.043 285.551 239.232 285.316C240.449 285.075 241.924 284.924 241.924 284.924C242.008 284.906 242.086 284.859 242.164 284.812C242.264 284.731 242.708 284.338 242.782 283.881C242.805 283.79 242.806 283.672 242.807 283.523C242.807 283.468 242.808 283.409 242.809 283.345C242.812 283.292 242.813 283.236 242.815 283.177L242.815 283.176C242.829 282.741 242.848 282.163 243.031 281.708C243.1 281.487 243.262 281.421 243.685 281.328C244.051 281.246 244.495 281.118 244.917 280.76C245.583 280.171 245.369 279.483 245.173 278.88C245.035 278.528 244.924 278.17 244.914 277.732C244.889 276.443 246.579 276.068 246.917 275.993C247.938 275.796 248.514 274.55 248.763 273.818L248.806 273.843L248.807 273.843C249.144 274.031 249.619 274.296 249.911 274.711C250.379 275.342 251.251 276.06 252.028 276.623C252.096 276.665 252.163 276.708 252.228 276.751C252.291 276.791 252.352 276.831 252.412 276.87C252.642 277.021 252.853 277.158 253.028 277.253C253.884 277.769 255.097 278.294 255.16 278.31C255.36 278.412 255.579 278.334 255.695 278.191C256.844 276.73 258.702 274.347 258.839 274.169C258.889 274.129 259.102 274.023 259.265 273.957C259.859 273.708 260.907 273.24 261.847 272.296C262.428 271.726 262.975 271.134 263.443 270.589C263.58 270.444 263.713 270.301 263.841 270.163L263.841 270.163L263.841 270.162L263.842 270.161L263.842 270.161L263.843 270.16C264.275 269.695 264.646 269.295 264.865 269.156C265.412 268.828 267.167 267.821 267.507 267.628C267.986 267.521 270.984 266.915 272.575 266.885C273.791 266.847 274.699 267.992 275.2 268.624L275.221 268.65C275.343 268.8 275.466 268.949 275.541 269.02C275.726 269.185 276.216 269.782 276.706 270.379C277.242 271.054 277.889 271.822 278.278 272.236C279.063 273.091 281.38 274.577 282.83 274.843C283.29 274.917 283.635 274.87 283.913 274.661C284.307 274.357 284.356 273.854 284.404 273.354C284.408 273.311 284.413 273.268 284.417 273.226C284.433 273.124 284.446 273.02 284.459 272.916C284.484 272.708 284.509 272.499 284.565 272.311C284.718 271.806 284.714 271.395 284.694 271.047C284.671 270.552 284.677 270.315 285.049 269.998C285.443 269.645 285.935 269.86 286.95 270.428L287.009 270.461L287.054 270.486L287.094 270.509L287.189 270.563L287.19 270.564C287.42 270.695 287.659 270.832 287.925 270.947C288.125 271.05 288.313 271.096 288.501 271.143L288.501 271.143C288.416 272.337 288.329 273.829 288.242 275.329L288.242 275.331L288.242 275.333L288.242 275.335C288.067 278.335 287.891 281.366 287.723 282.109C287.379 283.597 287.053 285.169 288.395 285.871C289.022 286.199 288.587 286.775 288.074 287.457C287.488 288.235 286.799 289.15 287.461 289.99C287.716 290.313 287.985 290.639 288.253 290.963L288.253 290.963C289.29 292.22 290.298 293.442 290.332 294.322C290.369 295.402 294.106 299.513 294.106 299.513L296.684 302.676L294.124 301.95C294.124 301.95 291.946 300.816 291.4 301.673ZM139.698 365.238C139.672 365.18 139.636 365.103 139.594 365.012L139.643 365.007L139.704 365.001L139.698 365.238ZM139.594 365.012C139.262 364.297 138.484 362.647 137.957 361.589C137.214 360.134 137.087 359.308 136.902 357.7C136.748 356.507 137.471 355.755 138.106 355.097L138.166 355.034C138.227 354.967 138.289 354.902 138.351 354.838C138.597 354.577 138.835 354.326 139.01 354.051C139.557 353.193 139.452 351.155 139.379 350.435C139.328 350.211 139.516 349.992 139.741 349.942C140.474 349.779 141.239 349.492 141.342 349.292C141.394 349.133 141.479 348.849 141.578 348.503L141.655 348.255C141.932 347.365 142.328 346.092 142.39 345.407C142.466 344.566 141.69 343.619 139.775 342.218C139.665 342.125 139.571 341.969 139.595 341.816C139.73 340.166 137.977 338.791 137.627 338.517C137.589 338.487 137.567 338.47 137.567 338.467C137.561 338.464 137.555 338.46 137.55 338.455C137.544 338.45 137.538 338.445 137.532 338.44L137.523 338.431L137.512 338.42C137.493 338.403 137.474 338.385 137.457 338.374L137.375 338.274C136.845 338.528 136.424 338.958 135.929 339.463C135.351 340.053 134.673 340.745 133.604 341.379C132.114 342.264 130.893 342.213 129.831 342.168C129.312 342.146 128.83 342.125 128.375 342.217C127.627 342.383 127.32 342.692 127.019 342.995C126.764 343.251 126.514 343.502 126.005 343.656C124.896 343.991 116.491 344.797 116.491 344.797C116.491 344.797 115.029 347.242 114.227 347.627C113.448 347.977 112.398 346.472 112.398 346.472C112.398 346.472 110.855 346.196 110.314 345.374C109.773 344.551 112.638 342.943 112.638 342.943L111.658 342.012C111.658 342.012 110.468 342.512 109.178 343.358C108.442 343.841 108.137 343.585 107.728 343.241C107.42 342.982 107.053 342.673 106.399 342.591C105.221 342.443 104.577 343.954 104.242 344.738C104.144 344.968 104.073 345.136 104.022 345.181C104.011 345.191 103.996 345.206 103.979 345.224C103.946 345.258 103.905 345.304 103.854 345.361C103.413 345.855 102.284 347.119 100.764 347.406C100.466 347.463 100.224 347.502 100.019 347.535C98.9946 347.7 98.9235 347.712 97.6485 348.952C96.5398 350.031 96.5298 349.705 96.5224 349.464C96.5195 349.372 96.5171 349.292 96.455 349.306C96.2012 349.362 96.2881 350.403 96.2881 350.403C96.2881 350.403 98.3907 351.586 97.8756 352.584C97.3605 353.581 94.8083 356.181 94.5827 356.231C94.3289 356.287 93.4548 356.481 93.0053 357.376C92.5558 358.271 90.4876 359.997 90.2464 360.11C90.0053 360.222 89.5524 360.971 89.4511 361.965C89.3561 362.988 85.91 366.875 85.6879 367.071C85.5857 367.162 85.4263 367.471 85.1988 367.911C84.9317 368.429 84.5707 369.128 84.0983 369.869C83.4825 370.835 82.9101 371.018 82.0516 371.292C81.6906 371.408 81.279 371.539 80.7922 371.752C79.8467 372.165 79.3599 373.266 78.9174 374.266C78.5905 375.005 78.2878 375.689 77.8422 376C77.1939 376.454 76.8202 376.419 76.2605 376.366C75.9149 376.333 75.4985 376.294 74.9028 376.359C73.6892 376.468 73.3091 377.754 72.9706 378.898L72.9705 378.899C72.8719 379.232 72.7769 379.553 72.6658 379.83C72.1912 381.014 71.95 381.162 70.6537 381.955L70.5014 382.049C70.6044 383.292 68.6189 385.648 67.7304 386.434C66.8418 387.22 65.4936 387.019 64.6154 386.802C63.7373 386.584 62.0737 385.511 62.0737 385.511L60.8083 385.939L57.984 384.446L57.0057 385.753L57.1455 386.635L58.4713 386.605C58.4713 386.605 59.7782 386.492 60.0141 386.881C60.25 387.271 59.3183 388.391 57.9303 388.669C56.8893 388.9 56.5069 388.4 56.2689 388.089C56.191 387.987 56.1286 387.905 56.0636 387.876C55.8 387.758 55.4121 388.139 55.4121 388.139C55.4121 388.139 56.1285 388.952 56.5094 389.721C56.7684 390.291 56.4528 390.861 56.1952 391.326C56.102 391.495 56.0164 391.649 55.9684 391.785C55.8843 392.023 56.359 392.239 56.9406 392.503C57.6094 392.807 58.4195 393.175 58.6839 393.715C59.1781 394.725 57.0633 395.194 57.0633 395.194L57.8583 400.555C57.8583 400.555 59.1651 400.441 59.9955 400.316C60.4751 400.243 60.4766 400.022 60.4788 399.675C60.4804 399.421 60.4825 399.1 60.6723 398.722C61.1218 397.827 62.4137 398.041 62.4137 398.041C62.4137 398.041 64.2752 399.336 64.9554 399.332C65.6356 399.328 66.5534 400.509 66.5534 400.509C66.5534 400.509 68.8472 400.176 69.5423 399.845C70.2312 399.486 71.0133 397.309 71.0185 396.807C71.0237 396.306 71.1153 395.137 72.0677 394.896C73.0264 394.683 72.1125 396.8 71.5065 397.789C70.9004 398.778 71.656 398.845 71.656 398.845L72.9427 399.561L73.986 399.329C73.986 399.329 73.4797 397.086 73.9706 396.505C74.4615 395.925 75.2619 397.897 75.2619 397.897C75.2619 397.897 75.9179 398.311 76.228 398.242C76.3443 398.216 76.4281 398.028 76.5375 397.782C76.7197 397.372 76.9729 396.803 77.566 396.561C78.515 396.173 78.8089 398.788 78.8089 398.788L79.5961 398.996C79.5961 398.996 79.2452 396.129 79.7615 395.661C80.2713 395.165 80.6032 397.948 80.632 398.207C80.6709 398.38 80.8444 398.288 81.3523 398.02C81.5867 397.896 81.8923 397.735 82.2887 397.544C83.5444 396.941 82.5781 399.483 82.5781 399.483C82.5781 399.483 83.6698 398.416 84.5272 399.197C85.1123 399.731 85.9051 399.779 86.8668 399.837C87.3144 399.865 87.7985 399.894 88.3153 399.976C89.9427 400.233 91.3133 402.108 91.3133 402.108C91.3133 402.108 90.4611 400.825 89.2165 399.246C88.4542 398.291 89.0535 397.949 89.8857 397.474C90.4052 397.177 91.0155 396.829 91.442 396.248C92.1424 395.316 91.8641 394.648 91.4452 393.642C91.1967 393.045 90.8988 392.33 90.7264 391.37C90.3852 389.471 90.574 388.782 90.7675 388.075C90.8367 387.823 90.9064 387.568 90.9527 387.256C91.1289 386.068 92.231 383.997 95.129 383.324C95.7771 381.472 97.6841 382.049 98.2008 383.29C98.4566 383.903 98.3827 384.085 98.3142 384.254C98.2444 384.426 98.1802 384.584 98.4775 385.172C99.0661 386.337 101.688 387.198 102.886 387.256C103.597 387.312 103.806 387.64 104.117 388.128C104.32 388.446 104.566 388.833 105.025 389.255C105.83 389.997 106.084 389.753 106.622 389.235C106.859 389.008 107.151 388.727 107.568 388.455C108.936 387.562 107.651 387.376 106.692 387.589C105.733 387.802 105.087 387.562 104.607 387.139C104.126 386.716 103.933 385.993 103.944 384.989C103.951 384.286 104.535 384.076 105.389 383.77C105.754 383.639 106.168 383.49 106.608 383.278C107.196 382.994 107.8 382.891 108.421 382.784C109.35 382.625 110.315 382.46 111.309 381.674C111.88 381.217 112.087 380.982 112.2 380.854C112.253 380.794 112.285 380.758 112.324 380.733C112.383 380.697 112.459 380.687 112.65 380.663C112.828 380.641 113.107 380.606 113.567 380.525C114.668 380.314 115.022 380.11 115.379 379.904C115.657 379.744 115.937 379.582 116.574 379.415C117.559 379.157 118.744 379.787 119.417 380.144C119.737 380.314 119.94 380.422 119.951 380.344C119.96 380.285 119.98 380.193 120.006 380.078C120.085 379.718 120.216 379.127 120.198 378.551C120.192 378.266 120.018 377.999 119.835 377.718C119.549 377.28 119.241 376.806 119.513 376.171C119.78 375.482 120.279 375.606 121.103 375.811C121.552 375.922 122.097 376.058 122.754 376.099C123.745 376.176 123.943 375.873 124.198 375.482C124.425 375.136 124.697 374.72 125.606 374.435C126.62 374.117 127.501 374.975 128.269 375.724C128.969 376.405 129.576 376.996 130.105 376.528C131.216 375.545 133.513 375.359 133.513 375.359C133.513 375.359 134.077 373.525 133.794 373.323C133.512 373.121 133.271 373.233 132.241 374.051C131.183 374.875 131.804 372.116 132.953 371.036C134.129 369.95 136.079 371.902 136.079 371.902C136.079 371.902 137.698 371.072 137.483 370.118L137.465 370.037L137.453 369.986C137.258 369.141 137.203 368.9 138.727 368.281C140.299 367.637 140.324 366.041 140.324 366.041C140.324 366.041 139.327 366.086 138.009 365.495C137.177 365.122 137.607 365.106 138.457 365.076L138.458 365.076C138.789 365.064 139.185 365.05 139.594 365.012ZM207.517 363.388L207.67 363.461L207.654 363.523C209.109 364.2 208.517 365.508 208.517 365.508C208.517 365.508 210.101 367.156 209.69 368.218C209.301 369.246 207.578 370.393 206.876 370.166C206.852 370.158 206.829 370.151 206.808 370.145L206.765 370.132L206.712 370.116L206.677 370.106L206.643 370.097C206.628 370.092 206.616 370.088 206.606 370.085C206.6 370.083 206.596 370.082 206.592 370.08C206.578 370.075 206.571 370.07 206.57 370.065C206.57 370.056 206.593 370.045 206.636 370.026C206.785 369.96 207.174 369.787 207.629 369.176C208.441 368.054 207.562 367.308 207.562 367.308C207.562 367.308 205.743 368.683 205.179 368.543C204.615 368.404 203.982 367.956 203.982 367.956C203.982 367.956 205.019 366.785 204.094 366.49C203.164 366.167 201.735 367.043 201.735 367.043L202.661 369.573L201.619 370.069C201.619 370.069 199.786 369.682 199.694 370.584C199.654 370.977 199.237 371.231 198.794 371.5C198.218 371.85 197.601 372.225 197.717 372.964C195.797 372.714 193.662 374.129 194.885 374.829C196.113 375.556 196.247 376.408 196.247 376.408L196.045 377.218C196.045 377.218 194.229 377.033 193.573 376.355C192.917 375.677 190.878 376.865 192.236 377.77C193.593 378.674 194.29 379.666 194.451 379.983C194.611 380.301 194.043 382.368 194.043 382.368C194.043 382.368 193.259 380.601 192.384 381.178C191.502 381.726 192.673 383.113 192.673 383.113C192.673 383.113 192.315 384.281 191.18 384.886C190.044 385.491 190.287 389.319 190.287 389.319L188.539 390.354L190.397 392.295L188.879 392.514L189.555 394.07C189.555 394.07 188.399 395.238 188.079 396.045C187.896 396.504 187.362 396.593 186.869 396.676C186.495 396.738 186.145 396.797 185.989 397.009C185.627 397.501 186.237 398.63 186.237 398.63L186.961 399.087C186.961 399.087 184.073 400.052 183.736 400.656C183.399 401.26 182.879 399.346 182.879 399.346C182.273 399.185 181.462 399.21 180.666 399.234C179.64 399.266 178.64 399.297 178.14 398.928C177.849 398.712 177.562 398.448 177.291 398.198C176.735 397.686 176.242 397.231 175.895 397.367C175.379 397.57 173.681 395.947 173.432 394.973C173.154 394.005 173.159 393.24 173.159 393.24C173.159 393.24 175.101 393.72 174.588 392.363C174.075 391.007 171.102 390.549 171.102 390.549L168.201 391.193C168.201 391.193 167.804 388.517 166.621 388.779C165.438 389.042 164.144 390.123 164.144 390.123C164.144 390.123 165.186 388.186 165.055 387.215C164.897 386.251 165.443 385.394 165.443 385.394C165.443 385.394 166.515 384.245 165.721 383.48C164.927 382.715 164.661 381.538 164.661 381.538C164.661 381.538 166.772 381.452 165.776 380.056C164.781 378.659 163.173 376.781 163.173 376.781L163.358 374.975C163.358 374.975 164.442 374.146 165.578 373.541C166.216 373.201 166.431 372.89 166.69 372.514C166.892 372.221 167.12 371.89 167.596 371.475C168.684 370.528 168.323 368.932 168.323 368.932C168.323 368.932 170.367 366.978 171.14 365.424C171.913 363.87 170.854 361.929 170.854 361.929C170.854 361.929 168.613 361.044 167.302 361.129C165.962 361.221 164.237 363.016 164.237 363.016L163.06 364.747L160.088 365.731L160.377 367.667L157.216 372.662L157.619 375.367L159.523 376.856L158.686 377.865C158.686 377.865 157.374 377.951 157.303 378.29C157.231 378.629 156.663 379.255 156.369 379.527C156.075 379.798 154.511 380.468 154.511 380.468L153.717 381.145L153.314 378.44L151.704 376.68L152.684 374.992C152.684 374.992 154.498 374.383 154.365 373.531C154.225 372.65 157.496 367.747 157.909 367.479C158.316 367.183 159.46 365.047 157.891 365.042C156.782 365.059 155.989 364.56 155.502 364.254C155.303 364.129 155.156 364.036 155.059 364.024C154.962 364.011 154.864 363.924 154.723 363.8C154.376 363.492 153.775 362.959 152.323 362.779C150.284 362.525 147.316 362.743 146.816 363.148C146.316 363.553 145.025 363.075 145.025 363.075L142.802 364.628C142.802 364.628 142.217 364.787 141.049 364.987L140.676 364.776C140.548 364.531 140.264 363.94 139.938 363.26C139.598 362.552 139.212 361.747 138.909 361.139C138.226 359.82 138.118 359.079 137.918 357.536C137.803 356.767 138.235 356.318 138.931 355.605L138.932 355.605C139.269 355.265 139.606 354.925 139.89 354.48C140.546 353.452 140.501 351.551 140.43 350.713C141.128 350.529 142.145 350.186 142.322 349.529C142.344 349.463 142.371 349.377 142.402 349.276L142.403 349.274L142.404 349.271L142.404 349.27C142.449 349.127 142.503 348.954 142.565 348.769C142.882 347.816 143.345 346.331 143.422 345.491C143.513 344.323 142.7 343.21 140.636 341.668C140.639 339.844 139.048 338.432 138.437 337.951C139.888 337.305 141.957 335.463 141.957 335.463C141.957 335.463 146.058 335.023 147.816 334.427C148.933 334.048 149.578 334.806 150.089 335.405C150.383 335.75 150.632 336.042 150.901 336.036C151.637 336.02 152.477 334.892 152.477 334.892C152.477 334.892 152.955 333.08 153.596 332.909C153.66 332.892 153.723 332.876 153.787 332.861C153.826 332.852 153.864 332.844 153.903 332.835C153.947 332.825 153.991 332.816 154.035 332.806C154.527 332.7 154.989 332.601 155.251 332.247C155.585 331.761 158.596 329.505 158.596 329.505C158.596 329.505 161.248 331.033 161.243 331.534C161.209 332.042 159.904 332.155 159.904 332.155C159.904 332.155 158.472 331.444 158.951 333.043C159.424 334.615 159.131 335.415 159.131 335.415C159.131 335.415 157.122 337.126 157.38 337.745C157.638 338.364 158.118 338.787 158.118 338.787L159.875 335.956L160.793 336.487C160.793 336.487 159.642 337.154 160.504 337.434C161.116 337.65 161.367 337.377 161.551 337.177C161.628 337.093 161.693 337.023 161.768 337.006C162.021 336.95 162.224 337.846 162.224 337.846C162.224 337.846 161.914 339.62 162.556 339.449C162.797 339.384 162.749 339.113 162.689 338.777C162.59 338.221 162.46 337.488 163.563 337.225C165.331 336.803 163.413 336.17 163.413 336.17L162.91 334.988C162.91 334.988 163.579 335.986 164.247 335.015L165.3 335.751C165.408 336.227 165.815 337.637 166.413 339.239C167.191 341.243 169.757 342.261 171.733 342.499C173.29 342.712 175.309 342.352 175.914 341.365C176.317 340.658 179.716 335.933 180.1 335.406C180.188 335.269 180.826 334.951 181.251 334.739C182.158 334.303 182.712 334.003 182.924 333.633C183.217 333.097 184.016 331.655 184.016 331.655C184.081 331.552 184.091 331.462 184.065 331.35C183.882 330.538 183.827 329.638 183.908 329.473C183.973 329.37 184.415 329.361 184.806 329.391L186.785 330.952C186.893 331.428 187.202 332.536 187.829 332.955C188.064 333.08 188.315 333.142 188.568 333.085C188.991 332.992 189.348 333.001 189.592 333.035L190.075 336.221L189.715 336.595C189.544 336.751 189.516 337.022 189.673 337.193L189.877 337.442C189.918 337.491 190.049 337.55 190.049 337.55L191.131 338.016C191.31 338.418 191.446 338.887 191.421 339.04C190.914 339.417 190.372 340.42 190.269 340.619C190.188 340.784 190.238 341.008 190.389 341.151C190.592 341.334 190.806 341.523 191.011 341.704C191.441 342.084 191.828 342.427 191.986 342.591L192.214 344.128C192.237 344.359 192.422 344.523 192.654 344.501L196.417 344.401C196.417 344.401 197.472 344.226 198.236 344.468C198.424 344.514 199.577 344.905 200.56 346.246C200.213 346.411 199.903 346.48 199.903 346.48C199.903 346.48 200.244 349.434 199.765 350.716C199.61 351.131 199.233 351.763 198.811 352.471L198.811 352.471L198.811 352.471L198.811 352.471L198.811 352.472C197.925 353.956 196.842 355.773 197.191 356.611C197.4 357.112 197.251 357.701 197.11 358.262C196.903 359.088 196.71 359.851 197.7 360.175C198.877 360.541 199.322 360.251 199.675 360.021C199.819 359.927 199.947 359.844 200.104 359.817C200.285 359.787 200.312 359.88 200.358 360.041C200.45 360.361 200.619 360.95 202.23 361.375C204.592 361.985 206.131 362.723 207.516 363.387L207.517 363.387L207.517 363.388ZM258.615 334.681C257.938 334.567 257.778 332.808 257.778 332.808C257.778 332.808 258.547 332.02 259.069 331.845C259.592 331.67 260.338 330.652 260.338 330.652L259.165 329.648L258.723 329.657C256.344 329.862 255.231 329.256 255.018 327.656C254.878 326.776 255.488 326.199 255.903 325.813C255.943 325.766 255.999 325.716 256.055 325.666C256.129 325.599 256.203 325.532 256.241 325.473C256.241 325.473 256.178 325.458 256.172 325.43C255.839 325.268 255.307 325.004 254.719 324.105C253.831 322.761 255.333 321.634 256.443 320.802L256.481 320.773C256.571 320.705 256.659 320.638 256.744 320.574C257.019 320.366 257.262 320.183 257.41 320.037C257.863 319.555 257.683 318.889 257.409 318.067C257.386 317.965 257.357 317.873 257.329 317.784L257.329 317.784L257.329 317.783C257.303 317.701 257.278 317.622 257.26 317.541C257.14 317.009 255.325 315.912 253.579 314.859C251.615 313.662 248.479 312.155 247.737 311.799L247.735 311.798C247.636 311.75 247.58 311.724 247.576 311.721C247.513 311.705 247.347 311.625 244.443 309.24C244.339 309.175 244.279 309.041 244.282 308.923L244.232 307.258L240.361 304.264L240.239 304.115L239.843 303.409C239.783 303.275 239.773 303.1 239.861 302.963C240.182 302.422 240.675 301.459 240.655 301.111C240.648 300.818 240.137 300.52 239.937 300.417C239.736 300.315 239.629 300.103 239.698 299.882C239.708 299.855 239.724 299.812 239.743 299.756C239.865 299.411 240.153 298.593 240.487 298.266C240.524 298.169 240.466 297.653 240.309 297.217C239.919 296.539 239.125 295.509 238.495 295.473C237.81 295.448 236.984 295.985 236.6 296.246C236.542 296.281 236.492 296.312 236.448 296.34C236.313 296.424 236.23 296.476 236.124 296.499C235.611 296.584 235.064 295.734 235.004 295.601C234.803 295.234 234.922 294.972 235.015 294.863C235.062 294.676 234.995 293.985 234.537 293.528C233.881 292.85 233.972 291.683 234.037 291.051C234.04 290.933 234.049 290.842 234.064 290.78C233.966 290.214 234.95 289.201 235.604 288.821L235.688 288.802L235.65 288.634C235.639 288.584 235.624 288.528 235.608 288.467C235.542 288.222 235.452 287.884 235.463 287.411C235.519 285.957 237.558 284.769 238.945 284.491C239.965 284.294 241.145 284.149 241.552 284.118C241.646 284.009 241.762 283.865 241.771 283.775C241.775 283.738 241.776 283.691 241.778 283.636L241.78 283.578L241.782 283.55C241.784 283.492 241.788 283.427 241.795 283.358C241.8 282.857 241.833 282.085 242.067 281.415C242.314 280.777 242.831 280.63 243.262 280.508L243.336 280.487C243.646 280.418 243.927 280.355 244.171 280.125C244.393 279.928 244.355 279.76 244.188 279.15C244.174 279.106 244.16 279.061 244.146 279.014L244.145 279.012L244.145 279.01C244.036 278.659 243.913 278.263 243.906 277.772C243.887 276.247 245.301 275.433 246.603 275.173C247.307 275.017 247.796 273.644 247.926 273.174C247.957 273.049 248.023 272.946 248.129 272.893C248.236 272.84 248.355 272.843 248.474 272.846C248.53 272.834 249.78 273.262 250.499 274.22C250.669 274.447 250.935 274.711 251.23 274.969C250.617 273.694 249.675 272.403 249.063 271.657C248.352 270.77 248.423 270.089 248.487 269.477L248.494 269.4C248.544 269.095 248.571 268.825 248.53 268.51C248.473 268.134 248.294 267.916 248.068 267.642L248.027 267.592L248.008 267.569L247.964 267.516L247.934 267.48L247.931 267.477C247.661 267.156 247.339 266.773 247.182 266.074C246.973 265.15 247.376 264.708 247.685 264.374C247.923 264.116 248.038 263.972 248.025 263.652C247.999 263.275 247.861 262.924 247.722 262.572L247.709 262.538C247.488 261.948 247.23 261.258 247.659 260.586C248.009 260.037 248.692 259.911 249.46 259.769L249.598 259.744L249.74 259.719C250.405 259.6 251.075 259.481 251.372 259.085C251.653 258.758 251.9 258.409 252.168 258.026C252.711 257.288 253.348 256.441 254.276 255.441C254.277 255.393 254.279 255.346 254.28 255.3L254.285 255.191L254.288 255.099C254.29 255.041 254.293 254.983 254.295 254.925C254.297 254.87 254.299 254.816 254.3 254.759C254.298 253.965 254.299 253.053 254.635 251.92C254.851 251.183 254.969 250.353 255.099 249.436C255.13 249.217 255.161 248.994 255.195 248.766C255.275 248.072 255.377 247.344 255.494 246.553C255.695 245.214 255.368 244.816 254.728 244.076C254.449 243.756 254.163 243.407 253.846 242.919C253.114 241.729 253.347 240.044 253.556 238.523L253.57 238.421L253.595 238.248C253.688 237.583 253.777 236.956 253.735 236.532C253.656 235.531 253.945 234.88 254.274 234.139L254.284 234.116L254.316 234.044C254.523 233.575 254.746 233.069 254.929 232.385C254.596 232.107 254.236 231.836 253.865 231.557C253.708 231.439 253.549 231.319 253.389 231.197L253.361 231.176C252.09 230.232 250.788 229.264 249.762 227.973C249.354 227.475 249.047 227.161 248.718 226.881C248.73 226.937 248.743 226.994 248.727 227.056C248.716 227.811 248.485 228.33 248.269 228.816C248.029 229.356 247.808 229.854 247.927 230.586C248.118 231.956 248.104 232.812 247.706 234.194C247.336 235.57 248.182 237.353 248.182 237.353C248.182 237.353 246.02 239.568 245.982 240.577C245.971 241.579 245.701 242.61 243.409 244.118C241.145 245.621 237.827 248.74 237.085 250.434C236.343 252.128 236.109 255.151 236.068 256.542C236.043 257.388 234.708 258.971 233.582 260.305C232.857 261.165 232.219 261.921 232.075 262.311C231.984 262.57 231.924 262.888 231.86 263.236C231.669 264.261 231.43 265.545 230.177 266.35C229.017 267.095 228.79 267.661 228.339 268.79C228.137 269.295 227.89 269.913 227.493 270.71C226.212 273.289 224.61 273.791 222.926 274.195C221.242 274.598 220.545 275.047 218.185 278.218C215.365 278.961 213.528 282.222 213.528 282.222C213.528 282.222 209.502 282.733 207.97 283.544C206.409 284.361 206.633 285.223 207.38 287.352C208.126 289.48 205.864 290.07 203.813 290.29C201.763 290.51 200.523 290.521 199.209 289.548C198.493 289.018 197.824 289.123 197.293 289.207C196.849 289.277 196.501 289.332 196.302 288.988C195.865 288.232 196.667 286.936 196.667 286.936C196.667 286.936 197.763 285.369 197.909 285.101C198.028 284.84 196.757 282.357 196.757 282.357L195.829 282.828L195.114 284.251C195.114 284.251 193.231 282.199 192.761 281.95C192.319 281.695 191.896 281.26 192.036 280.964C192.09 280.845 192.106 280.555 192.126 280.184L192.126 280.184C192.15 279.744 192.18 279.191 192.288 278.673C192.486 277.717 192.797 278.178 193.206 279.204C193.616 280.231 193.267 281.309 193.267 281.309L194.207 281.541C194.207 281.541 196.433 281.312 196.67 280.788C196.941 280.287 196.968 278.31 196.968 278.31L197.789 277.099C197.789 277.099 197.886 275.43 198.538 274.256C198.977 273.464 199.648 273.397 200.021 273.36C200.2 273.342 200.311 273.331 200.292 273.249C200.277 273.183 200.274 273.073 200.271 272.923C200.26 272.497 200.241 271.753 199.917 270.803C199.486 269.546 200.931 270.313 200.931 270.313C200.931 270.313 202.539 269.838 202.473 269.412C202.412 269.014 202.881 267.027 202.881 267.027C202.881 267.027 201.26 266.27 200.822 266.161C200.383 266.053 200.18 266.333 200.18 266.333C200.18 266.333 198.431 266.839 197.236 267.31C196.388 267.644 195.944 268.644 195.681 269.234C195.573 269.476 195.496 269.65 195.434 269.681C195.372 269.71 195.279 269.832 195.151 270.002C194.783 270.488 194.122 271.361 193.043 271.535C191.581 271.742 190.831 272.35 189.925 273.58C189.014 274.782 187.436 274.868 187.436 274.868C187.436 274.868 187.819 276.959 187.791 277.23C187.758 277.473 186.155 280.858 186.155 280.858L187.673 282.08L188.29 280.619C188.29 280.619 189.288 281.633 189.304 281.835C189.348 282.031 188.701 283.881 188.701 283.881L190.481 284.692C190.481 284.692 191.107 286.023 191.238 286.994C191.368 287.965 190.759 288.806 190.759 288.806C190.759 288.806 191.418 289.366 191.366 290.054C191.308 290.714 189.126 294.022 189.126 294.022C189.126 294.022 188.894 295.22 189.104 296.674C189.314 298.127 187.057 301.363 187.057 301.363C187.057 301.363 182.792 308.545 181.579 309.462C181.579 309.462 179.962 310.291 179.47 310.341C178.985 310.42 179.364 311.836 179.364 311.836L178.051 313.098L177.335 316.609L175.376 319.721C175.376 319.721 175.845 321.146 176.877 321.917C177.909 322.688 181.347 324.424 181.347 324.424L181.91 326.917C181.91 326.917 180.672 329.427 180.158 329.247C179.644 329.067 178.707 325.569 178.707 325.569L177.419 326.414C177.419 326.414 177.22 327.37 177.807 328.004C178.4 328.667 177.537 329.035 177.537 329.035C177.537 329.035 176.592 331.009 175.87 331.346C175.147 331.683 174.522 330.616 174.522 330.616L173.928 331.13C173.928 331.13 174.422 332.138 174.217 333.066C174.019 334.022 172.435 332.903 172.435 332.903L170.822 333.879C170.822 333.879 172.098 334.683 170.947 335.351C169.796 336.018 169.77 334.2 169.77 334.2C169.77 334.2 168.337 334.665 167.004 333.609C166.182 332.957 166.152 332.476 166.136 332.221C166.127 332.063 166.122 331.992 165.936 332.022C165.605 332.074 165.528 332.286 165.278 332.963C165.183 333.221 165.063 333.548 164.894 333.959L166.196 334.876C166.196 334.876 166.346 335.019 166.372 335.131C166.372 335.131 166.773 336.777 167.497 338.675C168.136 340.328 170.364 341.156 172.096 341.36C173.675 341.539 175.12 341.13 175.42 340.622C175.872 339.875 179.316 335.081 179.656 334.623C179.887 334.336 180.363 334.084 181.129 333.678C181.582 333.46 182.299 333.095 182.408 332.924C182.664 332.485 183.228 331.448 183.412 331.083C183.204 330.159 183.126 329.029 183.473 328.599C183.919 328.088 184.981 328.206 185.288 328.255C185.344 328.243 185.448 328.308 185.489 328.358L187.681 330.077C187.681 330.077 187.832 330.22 187.829 330.338C187.949 330.87 188.236 331.748 188.546 331.944C188.581 331.965 188.609 331.959 188.609 331.959C189.426 331.778 190.078 331.911 190.269 331.951C190.301 331.957 190.321 331.961 190.325 331.96C190.484 332.013 190.607 332.162 190.645 332.331L191.191 336.062C191.191 336.062 191.164 336.333 191.07 336.442L190.904 336.626L191.854 337.033C191.854 337.033 192.026 337.141 192.08 337.247C192.347 337.776 192.891 339.008 192.207 339.513C192 339.647 191.695 340.126 191.454 340.503L191.454 340.504C193.038 341.887 193.045 341.915 193.061 342.117L193.261 343.396L196.583 343.306C196.583 343.306 197.785 343.127 198.737 343.416C198.96 343.484 200.432 343.981 201.616 345.688C201.829 345.582 202.007 345.455 202.095 345.318C202.211 345.159 202.284 344.847 202.365 344.494C202.538 343.749 202.752 342.826 203.508 342.798C204.593 342.758 203.967 346.193 203.702 347.647L203.681 347.759C203.538 348.544 203.967 349.269 204.458 350.101C204.83 350.731 205.239 351.422 205.463 352.246C205.554 352.581 205.616 352.838 205.664 353.039L205.664 353.039C205.76 353.436 205.801 353.608 205.908 353.709C205.99 353.785 206.11 353.821 206.32 353.885L206.32 353.885C206.491 353.937 206.723 354.006 207.042 354.131C208.527 354.683 209.79 355.168 209.79 355.168C209.79 355.168 208.21 354.195 207.231 353.001C206.251 351.806 206.268 347.95 207.059 347.392C207.878 346.828 208.802 347.122 208.51 348.187C208.212 349.224 208.51 351.069 209.006 351.43C209.501 351.791 211.886 352.791 213.609 351.643C213.223 349.935 214.609 349.392 216.423 349.695C218.23 349.97 217.239 352.132 217.239 352.132C217.239 352.132 218.012 352.019 218.374 352.968C218.736 353.917 216.377 353.029 216.377 353.029C216.377 353.029 213.95 354.597 212.879 355.747C211.835 356.89 211.2 355.649 211.2 355.649L210.044 358.258C210.044 358.258 211.129 358.87 211.541 358.602C211.954 358.334 217.915 355.128 219.37 354.364C220.824 353.6 222.047 352.858 222.047 352.858C222.047 352.858 221.845 350.785 222.749 350.202C223.169 349.931 223.53 350.531 223.981 351.281C224.5 352.144 225.139 353.206 226.125 353.365C227.034 353.503 228.385 352.94 229.773 352.362C231.143 351.791 232.551 351.205 233.607 351.262C234.289 351.308 235.118 351.499 235.942 351.689C237.696 352.092 239.426 352.49 239.66 351.477C238.229 350.268 240.174 348.29 241.595 346.845C241.953 346.481 242.278 346.151 242.507 345.875C243.213 345.025 242.862 344.32 242.46 343.515C242.214 343.021 241.948 342.489 241.897 341.863C241.825 340.984 242.825 340.488 243.684 340.061C244.435 339.688 245.078 339.368 244.806 338.894C242.451 337.24 245.471 335.158 247.194 334.011C248.917 332.864 252.995 333.37 253.372 335.434C253.742 337.469 250.343 336.429 250.343 336.429L250.969 340.643C250.969 340.643 251.918 342.491 252.415 343.646C252.912 344.8 251.709 345.626 251.709 345.626C251.709 345.626 254.715 348.723 256.557 349.02C256.761 348.092 259.915 346.863 259.915 346.863C259.915 346.863 259.736 346.462 259.062 344.788C258.36 343.12 261.193 341.256 261.193 341.256L261.831 338.055C261.831 338.055 260.88 336.855 259.616 335.841C258.878 335.236 258.908 334.937 258.924 334.772C258.936 334.652 258.941 334.602 258.646 334.557L258.615 334.681ZM301.49 182.223C301.49 182.223 298.966 183.077 300.151 184.401L300.035 184.544C301.22 185.867 301.831 185.438 301.831 185.438L302.104 187.17C302.104 187.17 299.642 186.336 300.048 187.479C300.255 188.138 300.509 188.347 300.703 188.421C300.04 188.363 298.399 188.286 299.179 189.259C300.123 190.43 301.034 189.758 301.034 189.758L301.19 190.84C301.19 190.84 297.748 192.339 298.856 193.062C299.964 193.786 300.736 192.233 300.736 192.233L300.975 193.032C300.975 193.032 298.536 195.308 299.552 195.494C299.983 195.574 300.355 195.521 300.665 195.452C299.796 195.792 298.494 196.434 299.517 196.912C299.878 197.078 300.201 197.21 300.474 197.321C301.275 197.648 301.658 197.804 301.368 198.175C300.978 198.673 299.735 199.185 299.575 198.868C299.415 198.55 298.421 197.155 298.194 197.852C297.967 198.549 298.689 199.652 298.689 199.652C298.689 199.652 297.076 198.659 296.875 199.467C296.674 200.276 297.736 201.45 297.736 201.45L296.602 202.055C296.602 202.055 296.098 200.345 295.221 201.039C294.345 201.734 294.315 202.387 295.448 203.222C295.668 203.38 295.877 203.523 296.069 203.655C296.863 204.199 297.38 204.554 297.252 204.937C297.094 205.413 294.965 205.269 294.965 205.269C294.965 205.269 295.917 206.35 295.372 207.206C294.827 208.061 295.916 208.701 296.276 208.856C296.642 209.039 297.338 210.03 296.729 210.342C296.485 210.464 296.355 210.439 296.246 210.418C296.07 210.385 295.946 210.361 295.483 210.971C295.14 211.424 294.584 211.542 294.183 211.628C293.707 211.73 293.446 211.785 294.011 212.297C294.437 212.685 294.826 212.838 295.108 212.95C295.513 213.11 295.698 213.183 295.458 213.739C295.192 214.354 295.272 214.442 295.6 214.8C295.774 214.99 296.019 215.258 296.319 215.722C297.181 217.058 296.295 217.843 295.707 217.592C295.518 217.511 295.287 217.23 295.05 216.943C294.551 216.337 294.029 215.702 293.829 216.863C293.573 218.356 294.244 218.77 295.157 219.333L295.158 219.334L295.161 219.335C295.292 219.416 295.428 219.5 295.567 219.591C296.228 220.008 296.298 220.208 296.438 220.607C296.532 220.873 296.657 221.229 297.01 221.798C297.359 222.361 297.854 222.744 298.216 223.025C298.769 223.452 299.016 223.644 297.98 223.874C296.258 224.227 294.949 222.872 294.949 222.872C294.949 222.872 294.473 219.717 294.088 220.889C293.703 222.062 292.59 222.104 292.59 222.104C292.59 222.104 289.291 221.485 288.901 223.423C287.95 221.695 287.257 220.585 286.707 222.206C286.457 222.965 285.822 223.492 285.318 223.91C284.728 224.4 284.318 224.74 284.916 225.131C286.024 225.854 286.633 225.543 286.633 225.543C286.633 225.543 283.8 229.61 284.407 231.385C285.014 233.16 285.737 233.616 285.737 233.616C285.737 233.616 283.746 233.559 284.423 234.466C285.1 235.374 285.645 235.958 285.645 235.958C285.645 235.958 285.62 238.726 286.547 239.695C287.078 240.25 287.846 240.655 288.456 240.978C288.912 241.219 289.28 241.413 289.396 241.589C289.687 241.965 293.398 255.009 293.264 255.597C293.225 255.769 293.061 256.005 292.876 256.27C292.43 256.909 291.864 257.72 292.648 258.232C293.26 258.632 293.104 259.103 292.887 259.758C292.712 260.288 292.497 260.937 292.618 261.764C292.881 263.586 293.54 264.938 293.54 264.938L290.996 268.06C290.996 268.06 289.048 267.67 288.775 268.818C288.735 269.032 288.686 269.601 288.625 270.379C288.602 270.376 288.58 270.372 288.558 270.365C288.522 270.355 288.487 270.339 288.45 270.323L288.449 270.323C288.424 270.312 288.398 270.3 288.369 270.289C288.043 270.156 287.74 269.988 287.436 269.82L287.43 269.817C286.452 269.272 285.441 268.707 284.55 269.462C283.862 270.02 283.871 270.622 283.878 271.171L283.878 271.198C283.892 271.519 283.877 271.845 283.777 272.19C283.656 272.57 283.626 272.959 283.611 273.285C283.596 273.612 283.537 274.007 283.438 274.088C283.416 274.122 283.338 274.169 283.059 274.113C281.827 273.887 279.692 272.54 278.99 271.785C278.716 271.508 278.321 271.032 277.911 270.538C277.75 270.344 277.586 270.147 277.427 269.958C276.891 269.284 276.408 268.715 276.217 268.522C276.142 268.451 276.06 268.351 275.972 268.224L275.911 268.149C275.323 267.428 274.218 266.076 272.604 266.122C270.813 266.167 267.454 266.855 267.313 266.886L267.173 266.917C267.173 266.917 265.081 268.117 264.456 268.491C264.05 268.755 263.541 269.327 262.872 270.08L262.872 270.081L262.871 270.081L262.87 270.082L262.869 270.083L262.869 270.084L262.868 270.085L262.844 270.112C262.754 270.21 262.663 270.312 262.57 270.415C262.519 270.473 262.467 270.53 262.415 270.589L262.415 270.589C262.064 270.983 261.694 271.4 261.3 271.777C260.526 272.541 259.715 272.919 259.133 273.19C259.079 273.215 259.027 273.24 258.977 273.263C258.918 273.291 258.863 273.317 258.812 273.341C258.566 273.455 258.415 273.526 258.296 273.649C258.081 273.873 256.024 276.534 255.316 277.455C254.922 277.279 254.161 276.919 253.589 276.605C253.515 276.559 253.433 276.504 253.342 276.443L253.269 276.393L253.266 276.391L253.26 276.387L253.258 276.386C253.115 276.289 252.957 276.182 252.79 276.077C252.324 274.271 250.863 272.245 250.001 271.173C249.499 270.521 249.558 270.126 249.641 269.578C249.646 269.542 249.651 269.505 249.656 269.467C249.697 269.164 249.742 268.832 249.682 268.452C249.596 267.813 249.257 267.425 248.982 267.109L248.961 267.085L248.938 267.057L248.897 267.008C248.67 266.734 248.433 266.449 248.324 265.963C248.218 265.497 248.354 265.344 248.603 265.063L248.619 265.045C248.884 264.781 249.242 264.407 249.203 263.711C249.183 263.277 249.038 262.894 248.901 262.531C248.882 262.48 248.863 262.43 248.844 262.38C248.627 261.811 248.524 261.482 248.72 261.174C248.901 260.928 249.526 260.818 250.066 260.728C250.922 260.596 251.835 260.452 252.39 259.771L252.391 259.77C252.665 259.415 252.939 259.061 253.207 258.678C253.293 258.566 253.38 258.451 253.47 258.333L253.47 258.333L253.471 258.331C253.976 257.667 254.551 256.908 255.361 256.055C255.433 255.98 255.498 255.877 255.48 255.793C255.507 255.523 255.528 255.224 255.515 254.904L255.516 254.812C255.52 254.073 255.524 253.278 255.816 252.31C256.085 251.46 256.204 250.533 256.337 249.492L256.337 249.491C256.358 249.333 256.378 249.171 256.4 249.007C256.48 248.314 256.581 247.586 256.705 246.824C256.99 245.161 256.438 244.489 255.808 243.722L255.754 243.656L255.754 243.656L255.753 243.655C255.509 243.357 255.224 243.009 254.948 242.572C254.355 241.646 254.59 240.066 254.806 238.666C254.923 237.876 255.024 237.148 254.982 236.57C254.919 235.766 255.131 235.278 255.439 234.569L255.444 234.558C255.467 234.503 255.49 234.448 255.514 234.391L255.521 234.375C255.738 233.862 255.995 233.252 256.202 232.42C256.255 232.262 256.189 232.1 256.073 231.979C255.497 231.519 254.893 231.066 254.254 230.591C253.017 229.69 251.74 228.74 250.79 227.541C250.264 226.859 249.803 226.467 249.375 226.104L249.336 226.071L249.008 225.792C248.971 224.977 248.892 224.495 248.892 224.495C248.892 224.495 250.409 223.365 250.354 222.466C250.352 222.386 250.349 222.305 250.346 222.222C250.316 221.374 250.281 220.414 250.767 219.583C251.3 218.671 252.083 216.646 252.083 216.646C252.083 216.646 251.249 213.864 251.408 211.037C251.568 208.21 252.812 206.523 252.812 206.523C252.812 206.523 251.112 203.963 251.66 202.725C251.998 201.96 252.736 201.073 253.297 200.399C253.645 199.982 253.924 199.646 253.997 199.473C254.19 199.019 254.572 194.82 254.246 192.718C253.919 190.616 253.075 187.66 252.799 186.958C252.664 186.609 252.783 186.438 252.921 186.242C253.071 186.027 253.242 185.783 253.12 185.241C252.96 184.529 252.153 184.225 251.626 184.027C251.386 183.937 251.205 183.868 251.169 183.794C251.14 183.745 251.039 183.624 250.903 183.462L250.903 183.461L250.902 183.46C250.385 182.841 249.36 181.615 249.808 181.422C250.067 181.311 250.394 181.469 250.706 181.62C251.072 181.798 251.417 181.965 251.606 181.669C251.955 181.122 251.905 179.722 251.905 179.722C251.905 179.722 249.915 180.194 249.176 179.8C248.437 179.405 247.693 179.248 247.895 180.143C248.097 181.038 248.679 181.526 248.679 181.526L248.391 182.472C248.391 182.472 247.611 181.763 247.02 183.334C246.429 184.905 244.412 184.208 244.412 184.208C244.412 184.208 243.158 182.576 242.828 182.032C242.499 181.489 242.699 180.151 243.503 180.443C243.64 180.492 243.778 180.55 243.916 180.607C244.588 180.886 245.265 181.166 245.87 180.593C246.133 180.344 246.171 180.03 246.225 179.58C246.321 178.779 246.469 177.546 248.023 175.472C250.451 172.229 251.496 168.089 249.083 166.951C248.003 166.441 247.3 166.789 246.767 167.054C246.109 167.38 245.71 167.578 245.179 165.879C244.213 162.773 244.256 162.44 244.256 162.44L242.458 162.193C242.458 162.193 242.454 161.518 243.247 159.667C243.415 159.288 243.592 158.834 243.778 158.355L243.78 158.349L243.782 158.345L243.784 158.341L243.784 158.339C244.509 156.478 245.376 154.251 246.406 154.558C246.835 154.686 247.14 154.878 247.391 155.035C247.899 155.354 248.188 155.536 248.848 154.78C249.833 153.65 251.252 151.954 251.252 151.954L250.787 147.796L251.625 146.67C251.625 146.67 254.586 145.395 253.067 145.204C251.519 145.019 250.563 145.231 250.563 145.231L250.276 144.355L248.894 143.986C248.894 143.986 250.174 143.114 250.166 142.557C250.165 142.483 250.161 142.364 250.155 142.214C250.116 141.243 250.027 138.972 250.553 139.034C250.837 139.067 251.087 139.41 251.362 139.788C251.676 140.217 252.022 140.692 252.488 140.807C253.364 141.024 254.117 140.563 254.099 139.832C254.082 139.102 254.206 138.34 254.206 138.34C254.206 138.34 255.345 137.763 256.276 138.879C256.663 139.342 256.749 140.121 256.852 141.06C256.998 142.381 257.178 144.02 258.282 145.544C260.169 148.151 262.187 148.849 262.876 147.843C263.564 146.838 262.826 146.444 262.826 146.444L264.047 144.527C264.047 144.527 267.69 146.539 269.785 146.661C271.873 146.755 272.418 145.371 272.315 144.13C272.212 142.89 271.577 139.681 271.577 139.681C271.577 139.681 273.197 138.352 272.771 136.595C272.339 134.811 270.87 132.228 269.885 133.358C268.871 134.494 269.077 135.8 269.077 135.8C269.077 135.8 267.442 134.312 266.975 135.121C266.876 135.302 266.792 135.481 266.709 135.656C266.425 136.26 266.161 136.821 265.392 137.265C265.112 137.418 264.778 137.569 264.434 137.724C263.551 138.123 262.601 138.553 262.326 139.121C261.943 139.912 261.429 140.907 261.429 140.907L260.907 140.818L259.498 135.225L259.975 134.59C259.975 134.59 259.55 131.658 260.087 131.421C260.624 131.184 261.044 130.033 261.044 130.033C261.044 130.033 260.127 126.623 261.49 126.908C262.56 127.139 262.955 127.58 263.34 128.008C263.725 128.437 264.099 128.854 265.13 129.037C265.936 129.18 266.88 129.579 267.827 129.979C269.302 130.602 270.782 131.227 271.749 130.887C273.336 130.329 275.275 127.665 275.275 127.665L275.678 130.367C275.678 130.367 274.446 128.701 275.424 133.038C276.402 137.375 277.254 140.888 277.254 140.888C277.254 140.888 276.975 142.272 277.628 143.332C278.28 144.392 279.218 147.239 279.218 147.239C279.218 147.239 278.854 148.114 279.506 149.173C280.187 150.227 282.013 153.611 282.013 153.611C282.013 153.611 279.932 155.249 281.333 155.702C282.735 156.154 284.116 154.29 284.116 154.29L291.833 161.273C291.833 161.273 290.067 162.87 291.411 163.982C292.754 165.094 293.365 165.84 293.365 165.84C293.365 165.84 290.799 167.556 292.901 168.235C295.003 168.914 295.93 169.619 295.93 169.619C295.93 169.619 295.219 171.569 296.304 172.062C297.39 172.556 298.516 175.714 298.516 175.714C298.516 175.714 296.445 176.35 297.441 177.363C297.875 177.82 297.625 178.139 297.344 178.499C296.997 178.942 296.602 179.447 297.375 180.345C298.798 181.939 299.832 179.976 299.832 179.976L301.49 182.223ZM300.936 195.219C301.332 195.131 301.567 194.99 301.567 194.99C301.567 194.99 301.284 195.053 300.936 195.219ZM301.232 188.198C301.232 188.198 301.141 188.189 300.988 188.165C301.148 188.217 301.232 188.198 301.232 188.198ZM237.865 401.876C238.969 402.572 239.364 402.749 239.671 402.799C239.979 402.849 241.019 401.558 241.019 401.558C241.019 401.558 241.14 400.648 242.092 400.407C243.037 400.138 241.455 398.635 241.455 398.635L239.921 399.182C239.921 399.182 240.433 399.745 239.44 399.936C238.481 400.149 237.768 400.661 237.768 400.661C237.768 400.661 236.98 401.365 237.843 401.91L237.865 401.876ZM229.21 399.88C229.151 399.988 229.163 399.971 229.219 399.878L229.21 399.88ZM229.313 399.716C229.866 398.473 229.024 398.008 229.024 398.008L226.513 398.948L226.183 400.11C226.183 400.11 225.236 401.027 224.428 401.383C223.621 401.739 222.98 402.705 222.98 402.705C222.98 402.705 221.815 402.787 220.998 403.234C220.522 403.494 220.288 404.07 220.074 404.598C219.92 404.976 219.777 405.329 219.562 405.525C219.052 406.02 217.146 407.15 217.146 407.15L217.704 408.704L221.151 408.763L222.305 410.596L223.769 410.919L225.224 410.419C225.224 410.419 225.646 409.531 225.795 408.88C225.944 408.228 226.759 406.988 226.759 406.988L226.163 405.266L228.22 404.544C228.22 404.544 229.319 402.593 229.584 402.063C229.843 401.505 230.739 401.277 230.739 401.277L232.49 399.858C232.49 399.858 232.415 396.902 231.907 396.485C231.398 396.068 229.686 396.742 229.686 396.742L230.19 398.19C230.19 398.19 229.593 399.235 229.313 399.716ZM212.757 418.786C214.31 417.941 215.425 419.34 215.425 419.34C215.425 419.34 215.172 419.661 215.765 420.323C216.392 421.007 217.729 422.474 217.711 422.919C217.721 423.358 216.15 423.472 216.15 423.472L216.147 425.03L215.285 425.927L213.798 425.493C213.798 425.493 213.368 423.854 212.834 422.796C212.704 422.536 212.457 422.266 212.198 421.984C211.377 421.089 210.439 420.067 212.763 418.814L212.757 418.786ZM205.545 438.316L203.916 437.265L203.945 437.258L203.557 436.196L204.445 435.145C204.445 435.145 206.177 434.819 206.756 434.632C207.336 434.444 207.353 433.469 207.353 433.469L209.084 432.878L210.435 434.404L209.954 435.158C209.954 435.158 208.182 435.699 207.92 436.376C207.658 437.052 207.268 438.081 207.268 438.081L205.545 438.316ZM202.504 445.827C203.037 445.179 203.428 444.68 203.428 444.68L204.767 445.765L205.03 447.588L204.468 448.242L202.536 447.936C202.536 447.936 201.517 446.957 202.469 445.805L202.504 445.827ZM191.217 449.224C190.684 450.333 190.148 451.45 189.137 450.996L189.109 451.002C187.356 450.185 189.703 447.605 190.569 446.853C191.442 446.13 193.257 446.698 192.197 447.639C191.815 447.978 191.516 448.6 191.217 449.224ZM158.06 476.053C158.218 475.312 158.539 474.241 159.361 473.823C160.177 473.377 161.35 474.381 161.35 474.381C161.35 474.381 162.028 475.025 161.902 475.906C161.769 476.759 161.355 477.939 161.355 477.939L160.453 477.874C160.453 477.874 160.413 476.913 159.843 476.745C159.68 476.697 159.453 476.682 159.216 476.667C158.628 476.629 157.978 476.587 158.082 476.019L158.06 476.053ZM185.565 476.45C186.031 477.994 187.354 478.347 188.642 477.767L188.664 477.733C190.513 476.881 191.651 474.452 191.651 474.452C191.651 474.452 191.205 473.786 190.641 473.647C190.371 473.58 190.125 473.71 189.893 473.833C189.64 473.967 189.404 474.092 189.17 473.944C188.659 473.605 189.767 471.91 190.528 470.745C190.805 470.321 191.037 469.967 191.127 469.774C191.214 469.59 191.308 469.439 191.391 469.305C191.634 468.913 191.786 468.669 191.39 468.187C191.187 467.939 190.941 467.788 190.737 467.662C190.407 467.458 190.186 467.322 190.432 466.958C190.599 466.697 190.809 466.84 191.069 467.017C191.391 467.235 191.789 467.505 192.277 467.137C192.754 466.759 193.133 465.988 193.503 465.236C193.814 464.602 194.119 463.981 194.471 463.62C194.929 463.171 195.113 463.111 195.404 463.016C195.605 462.951 195.858 462.869 196.288 462.629C196.88 462.299 196.922 461.82 196.961 461.387C196.991 461.051 197.018 460.742 197.298 460.551C197.573 460.364 198.037 460.27 198.54 460.168C199.21 460.033 199.949 459.883 200.399 459.481C200.902 459.031 200.813 458.365 200.741 457.822C200.7 457.515 200.665 457.247 200.745 457.08C200.812 456.937 201.013 456.754 201.252 456.537C201.724 456.108 202.341 455.547 202.353 454.9C202.369 453.926 200.605 451.876 199.772 451.855C198.946 451.862 198.844 452.855 198.817 453.391C198.79 453.926 197.902 455.623 197.276 455.998C197.079 456.119 196.923 456.167 196.787 456.209C196.51 456.295 196.314 456.356 196.013 456.954C195.853 457.272 195.762 457.642 195.675 457.992C195.517 458.625 195.376 459.192 194.878 459.265C194.498 459.321 194.125 459.09 193.684 458.818C193.227 458.536 192.698 458.209 192.014 458.107C190.667 457.906 189.19 458.175 189.24 459.576C189.289 460.976 189.727 461.997 191.13 462.185C192.533 462.374 193.007 463.033 192.639 463.498C192.387 463.815 191.542 464.016 190.886 464.173C190.582 464.245 190.319 464.308 190.173 464.368C189.742 464.553 188.864 465.512 188.536 466.026C188.393 466.268 187.992 466.409 187.563 466.56C187.028 466.747 186.45 466.951 186.269 467.382C185.942 468.161 186.377 469.564 187.024 470.597C187.671 471.63 186.434 472.963 186.434 472.963C186.434 472.963 185.098 474.907 185.565 476.45Z" fill="#D60000" style="mix-blend-mode:multiply"/>
</svg>
