<svg width="82" height="75" viewBox="0 0 82 75" fill="none" xmlns="http://www.w3.org/2000/svg">
<path fill-rule="evenodd" clip-rule="evenodd" d="M70.3792 10.9523C70.2051 10.7933 70.0167 10.6597 69.8141 10.5078C69.6507 10.3844 69.6398 10.48 69.5367 10.4564C69.3908 10.4215 68.8081 9.88848 69.4189 10.6769C69.4899 10.7685 69.7102 10.9652 69.7777 11.0305C69.8985 11.1426 69.952 11.102 70.0763 11.2406C70.7867 12.0261 71.1636 12.1621 71.8598 12.973C72.3427 13.5964 72.6167 13.6213 73.0289 13.9781C73.0502 14.0056 73.0786 14.0422 73.1106 14.0616C73.2312 14.2612 73.3555 14.4435 73.469 14.6339C73.8026 15.196 74.1077 15.7651 74.4306 16.3353C73.8587 15.7066 73.326 15.0628 72.5729 14.266C72.509 14.1835 72.5159 14.2802 72.4768 14.2953C72.5832 14.4766 72.7039 14.6762 72.8068 14.831C75.0502 18.2089 76.4602 22.0449 77.5044 25.4306C77.6424 25.9374 77.7839 26.4706 77.9182 27.0384C77.9853 27.3223 78.0631 27.5981 78.1125 27.8809L78.257 28.7467C78.2746 28.8789 78.3028 29.0031 78.3204 29.1353C78.4552 29.397 78.6044 29.5458 78.7396 29.5887C79.1628 29.7187 79.1557 29.7095 79.4424 30.6712C79.5769 31.1078 79.779 31.5221 79.893 31.4501C80.1281 31.3153 80.3303 31.6859 80.543 32.1796C80.6494 32.4046 80.8056 32.65 80.8702 32.2952C80.8809 32.2433 80.9449 32.2821 80.9841 32.2669C80.9482 32.4835 80.9832 32.8354 80.8586 32.8718C80.8301 32.8789 80.7906 33.069 80.8084 33.1138C81.0419 33.8974 80.8952 34.3873 80.8268 34.8906C80.7764 35.2638 80.8402 35.4337 80.9715 35.6252C81.2129 35.9806 81.3474 36.4172 81.2147 37.0567C81.1932 37.1604 81.2426 37.3995 81.2352 37.5652C81.238 38.0728 81.2266 38.5182 81.4394 38.9244C81.56 39.1677 81.5592 39.6488 81.459 40.0015C81.2728 40.6816 81.2727 40.7691 81.4208 41.5738C81.442 41.6888 81.488 41.8577 81.4665 41.9177C81.3984 42.2461 81.4013 42.6661 81.3686 43.0403C81.3253 43.4227 81.2465 43.7592 81.0719 43.9063C80.9115 44.028 80.8461 44.8639 80.9379 45.333C80.959 45.448 81.0873 45.3506 80.9658 45.6758C80.8371 46.0356 80.7014 46.3425 80.5692 46.6758C80.537 46.7439 80.297 47.7269 80.3041 47.7798C80.3741 48.44 80.1784 48.4722 80.0536 48.6398C79.7148 49.0571 79.6399 49.2014 79.3933 49.8254C79.3576 49.9108 79.265 49.9665 79.2438 49.8953C79.1695 49.6022 79.049 49.3152 78.9169 49.5611C78.5315 50.2469 78.2396 50.3083 78.0163 49.779C77.8238 50.0126 77.7324 49.2811 77.4608 50.0261C77.3679 50.2568 76.8555 50.2528 76.7809 50.1347C76.5857 49.817 76.3657 49.489 76.0846 49.4549C76.0668 49.4539 76.0419 49.4437 76.017 49.4334C75.9776 49.5798 75.949 49.7181 75.9309 49.8482C75.8878 50.0994 75.7018 50.692 75.5231 51.1625C75.4159 51.4623 75.1088 52.1178 75.0768 52.0984C74.9346 52.0462 74.5852 52.428 74.3823 52.4947C74.1998 53.1137 74.0682 53.0535 73.9116 53.0705C73.8298 53.0744 73.7228 53.1993 73.6124 53.254C73.5198 53.3097 73.3879 53.4681 73.2701 53.6886C73.1452 53.8999 73.0274 54.1641 72.9487 54.4132C72.827 54.8259 72.9015 54.944 73.0296 54.9778C73.0901 54.9901 73.0505 55.2677 73.0609 55.4345C73.0288 55.4589 72.9682 55.534 72.954 55.5157C72.8119 55.3761 72.8226 55.3679 72.683 55.8671C72.5113 56.3905 72.3361 56.9312 72.0189 57.2449C71.9547 57.2936 71.8622 57.3056 71.8765 57.2365C71.9524 56.5674 71.6389 56.7326 71.4075 56.8064C71.2722 56.8509 71.1761 56.8802 71.0945 56.7529C70.9951 56.6246 70.8243 56.6232 70.5283 57.0081C70.2822 57.326 70.0187 57.4241 69.7658 57.6016C69.2592 58.394 68.6922 59.174 68.1038 59.9265C68.1073 59.9529 68.1037 59.9702 68.1072 59.9967C68.1387 60.3222 68.0775 60.7472 68.3017 60.7954C68.3372 60.7975 68.3441 60.9379 68.3192 60.9714C67.9946 61.4508 68.0618 61.6473 67.9474 61.9817C67.9188 62.0762 67.8296 62.2459 67.7725 62.3037C67.2913 62.8439 67.0627 63.3377 66.7452 63.8701C66.6096 64.0895 66.4883 64.2835 66.3883 64.505C66.1812 64.9389 65.8462 65.2515 65.5971 65.2805C65.4013 65.3127 65.2837 65.402 65.0519 65.6944C64.92 65.8529 64.7383 65.9908 64.5922 66.1309C63.7299 66.8147 63.7477 66.8158 63.1594 67.5683C62.9775 67.7937 62.7922 67.9927 62.5215 68.1254C62.2509 68.2581 62.2118 68.1859 62.2227 68.0465C62.2194 67.9326 61.9884 67.7003 61.9031 67.6778C61.7146 67.6316 61.5367 67.5774 61.3625 67.5058C61.1669 67.4505 60.9748 67.378 60.7935 67.2973C60.7437 67.2768 60.7616 67.1904 60.7582 67.1202C60.7547 67.0501 60.7513 66.9799 60.7372 66.9178C60.7372 66.9178 60.7158 66.934 60.7051 66.9421C60.192 67.3317 59.6827 67.6165 59.1734 67.9013C58.6819 68.1872 58.1832 68.4639 57.6632 68.7568C57.5777 68.8218 57.4993 68.8959 57.4316 68.9618C56.9897 69.3993 56.8049 69.2484 56.4915 69.4136C56.4594 69.438 56.4273 69.4623 56.3953 69.4867C55.6651 69.9246 55.4769 69.6598 55.0035 69.7718C54.918 69.793 54.8754 69.738 54.8185 69.7084C54.6654 69.7956 54.5051 69.8736 54.2915 69.9484C54.0387 70.0385 54.0745 69.9094 54.0034 69.8614C53.9643 69.8329 53.9644 69.7891 54.1425 69.6685C54.3563 69.5061 54.3706 69.437 54.3529 69.3922C54.3529 69.3922 54.303 69.4155 54.2247 69.4459C54.1464 69.4762 54.0751 69.5158 54.0075 69.538C53.9789 69.5888 53.929 69.6558 53.9289 69.6996C53.936 69.7087 54.0713 69.6642 54.1247 69.6674C53.7721 69.8478 53.448 70.0211 53.4515 70.0475C53.4763 70.1452 53.1165 70.3601 52.6608 70.5169C52.4472 70.5917 52.3584 70.499 52.2195 70.5608C51.8741 70.7066 51.5464 70.8971 51.1903 71.0511C51.0799 71.1058 50.7987 71.1591 50.7667 71.1397C50.6849 71.0999 50.742 70.9983 50.6603 70.9585C50.6532 70.9493 50.6176 70.9472 50.5891 70.9543C50.557 70.9786 50.5392 71.0213 50.5178 71.0376C50.2148 71.3696 49.7695 71.6931 49.2032 71.9483C48.6869 72.1803 48.1599 72.4203 47.6223 72.581C47.0918 72.7508 46.5792 72.878 46.0881 72.9014C46.0062 72.9053 45.903 72.9255 45.8069 72.9548C45.3085 73.1003 44.8172 73.255 44.3116 73.3913C44.1977 73.4195 44.0802 73.4651 43.9698 73.5198C43.6208 73.6829 43.2754 73.8287 42.9193 73.9826C42.5739 74.1284 42.2109 74.1419 41.8584 74.3223C41.5058 74.5026 41.1286 74.4978 40.7514 74.5368C40.5414 74.5506 40.2956 74.6935 40.0395 74.6696C39.8722 74.651 39.6053 74.679 39.374 74.709C39.1177 74.7289 38.8366 74.7385 38.5803 74.8021C38.1923 74.8929 38.3777 74.6502 38.1392 74.7148C37.7512 74.8056 37.7728 74.6144 37.6981 74.6275C37.0858 74.7575 36.9226 74.4592 36.3033 74.5801C36.3534 74.3818 35.6274 74.4527 35.706 74.2474C35.7453 74.1447 35.5425 74.124 35.4181 74.0729C35.1762 73.9799 35.0805 73.7905 34.7852 73.7381C34.8029 73.7829 34.8135 73.8185 34.7957 73.8612C34.7635 73.9292 34.6211 74.0083 34.4252 74.0842C34.3184 74.1216 33.941 74.248 33.7988 74.1521C33.6709 74.0746 33.5357 74.0316 33.0445 74.0988C32.8595 74.1229 32.806 74.2072 32.7311 74.264C32.6884 74.2965 32.7738 74.319 32.7132 74.3504C32.585 74.4041 32.3964 74.4454 32.2326 74.497C32.0476 74.4773 31.7451 74.4594 31.6989 74.4217C31.5604 74.2648 31.9522 74.0693 31.1837 73.9539C30.7284 73.892 30.1058 73.7677 30.2768 73.6816C30.5688 73.5326 30.9996 73.4094 30.1635 73.3162C31.3702 73.0989 30.4132 72.9374 30.1573 72.7823C29.8338 72.562 29.4815 72.5674 28.1469 72.7072C28.147 72.6635 28.0546 72.588 28.172 72.5862C28.8304 72.4939 28.5743 72.4263 28.094 72.3979C27.5781 72.3674 26.9803 72.3846 26.4181 72.3601C26.4749 72.4335 26.5602 72.4997 26.6277 72.5649C26.6419 72.5833 26.6561 72.6016 26.6276 72.6087C26.4496 72.6419 26.2539 72.6741 26.0581 72.7062C25.9123 72.6714 25.7166 72.6598 25.6277 72.6108C25.4783 72.5495 25.4001 72.4924 25.3042 72.4343C25.0764 72.447 24.8307 72.5462 24.628 72.438C24.2583 72.2237 23.9953 72.0158 23.7786 71.8018C23.7502 71.7651 24.1168 71.7343 24.3019 71.7102C24.4228 71.7349 24.5438 71.7595 24.6825 71.7852C25.0738 71.852 25.4793 71.981 25.8564 71.9858C26.5396 71.9912 26.1271 71.8531 26.1877 71.7779C26.2947 71.653 26.0778 71.5265 26.6829 71.431C26.0391 71.2793 26.235 71.1596 26.6622 71.0099C27.0218 70.8825 26.5987 70.665 27.0081 70.558C27.4674 70.4277 26.8483 70.3736 26.6526 70.362C26.2505 70.347 25.7452 70.3522 25.3289 70.3625C24.0229 70.4078 23.6457 70.403 22.7885 70.1949C22.4114 70.1027 22.0379 70.0369 21.6501 69.9964C21.2623 69.956 20.8638 69.9237 20.4083 69.9056C20.2731 69.9063 20.0028 69.8641 19.9352 69.8426C19.8107 69.7915 19.793 69.7467 19.7397 69.6998C19.6365 69.72 19.5084 69.7299 19.43 69.7603C19.2271 69.827 19.0704 69.8877 18.8675 69.9545C18.8105 69.9686 18.6931 69.9704 18.5934 69.9733C18.5188 69.9426 18.3943 69.8915 18.3908 69.8651C18.3945 69.7603 18.4409 69.6668 18.4376 69.5529C18.4305 69.5437 18.2704 69.4906 18.1602 69.4578C18.1602 69.4578 18.0071 69.4575 17.9894 69.4565C17.9573 69.4808 17.9679 69.5164 17.9287 69.5316C17.7685 69.6096 18.2343 69.8383 17.512 69.7607C17.2239 69.7174 17.7579 69.574 16.9576 69.3517C16.8651 69.32 16.9933 69.2664 16.9756 69.2216C16.9508 69.1239 16.8976 69.0333 16.8551 68.9345C16.7447 68.9893 16.6343 69.044 16.4883 69.0966C16.4206 69.1188 16.328 69.1746 16.2249 69.151C15.6131 69.0186 15.1933 68.9151 15.8725 69.2001C16.7722 69.5507 16.3487 69.5957 15.8042 69.616C14.3636 69.2684 14.321 69.2134 13.9933 69.404C13.9044 69.3987 13.8154 69.3935 13.972 69.4202C13.787 69.4006 13.8581 69.4485 13.8758 69.4495C13.9968 69.4742 14.0928 69.4886 14.1889 69.503C14.1498 69.4745 14.1071 69.4632 14.0573 69.4428C14.4913 69.5209 14.751 69.5712 14.9965 69.6032C15.0533 69.6766 15.288 69.8042 15.1705 69.806C14.5015 69.8189 14.5901 70.0429 14.4973 70.2298C14.4119 70.2073 14.2661 70.1724 14.2519 70.1541C14.0777 70.0388 13.9284 69.9338 13.7614 69.8277C13.6652 69.857 13.6118 69.8976 13.4481 69.9054C13.3129 69.9061 13.0461 69.8466 12.854 69.8178C12.7118 69.7219 12.4843 69.6035 12.4523 69.5404C12.4098 69.4416 12.5166 69.4042 12.5061 69.3249C12.4954 69.2892 12.3426 69.2015 12.2573 69.1352C12.0688 69.0891 11.7558 68.9919 11.6988 69.006C11.5564 69.0413 11.2825 69.0164 11.0654 69.021C10.8519 69.0084 10.6775 69.0244 10.7307 69.1587C10.4356 69.0188 10.0907 68.8585 9.89869 68.7422C9.69963 68.6167 9.62861 68.525 9.88119 68.5662C9.95945 68.5795 10.2155 68.6909 10.2546 68.6757C10.3116 68.6616 10.2548 68.5882 10.2478 68.5353C10.0557 68.4628 9.86368 68.3902 9.66813 68.2912C9.44059 68.1727 9.11705 67.9962 8.99267 67.9013C8.86118 67.7973 8.80802 67.663 8.90759 67.7039C9.71482 68.0227 9.64044 67.8171 9.24969 67.4004C8.95493 67.0418 9.27142 67.1655 9.91152 67.422C10.1675 67.5334 10.4982 67.7191 10.7685 67.8051C10.8609 67.8368 10.8788 67.7941 10.8433 67.7483C10.822 67.7208 10.6798 67.6249 10.5838 67.5667C9.99373 67.1995 9.92622 67.1342 9.96187 67.0926C10.0118 67.0256 11.1318 67.5729 10.3641 67.0202C9.51108 66.4012 9.81976 66.953 9.07694 66.4105C9.12687 66.3435 9.30118 66.3713 9.19114 66.2073C8.94257 65.8864 10.5245 66.8547 9.65383 66.1472C9.41574 65.9494 9.24157 65.8341 9.11 65.7739C8.98203 65.6963 8.90735 65.6657 8.82909 65.6523C8.66546 65.6164 8.53734 65.6263 8.13928 65.3316C7.96159 65.1899 7.89021 65.3169 7.73369 65.2902C7.67322 65.2778 7.53814 65.1911 7.43147 65.1411C7.39603 65.0515 7.39969 64.9905 7.32874 64.8551C7.19381 64.6809 7.0768 64.4203 6.94194 64.2024C6.64394 63.6425 6.61217 63.4919 7.32601 64.3476C7.36862 64.4026 7.49308 64.4537 7.47536 64.4089C7.27005 63.7494 7.7679 63.9538 7.87507 63.6977C7.88934 63.6723 8.00304 63.7753 8.07413 63.8232C8.09888 63.9209 8.12012 63.9921 8.19465 64.1102C8.26918 64.2284 8.41481 64.3944 8.52844 64.5411C8.67772 64.6461 8.86259 64.7533 8.99773 64.7963C9.13998 64.8484 9.22184 64.8445 9.33209 64.8772C9.36043 64.9577 9.40655 65.0391 9.42779 65.1103C9.44902 65.1816 9.45605 65.2345 9.4595 65.3047C9.58396 65.3558 9.6907 65.3621 9.85426 65.4417C10.0427 65.5316 10.2134 65.5767 10.4019 65.6665C10.601 65.7483 10.8144 65.8483 11.0773 66.0563C11.4469 66.3581 12.4959 66.8137 12.0155 66.8291C11.8981 66.8309 11.8979 66.9183 11.937 66.9906C11.9654 67.0273 12.1679 67.1792 12.3351 67.2416C12.6907 67.3938 12.7512 67.4061 12.6517 67.2778C12.4458 67.012 12.4033 66.8695 12.6062 66.8465C12.7913 66.8224 13.2074 66.9432 13.9509 67.0921C14.2959 67.165 14.826 67.2138 14.9007 67.2445C15.7577 67.6276 15.8221 67.4039 16.2917 67.4842C16.5691 67.5355 16.8111 67.5411 17.0708 67.5914C17.6577 67.7136 18.1345 67.7593 18.5792 67.7855C19.0062 67.8108 19.3976 67.7902 19.814 67.7798C20.3193 67.7747 20.8994 67.7564 21.49 67.7739C21.7071 67.7692 21.8886 67.7624 22.0309 67.7708C21.7999 67.5822 21.5618 67.4282 21.3201 67.2477C21.2739 67.21 21.2277 67.1723 21.1851 67.1173C21.0678 67.0316 20.9505 66.9459 20.9933 66.8697C20.972 66.8422 20.9507 66.8147 20.9294 66.7872C20.6595 66.4389 20.8663 66.2237 20.7849 65.9214C20.6859 65.5744 20.8389 65.531 21.2268 65.5277C21.3264 65.5248 21.4225 65.5392 21.515 65.5272C21.6894 65.5113 21.846 65.4943 21.9848 65.52C22.1271 65.5284 22.2551 65.5622 22.3831 65.6398C22.529 65.6309 22.682 65.6312 22.835 65.6315C23.6321 65.6523 22.3976 65.4832 22.9243 65.4618C23.5435 65.4284 24.12 65.3837 24.6575 65.3105C25.8498 65.1623 27.5223 65.1299 28.7894 64.9249C28.7823 64.9157 28.7681 64.8974 28.761 64.8882C28.5158 64.6813 28.5518 64.4647 28.1464 64.2483C27.542 63.9502 27.3468 63.6325 27.0094 63.2626C26.8921 63.1332 26.782 63.013 26.7395 62.9143C26.3089 62.9501 25.8213 62.9562 25.4156 63.0022C25.1202 63.0373 24.6434 63.0353 24.3587 63.0623C24.3551 63.0795 24.3479 63.1141 24.355 63.1233C24.4579 63.3218 24.1516 63.4524 24.3364 63.647L24.0799 63.7981C23.8984 63.8486 23.7204 63.8381 23.5604 63.7849C23.3897 63.7398 23.2297 63.6429 23.0804 63.5378C22.9631 63.4522 22.8956 63.3869 22.8602 63.2974C22.572 63.2978 22.2873 63.281 21.9849 63.2631C21.7109 63.2382 21.4263 63.2214 21.1523 63.1964C20.8784 63.1715 20.608 63.1293 20.3447 63.0962C19.9498 63.0466 19.562 63.0062 19.1742 62.9658C18.7829 62.899 18.3987 62.8413 18.0145 62.7836C17.2531 62.6773 16.5311 62.5122 15.7698 62.3623C15.3465 62.276 14.9161 62.1369 14.5 62.016C14.2866 61.9597 14.0839 61.8952 13.8705 61.8389C13.6677 61.7744 13.465 61.7099 13.273 61.6374C12.4799 61.3806 12.0173 61.3532 10.9116 60.7805C10.716 60.6815 10.5347 60.6008 10.3533 60.5201C10.172 60.4394 9.98713 60.3323 9.79869 60.2424C9.41827 60.0362 8.98807 59.8096 8.51548 59.3968C8.41598 59.3122 7.73693 58.9396 7.32101 58.6876C6.97309 58.1947 6.44691 57.9099 5.9921 57.4982C5.68299 57.2087 5.40595 56.8949 5.11111 56.5801C4.82697 56.2571 4.53213 55.9423 4.26577 55.6204C4.03851 55.327 3.82194 55.0256 3.60537 54.7241C3.39949 54.4145 3.16154 54.1293 2.98063 53.7862C2.71448 53.3331 2.4662 52.8373 2.21434 52.3588C1.99805 51.8824 1.82086 51.4345 1.64001 51.0477C1.44847 50.669 1.33175 50.2335 1.20076 49.8233C1.06977 49.4132 0.942292 49.0295 0.818257 48.7161C0.826071 48.2879 0.727078 47.8971 0.620973 47.4972C0.532665 47.0984 0.415874 46.7066 0.34177 46.3261C0.267596 45.9893 0.250376 45.6383 0.222467 45.2955C0.201664 44.9619 0.17375 44.6191 0.174322 44.2692C0.182565 43.5787 0.165915 42.8779 0.184918 42.1355C0.185348 41.8731 0.235773 41.4999 0.328956 41.0943C0.422134 40.6886 0.533171 40.2403 0.608566 39.8337C0.673123 39.5226 0.762647 39.178 0.837964 38.815L0.949147 38.2792C0.995704 38.0983 1.03867 37.9346 1.07454 37.7618C1.13903 37.4944 1.0967 37.2645 1.1185 36.9859C1.28922 34.8615 1.81222 32.7318 1.83179 31.6395C1.82871 31.3507 2.01492 30.6269 2.36483 29.8953C3.01116 28.5164 3.37219 27.5142 4.46363 25.943C4.62769 25.7165 4.79541 25.429 4.95953 25.1587C5.11297 24.8966 5.26282 24.6518 5.33068 24.4984C5.58067 23.9445 6.02658 23.2711 6.51523 22.5652C6.56874 22.4809 6.64005 22.3976 6.70066 22.3225C6.61874 22.3701 6.5404 22.4005 6.47994 22.3881C6.0732 23.0464 6.29148 22.2983 6.26688 22.1131C6.63753 21.7589 7.02604 21.362 7.26076 21.4458C7.28565 21.456 7.31413 21.449 7.34972 21.4511C7.58507 21.1413 7.79196 20.8386 8.01304 20.5543C8.17351 20.3451 8.33398 20.1359 8.50155 19.9358C8.51224 19.9277 8.52293 19.9196 8.52652 19.9023C8.34847 19.9793 8.06691 20.2513 8.1352 19.8355C8.14237 19.8009 8.06045 19.8485 8.0248 19.8902C7.704 20.2211 7.44755 20.3722 7.20179 20.5151C6.95602 20.658 6.71026 20.801 6.41084 21.1157C6.24686 21.2984 6.12949 21.2565 5.9871 21.2918C5.97642 21.2999 5.99442 21.1698 6.02304 21.0753C6.0409 21.0326 6.11228 20.9056 6.13366 20.8894C6.28329 20.7757 6.42568 20.7404 6.60387 20.576C6.72503 20.4694 6.77869 20.2976 6.69691 20.2578C6.68981 20.2487 6.72919 20.1023 6.74712 20.0159C6.94303 19.8962 7.27466 19.4697 7.39546 19.5818C7.26354 19.7402 7.11383 19.8976 6.98543 20.0824C6.96405 20.0987 6.92826 20.2278 6.91391 20.2969C6.91032 20.3142 6.93522 20.3244 6.96018 20.2909C7.08141 20.1406 7.21692 19.9649 7.31663 19.9183C7.41634 19.8717 7.49834 19.7803 7.59102 19.6808C7.6017 19.6727 7.62322 19.569 7.64467 19.5091C7.57695 19.575 7.51283 19.6237 7.44152 19.707C7.40945 19.7313 7.38083 19.8259 7.31663 19.9183C7.37387 19.7292 7.38822 19.6601 7.40257 19.591C7.58434 19.4093 7.80199 19.0547 7.91934 19.0967C7.94423 19.1069 8.16173 18.8398 8.18677 18.7626C8.29394 18.5065 8.24774 18.4687 8.08382 18.6078C7.80592 18.8188 7.78849 18.5991 7.81754 18.2421C7.83949 17.876 8.01122 17.3088 7.66933 17.4811C7.64795 17.4973 7.68382 17.3245 7.71947 17.2829C8.11544 16.6764 7.74142 16.9168 7.87714 16.6099C7.53138 16.9743 7.69235 16.459 7.5214 16.5451C7.33267 16.6302 7.13676 16.7498 6.90871 16.9375C6.03563 17.717 5.3766 18.1591 5.66367 16.689C5.72823 16.3779 5.90327 15.9684 6.0174 15.8089C6.34909 15.3386 6.69865 14.8257 7.04097 14.3911C7.39749 13.9748 7.73967 13.6276 8.0459 13.497C8.26312 13.4048 8.58729 13.1878 9.03298 12.6456C9.25758 12.3877 9.5283 12.2112 9.71711 12.0824C10.1018 11.834 10.3654 11.6484 10.7004 11.3795C11.0282 11.1014 11.4237 10.7574 12.0509 10.2084C12.2612 10.0196 12.5533 9.7832 12.5709 9.91546C12.6415 10.2695 13.2866 9.67783 13.8743 9.31892C14.4549 8.95085 14.9718 8.36906 15.5136 7.84124C15.567 7.80066 15.5494 7.71214 15.5637 7.643C15.724 7.52127 15.8844 7.39953 16.0447 7.27779C16.262 7.09819 16.4652 6.90026 16.6754 6.71149C16.8216 6.57141 17.0888 6.32478 17.0995 6.31666C16.9182 6.23597 17.5276 5.6859 17.5243 5.52824C17.5212 5.23939 18.0953 4.51229 17.3155 4.79861C16.9345 4.94231 16.9563 4.66367 16.4079 4.96367C16.2942 4.81699 16.0131 4.82662 15.707 4.86977C15.4009 4.9129 15.0805 4.98145 14.8885 4.90887C14.7711 4.86694 14.4435 5.01379 14.1694 5.12005C13.208 5.50061 12.4925 5.65077 12.2012 5.36238C12.091 5.24216 11.9418 5.13712 12.0597 4.82918C12.2312 4.39319 12.8587 3.66923 13.5536 3.0105C14.2949 2.30201 15.1535 1.67919 15.9941 1.23025C16.6565 0.902004 17.0765 0.830598 17.297 0.89612C17.5424 0.971855 17.7628 1.0811 17.8372 1.28669C17.8797 1.42916 17.484 1.86065 18.0679 1.65023C18.4489 1.50653 18.2846 1.86422 18.5837 1.76818C19.1925 1.56797 19.4201 1.64265 19.5587 1.79955C19.6368 1.90039 19.7257 1.94938 20.2028 1.73265C20.1847 1.95026 20.9434 1.50524 21.1426 1.54325C21.324 1.58022 21.2347 1.79363 21.6797 1.68871C21.9929 1.611 22.0104 1.78698 22.1776 1.84935C22.2629 1.87188 22.3447 1.91171 22.5192 1.85204C23.0603 1.67407 23.3022 1.72336 23.4622 1.82029C23.6151 1.90805 23.9496 1.85785 24.3198 1.80974C24.6259 1.76659 24.9427 1.71534 25.206 1.70465C25.4694 1.69398 25.665 1.74927 25.7217 1.86634C25.7572 1.91218 25.8496 1.98762 26.0134 1.93607C26.8821 1.65499 26.7713 1.92837 26.796 2.11352C26.81 2.21932 27.1447 2.12538 27.2193 2.15604C27.39 2.24485 28.1519 2.00121 27.9949 2.23686C27.8487 2.4644 28.087 2.48723 28.3361 2.50196C28.9232 2.53665 28.8443 2.91688 29.7163 2.79346C29.7982 2.78955 29.7731 2.8668 29.7944 2.8943C29.8651 3.20463 29.9647 3.24551 30.573 3.35144C30.7188 3.3863 30.7365 3.47482 30.8217 3.54109C30.8217 3.54109 30.8289 3.55026 30.836 3.55943C30.868 3.53508 30.9143 3.52906 30.9641 3.50576C31.4733 3.30842 31.808 3.21448 32.0928 3.14383C32.3846 3.08235 32.6481 3.02794 33.0076 2.94421C34.371 2.6224 34.5311 2.63186 33.6015 3.16301C32.9889 3.5117 33.0351 3.54942 33.7007 3.42255C34.4055 3.2805 35.1354 3.01748 35.9828 2.7089C36.7803 2.46736 37.3286 2.29857 37.1508 2.20058C36.8842 2.05362 36.6567 1.89147 36.3722 1.74345C36.3154 1.71384 36.1161 1.71956 35.9915 1.7122C35.9167 1.76901 35.7814 1.85724 35.792 1.89285C35.8201 2.10445 35.891 2.28359 35.9298 2.48708C35.9298 2.48708 35.709 2.59649 35.5808 2.65016C35.5487 2.6745 35.3992 2.70066 35.3921 2.69149C35.3566 2.64565 35.3817 2.56841 35.3355 2.53069C35.1436 2.37064 35.2436 2.10538 34.9734 1.97569C35.2796 1.88881 35.5857 1.80193 35.8919 1.71506C36.2123 1.64651 36.5255 1.56881 36.8566 1.49215C37.4902 1.3459 38.1524 1.19257 38.8038 1.04737C38.7894 1.1165 38.7751 1.18564 38.8533 1.24274C39.0559 1.35094 39.3155 1.44501 39.5431 1.56343C39.632 1.61242 39.525 1.73731 39.8097 1.7104C40.2866 1.6686 40.9842 1.56112 41.6214 1.44131C42.4045 1.2689 43.2587 1.18817 44.2837 1.06504C44.4973 1.03393 44.7286 1.00386 44.9777 0.974845C45.2269 0.945827 45.4831 0.925983 45.7642 0.916352C46.3087 0.896044 46.8532 0.875733 47.3408 0.782084C47.4619 0.762995 48.1202 0.758157 48.1451 0.768377C48.3513 0.859294 48.586 0.943142 49.561 0.974514C49.9453 0.988476 50.326 1.01972 50.7174 1.04285L51.2937 1.08566L51.8701 1.1722C52.6456 1.29676 53.4069 1.40299 54.1505 1.46442C54.919 1.57981 55.6874 1.6952 56.3847 1.80639C56.8649 1.87851 56.9184 1.79419 56.264 1.60681C55.702 1.45113 55.3393 1.28974 54.9304 1.13436C54.7312 1.05261 54.5214 0.97898 54.2653 0.911361C54.0163 0.852908 53.7104 0.808588 53.351 0.761111C53.2443 0.754802 52.9811 0.678016 52.8993 0.638194C52.6433 0.526842 52.3516 0.45712 52.0279 0.411746C51.8607 0.393117 51.6863 0.365318 51.5084 0.354805C51.3305 0.344292 51.1419 0.341895 50.9427 0.347613C50.4374 0.352744 49.715 0.362542 49.3094 0.321077C48.4876 0.202534 47.3916 0.190251 47.1854 0.0993372C47.1356 0.0788984 47.0751 0.0665795 47.0147 0.0542569C47.488 0.0297423 47.9577 0.0225113 48.4025 0.00506099C48.8616 0.00594567 49.3063 0.0322273 49.7476 0.0320576C50.6229 0.0662907 51.4378 0.0444673 52.2205 0.13446C52.818 0.292235 53.4263 0.441897 54.0487 0.609894C54.8561 0.841303 55.7808 1.15837 56.6877 1.43066C57.0363 1.52999 57.3528 1.65366 57.648 1.74983C57.9432 1.846 58.2135 1.93195 58.4411 2.00664C58.9106 2.13061 59.2414 2.18515 59.3696 2.13149C59.48 2.07678 59.4411 1.96076 59.5159 1.90395C59.5266 1.89584 59.7649 1.9624 59.9107 1.99727C59.9285 1.99832 60.0636 2.08503 60.1027 2.11358C60.2839 2.28174 60.522 2.47951 60.6036 2.6068C60.6853 2.73409 60.8203 2.8208 61.2436 2.95078C61.4641 3.0163 61.6668 3.08076 61.9264 3.17483C62.1007 3.24636 62.2856 3.30978 62.467 3.39047C62.6376 3.47929 62.8261 3.56915 62.9967 3.65796C63.1672 3.83424 63.4017 4.0493 63.4834 4.17659C63.5615 4.27743 63.3694 4.24857 63.4368 4.35753C63.4723 4.40337 63.8349 4.65223 64.066 4.7971C64.1939 4.87464 64.4535 5.01244 64.4819 5.00538C64.5745 4.99335 64.5568 4.90483 64.6174 4.87342C64.6672 4.85012 64.7953 4.88393 64.8807 4.90647C65.0477 5.0563 65.2608 5.24385 65.3781 5.37324C65.6267 5.65036 65.7616 5.86827 66.0707 6.15771C66.7031 6.75493 67.2748 7.47102 67.8786 8.16277C68.0349 8.36445 68.2231 8.58551 68.3901 8.73534C68.5464 8.89329 68.6601 8.99623 68.7314 8.91297C69.4955 9.52671 70.0997 9.95605 70.6791 10.3314C71.1407 10.9711 71.62 11.6117 72.11 12.288C71.7653 11.9964 71.4135 11.6957 71.0617 11.395C70.884 11.2533 70.7099 11.0943 70.5322 10.9526L70.3792 10.9523ZM12.0951 68.2246C11.8817 68.1245 11.6648 68.0418 11.5119 67.9977C11.3696 67.9456 11.2807 67.9403 11.3197 68.0126C11.3516 68.0757 11.6858 68.2442 12.0413 68.4401C12.3615 68.5028 12.5856 68.551 12.8062 68.5728C12.5751 68.4717 12.3511 68.336 12.0951 68.2246ZM56.816 20.989L56.5811 20.9926C56.6023 21.0638 56.6236 21.1351 56.6377 21.1971C56.7729 21.2401 56.9435 21.3289 57.0112 21.3067C57.0396 21.2996 56.8905 21.1071 56.8231 20.9981L56.816 20.989ZM50.181 37.5146C50.181 37.5146 50.0564 37.5947 50.0171 37.6536C49.9671 37.7644 49.942 37.8854 49.9169 38.0064C49.9062 38.0145 49.9453 38.043 49.9595 38.0614C50.0805 38.086 50.2837 37.8443 50.2768 37.704C50.2663 37.6246 50.2308 37.535 50.181 37.5146ZM39.1912 55.8473C39.3835 55.7887 39.5935 55.7311 39.7894 55.6552C39.7751 55.6369 39.768 55.6277 39.7538 55.6094C39.7183 55.5636 39.5689 55.546 39.4658 55.5224C39.4231 55.5111 39.3341 55.5059 39.3056 55.5129C39.238 55.5352 39.1561 55.5828 39.156 55.6265C39.1381 55.713 39.1593 55.7842 39.209 55.8484L39.1912 55.8473ZM49.3213 56.3235C49.3961 56.2229 49.4247 56.1721 49.471 56.1224L49.1755 56.2449C49.1755 56.2449 49.2751 56.2858 49.3213 56.3235ZM56.8389 52.7264C56.8389 52.7264 56.7678 52.6784 56.7358 52.7028C56.6539 52.7504 56.5754 52.8245 56.4935 52.8722C56.3617 52.9431 56.3438 53.0295 56.3685 53.1709C56.3968 53.2513 56.297 53.3854 56.3218 53.4394C56.4069 53.6368 56.3567 53.8788 56.2958 54.1289C56.3635 54.0629 56.4241 53.9877 56.474 53.9207C56.5632 53.7948 56.6239 53.6759 56.6133 53.6403C56.6028 53.5172 56.7739 53.2999 56.9629 53.0836C56.8919 52.9919 56.8102 52.9084 56.8282 52.7345L56.8389 52.7264ZM51.6102 55.7502C51.6102 55.7502 51.7277 55.7484 51.7917 55.7434C51.888 55.6267 51.9343 55.5769 51.9736 55.518L51.646 55.6211C51.646 55.6211 51.596 55.7319 51.6138 55.7329L51.6102 55.7502ZM51.2791 55.8706C51.2043 55.9274 51.076 56.0248 51.0653 56.0766C51.0117 56.2047 50.9973 56.3176 50.9651 56.4294C50.9651 56.4294 51.0149 56.4061 51.0541 56.3909C51.154 56.2131 51.2468 56.0261 51.3397 55.8392C51.3183 55.8554 51.2827 55.8533 51.2613 55.8695L51.2791 55.8706ZM49.5205 56.3615L49.5026 56.4042C49.5026 56.4042 49.5097 56.4133 49.5168 56.4225C49.6058 56.384 49.6237 56.3414 49.6237 56.3414C49.5881 56.3392 49.5489 56.3544 49.5098 56.3696L49.5205 56.3615ZM38.2107 54.8884C38.2107 54.8884 38.3602 54.8622 38.4421 54.8146C38.5917 54.7447 38.8621 54.7432 39.0541 54.8158C39.2106 54.8862 39.4774 54.902 39.4843 55.0424C39.4843 55.0861 39.8294 55.1152 39.8579 55.1082C40.0858 54.9642 40.2423 55.0347 40.4415 55.0727C40.6229 55.1097 40.9646 55.0686 41.0357 55.1165C41.0499 55.1349 41.0748 55.1451 41.0997 55.1553C41.1388 55.1401 41.1958 55.126 41.235 55.1108C41.2563 55.0946 41.2919 55.0967 41.3311 55.0815C41.6055 54.8441 41.5699 54.842 41.2177 54.8036C41.1038 54.7882 40.9722 54.7716 40.8904 54.7318C40.7269 54.6522 40.5277 54.5704 40.7808 54.3055L40.8802 54.4338C40.955 54.377 41.0512 54.3039 41.062 54.2521C41.1156 54.1241 41.1621 53.9868 40.8666 54.0656C40.7814 53.9556 40.9205 53.7626 40.9527 53.6071C40.7747 53.684 40.5966 53.761 40.4222 53.8206C39.4323 54.2083 38.5955 54.5962 38.2249 54.863L38.2107 54.8884ZM52.5386 55.9625C52.5747 55.7022 52.4931 55.5312 52.3795 55.3845C52.2477 55.4555 52.1053 55.4908 52.0018 55.6421C51.8699 55.8443 51.7201 56.0454 51.5774 56.2556C51.5311 56.2616 51.4955 56.2595 51.4564 56.2747C51.3994 56.2888 51.3425 56.303 51.2855 56.3171C50.9251 56.9256 50.9149 56.6276 50.7691 56.5927C50.609 56.5395 50.367 56.5777 50.2034 56.5418C50.0824 56.5172 49.9792 56.5373 49.7939 56.6926C50.196 56.7076 50.1924 56.7249 50.1919 57.031C50.1915 57.2934 50.0913 57.6024 50.301 57.7635C50.3223 57.791 50.2902 57.8591 50.2794 57.9109C50.2686 58.0065 50.2115 58.1081 50.1544 58.2097C50.1651 58.2016 50.1758 58.1935 50.1972 58.1772C50.5641 57.9277 50.9559 57.6885 51.337 57.4573L51.7894 57.1866L52.2275 56.8976C52.4448 56.7617 52.6657 56.6086 52.8759 56.4636C52.8475 56.4269 52.8262 56.3994 52.7942 56.38C52.6591 56.2933 52.4992 56.1526 52.5173 55.9787L52.5386 55.9625ZM43.256 57.3472C43.256 57.3472 43.338 57.2558 43.3737 57.2142C43.4735 57.0801 43.5626 57.0416 43.6621 57.1262C43.6905 57.1629 43.7438 57.2098 43.7651 57.1936C44.075 57.0457 44.3026 57.1203 44.5659 57.1097C44.6015 57.1118 44.6798 57.0814 44.6834 57.0641C44.7084 57.0306 44.7227 57.0052 44.7547 56.9809C44.769 56.9555 44.7833 56.9301 44.8082 56.8966C44.4951 56.9305 44.4989 56.782 44.574 56.5503C44.5954 56.4903 44.5706 56.4364 44.5422 56.3997C44.4924 56.3793 44.4462 56.3416 44.4107 56.2957C44.3823 56.259 44.2684 56.2873 44.1865 56.2912C44.0513 56.292 44.0016 56.2278 44.1085 56.1466C44.1405 56.1223 44.1548 56.0969 44.1513 56.0704C44.0195 56.1414 43.8806 56.2469 43.7594 56.3535C43.738 56.3697 43.7166 56.3859 43.6953 56.4021C43.7237 56.4388 43.7236 56.4826 43.7413 56.5273C43.759 56.6159 43.6733 56.7682 43.4845 56.8971C43.3349 57.0107 43.2065 57.1518 43.0818 57.2756C43.0604 57.2919 43.0568 57.3529 43.0817 57.3631C43.1243 57.3744 43.2062 57.3705 43.256 57.3472ZM41.0637 57.5413C41.0637 57.5413 40.9997 57.5462 40.9712 57.5533C40.9712 57.5533 40.9605 57.5614 40.9498 57.5695C40.989 57.5543 41.0353 57.5483 41.0637 57.5413ZM32.4376 42.6156C32.4376 42.6156 32.3844 42.525 32.2455 42.5867C32.16 42.6079 32.1067 42.6048 32.0746 42.6291C32.0319 42.6616 31.9606 42.7011 31.9677 42.7103C32.021 42.7572 32.1278 42.7635 32.1989 42.7677C32.1989 42.7677 32.2773 42.7373 32.3057 42.7303C32.3271 42.714 32.3485 42.6978 32.3592 42.6897C32.3806 42.6734 32.5336 42.63 32.4269 42.6237L32.4376 42.6156ZM32.0356 46.9393C31.8008 46.8992 31.7194 46.597 31.5952 46.371C31.5952 46.371 31.5952 46.371 31.581 46.3526C31.4527 46.4938 31.3671 46.6462 31.3027 46.8261C31.2848 46.8687 31.3026 46.9135 31.3025 46.9573C31.459 46.984 31.587 47.0615 31.7221 47.1483C31.8607 47.2177 31.9851 47.3125 32.1631 47.2793C32.1916 47.2722 32.2272 47.2743 32.2627 47.2764C32.1846 47.1756 32.1065 47.0747 32.0462 46.9312L32.0356 46.9393ZM30.2771 64.7416C31.0563 64.8052 32.2983 64.7211 33.2132 64.5215C33.7329 64.4035 34.2775 64.2957 34.8719 64.2084C34.9147 64.1759 34.9432 64.1251 34.9469 64.0641C34.9471 63.9329 35.3209 63.8238 35.3105 63.657C35.3106 63.6132 35.4032 63.5575 35.4637 63.5261C35.5813 63.4368 35.706 63.3567 35.8448 63.2949C35.973 63.2412 36.2079 63.2376 36.2649 63.1798C36.4253 63.0143 36.6104 62.9902 36.8773 62.9623C37.2012 62.9202 37.5607 62.8802 37.8278 62.7648C38.1055 62.6412 38.351 62.6732 38.6074 62.5659C38.9635 62.412 39.1375 62.6147 39.4186 62.6051C39.6001 62.5983 39.7958 62.6099 39.9774 62.5594C40.223 62.5039 40.3689 62.4951 40.4648 62.5969C40.4648 62.5969 40.4719 62.6061 40.479 62.6153C40.568 62.5768 40.6677 62.5302 40.7639 62.5009C41.152 62.3226 41.5473 62.1536 41.9354 61.9753C42.0743 61.9135 42.441 61.7952 42.4873 61.7892C42.8894 61.8042 43.0854 61.6409 43.4237 61.4859C43.7157 61.337 44.1394 61.2045 44.5026 61.0598C44.6094 61.0224 44.7305 60.9596 44.848 60.914C44.6879 60.8608 44.5208 60.7985 44.3607 60.7453C44.3003 60.7329 44.2826 60.6444 44.3005 60.6017C44.3789 60.4839 44.2223 60.5009 44.1939 60.4642C44.0947 60.2484 43.8493 60.129 43.6574 59.9689C43.629 59.9322 43.8001 59.7586 43.5543 59.9016C43.2908 60.0435 43.006 60.1141 42.7992 60.3731C42.6887 60.5152 42.2473 60.6029 42.03 60.7387C41.7272 60.9395 41.5065 60.9615 41.2575 60.9468C40.7131 60.8796 40.1616 60.847 39.6636 60.7301C39.3613 60.6685 39.1053 60.5572 39.0487 60.3089C39.0275 60.2376 39.0027 60.1837 38.9885 60.1216C38.8959 60.1774 38.8069 60.2159 38.7072 60.2625C38.4579 60.3789 38.1198 60.4464 38.0981 60.6376C38.0909 60.6722 37.9912 60.7188 37.9129 60.7491C37.5142 60.848 37.3538 61.0135 37.4496 61.1591C37.5881 61.3597 37.161 61.3782 36.9688 61.4369C36.6305 61.5481 36.6984 61.3946 36.6452 61.304C36.6097 61.2582 36.4887 61.2335 36.3963 61.2018C36.318 61.1885 36.1615 61.1617 36.1294 61.1861C36.0368 61.2418 35.9156 61.3484 35.9476 61.3678C36.2107 61.532 35.9544 61.5519 35.6982 61.5717C35.5879 61.5827 35.3709 61.5436 35.4418 61.679C35.0788 61.6926 34.9466 62.0259 34.4593 61.9009C34.3918 61.8794 34.2279 61.9747 34.3737 62.0533C34.6581 62.2013 34.5688 62.4147 34.7963 62.5769C34.8994 62.6442 34.9134 62.7937 34.657 62.901C34.3507 63.0317 34.2722 63.1932 34.2612 63.3763C34.2576 63.4373 34.1934 63.486 34.0973 63.5153C34.2395 63.6112 34.3532 63.7141 34.5167 63.7938C34.5736 63.8234 34.5913 63.9119 34.5449 63.9616C34.381 64.1006 34.2135 64.3007 33.9892 64.3399C33.8005 64.3813 33.5905 64.4388 33.3805 64.4527C33.1813 64.4584 32.9785 64.4376 32.7936 64.3305C32.4452 64.1437 32.0755 63.9294 31.613 63.8583C31.3497 63.8253 31.1826 63.7192 31.0298 63.6314C30.9267 63.5641 30.8271 63.5232 30.7596 63.458C30.6921 63.3928 30.646 63.3113 30.607 63.2391C30.5537 63.1484 30.4934 63.0486 30.4509 62.9499C30.1412 63.0103 29.8709 62.9244 29.5723 62.7143C29.455 62.6286 29.2024 62.5875 29.1666 62.7603C29.1378 62.9423 29.1054 63.1853 28.8491 63.2489C28.5572 63.3104 28.6672 63.4743 28.6421 63.5953C28.6278 63.6644 28.7059 63.7653 28.7093 63.8355C28.7337 64.1518 28.8863 64.4582 29.359 64.7836C29.5797 64.7616 29.8715 64.7439 30.2629 64.767L30.2771 64.7416ZM27.7638 21.7477C27.8704 21.8852 26.9763 22.4622 26.7694 22.7649C26.7123 22.8665 26.6339 22.9406 26.5448 23.0228C26.4271 23.1995 26.2883 23.2176 26.1565 23.2885C26.1244 23.3128 26.0746 23.3361 26.0354 23.3513C25.9535 23.399 25.8609 23.4547 25.7505 23.5094C25.7505 23.5094 25.7398 23.5176 25.7291 23.5257C25.533 23.7765 25.4191 23.8048 25.323 23.7903C25.0414 24.0624 24.7171 24.3669 24.464 24.6318L24.3138 25.139L24.1491 25.7154C24.099 25.9136 24.0666 26.1129 24.0272 26.303C23.9985 26.4413 24.0445 26.6102 24.1192 26.6409C24.4321 26.7818 24.3638 27.1977 24.3025 27.6664C24.2809 27.8139 24.2807 27.9888 24.2164 28.125C24.1307 28.3211 24.4119 28.224 24.2301 28.4494C24.2617 28.6875 24.2542 28.9407 24.2645 29.195C24.2676 29.4401 24.2815 29.6771 24.363 29.8919C24.4592 29.8188 24.5553 29.7458 24.6515 29.6727C24.819 29.5164 25.008 29.3002 25.1578 29.0991C25.2184 29.0239 25.1901 28.8998 25.2223 28.788C25.4016 27.9676 25.6592 27.1168 25.5747 26.5257C25.5537 26.367 25.6324 26.0742 25.8143 25.8051C26.1567 25.3267 26.2785 24.8703 26.8558 24.3445C27.0233 24.1882 27.2052 23.9191 27.2624 23.7737C27.466 23.2697 28.0897 22.6505 28.5176 22.1072C28.7316 21.8136 29.0345 21.5691 29.38 21.3358C29.3516 21.2992 29.3232 21.2625 29.2592 21.2675C28.9958 21.3219 28.6859 21.4698 28.469 21.387C28.2481 21.5839 28.038 21.6414 27.8244 21.7163C27.7923 21.7406 27.7709 21.7569 27.778 21.766L27.7638 21.7477ZM53.4309 21.5937C53.6334 21.7894 53.8359 22.0288 54.0562 22.1818C54.1984 22.2776 54.3942 22.2455 54.5792 22.2651C54.814 22.3053 55.0593 22.4247 55.3793 22.6186C55.8486 22.8738 56.3 23.1716 56.7018 23.3616C57.0467 23.5219 57.3701 23.7422 57.7007 23.9717C57.8642 24.0951 58.0384 24.2103 58.1947 24.3245C58.3511 24.4387 58.5039 24.5702 58.6603 24.6845C58.8771 24.8547 58.9697 24.799 58.8171 24.58C58.4656 24.0606 58.3239 23.6586 58.1503 23.2372C58.1077 23.1385 58.0012 23.001 57.8983 22.8462C57.781 22.7605 57.6459 22.6738 57.5463 22.6329C57.4077 22.5635 57.2867 22.5389 57.1516 22.4959C57.1837 22.4278 57.2158 22.3597 57.2658 22.2927C57.2943 22.2419 57.3406 22.1921 57.4012 22.1607C57.4867 22.0958 57.4264 21.996 57.2132 21.8085C57.0853 21.6872 56.9574 21.5659 56.8188 21.4528C56.4848 21.1531 56.2714 21.0967 56.1396 21.1677C55.876 21.3096 55.6338 21.4789 55.3773 21.63C55.3346 21.6625 55.242 21.6745 55.1425 21.6336C54.4598 21.3221 54.0718 21.3692 53.4352 21.1828C52.891 21.0282 52.9334 21.1707 53.4273 21.611L53.4309 21.5937ZM32.0001 73.0574C31.8755 73.05 31.7439 73.0335 31.6088 72.9905C31.406 72.9261 31.3278 72.8689 31.4881 72.7909C31.481 72.7818 31.4525 72.7888 31.4454 72.7797C31.3671 72.81 31.1998 72.8351 31.214 72.8535C31.2637 72.9176 31.3846 72.986 31.4699 73.0523C31.6478 73.0628 31.8293 73.056 32.0001 73.0574ZM32.7281 73.9314C32.8278 73.9286 33.0057 73.8953 33.1445 73.8773C32.9702 73.8495 32.7959 73.8217 32.6216 73.7939C32.5219 73.8405 32.4329 73.879 32.3189 73.9072C32.4435 73.9146 32.5751 73.9311 32.7281 73.9314ZM7.78376 19.3161C7.78376 19.3161 7.71949 19.4522 7.66591 19.5803C7.7479 19.4889 7.82272 19.4321 7.89761 19.3316C7.92967 19.3072 7.9512 19.2035 7.97623 19.1263C7.90141 19.1831 7.83728 19.2318 7.76598 19.315L7.78376 19.3161ZM62.2594 19.4037C62.0675 19.1999 61.8899 19.0582 61.7157 18.9429C61.4313 18.7512 61.1612 18.5778 60.9088 18.4054C60.6351 18.2492 60.347 18.1185 60.0875 17.9807C59.7675 17.8306 59.4511 17.6632 59.1204 17.5212C58.7861 17.3964 58.4518 17.2717 58.1104 17.1378C57.9432 17.0755 57.7832 17.0223 57.6268 16.9518C57.4667 16.8986 57.2924 16.8708 57.1217 16.8257C56.7873 16.7447 56.4778 16.674 56.1826 16.6215C55.9443 16.5549 55.496 16.5022 54.8989 16.082C54.8278 16.0341 54.6571 15.9453 54.6357 15.9615C54.4862 16.0314 54.038 15.8912 53.6646 15.7817C53.4156 15.7232 53.245 15.5907 53.0601 15.4835C52.8717 15.3936 52.701 15.3048 52.4911 15.3187C52.4733 15.3176 52.3737 15.2767 52.2457 15.1992C52.1105 15.2 51.9682 15.1915 51.8188 15.174C51.7832 15.1719 51.7192 15.1331 51.6623 15.1035C51.673 15.0954 51.6731 15.0516 51.6909 15.0527C51.7727 15.0488 51.8688 15.0632 51.9755 15.0695C51.9826 15.0787 52.0111 15.0716 52.0289 15.0727C51.9898 15.0441 51.94 15.0237 51.9009 14.9951C51.6201 14.8298 51.332 14.6991 51.3392 14.6645C51.3714 14.5527 51.2437 14.344 51.4963 14.3414C52.1012 14.3334 51.9487 14.0707 52.269 14.0022C52.5965 13.9428 52.6573 13.7364 53.1875 13.7415C53.4117 13.746 53.6039 13.7311 53.7819 13.6979C53.9598 13.6647 54.1342 13.6488 54.3157 13.642C54.4331 13.6402 54.5506 13.6384 54.636 13.6172C54.935 13.5649 55.234 13.5126 55.533 13.4603C55.832 13.4079 56.1594 13.3486 56.4477 13.3481C56.7751 13.3325 56.5409 12.8987 55.8014 12.5139C55.5099 12.3567 55.1508 12.178 54.8521 12.0554C54.3008 11.8916 54.6206 12.1292 54.4356 12.1533C54.4071 12.1603 54.3395 12.1388 54.2861 12.1357L53.8308 12.0738C53.7811 12.0096 53.6709 11.9331 53.6887 11.8904C53.7745 11.6506 53.8852 11.4209 53.9817 11.173C53.9889 11.1384 53.8716 11.0527 53.8112 10.9967C53.7364 11.0097 53.619 11.0116 53.5762 11.044C53.4373 11.1495 53.309 11.2469 53.1701 11.3524C53.0026 11.5087 52.5079 11.5495 51.9812 11.5708C51.7179 11.5815 51.4474 11.583 51.1912 11.6029C50.9314 11.64 50.6964 11.6874 50.5149 11.7379C50.4081 11.7753 49.8388 11.6979 49.821 11.7406C49.7817 11.8432 49.6641 11.9325 49.5038 12.0105C49.3436 12.0885 49.1335 12.1461 48.8914 12.228C48.717 12.2877 48.8734 12.4019 48.7665 12.4831C48.7023 12.5317 48.3927 12.5484 48.197 12.5806C48.133 12.5418 48.0619 12.4939 48.0157 12.4562C47.8274 12.2788 47.5394 12.1044 47.6465 11.9358C47.6714 11.9022 47.5363 11.8593 47.3549 11.8223C47.1805 11.7945 46.935 11.8062 46.7677 11.8313C46.3655 11.9038 46.0415 11.9896 45.6749 12.0642C45.6001 12.0772 45.5147 12.0984 45.4293 12.1196C45.5572 12.2409 45.6851 12.3622 45.8379 12.4937C46.0049 12.6435 46.2537 12.7894 46.3318 12.934C46.3956 13.0602 46.2852 13.1587 46.4806 13.3015C46.605 13.3963 46.9322 13.5118 46.6403 13.617C46.6972 13.6029 46.7506 13.6061 46.7969 13.6001C46.9143 13.5983 47.0424 13.5883 47.2096 13.607C47.3839 13.6348 47.6116 13.6657 47.9532 13.7121C47.3339 13.7455 47.156 13.735 46.971 13.7591C46.8535 13.7609 46.7254 13.7708 46.5973 13.7807C46.6114 13.8428 46.6433 13.9059 46.6504 13.9588C46.661 13.9944 46.6929 14.0575 46.7284 14.1034C46.842 14.25 47.5104 14.6307 47.6172 14.5933C47.7917 14.5336 47.9057 14.4179 47.9984 14.3184C48.0626 14.2697 48.0556 14.1731 48.0699 14.1039C48.12 13.9494 48.1381 13.7755 48.2237 13.6232C48.2808 13.5216 48.4587 13.5321 48.7006 13.6251C49.042 13.759 48.8355 13.7993 48.8212 13.8684C48.8281 13.965 48.8314 14.1227 48.7247 14.1164C48.3226 14.1014 48.4573 14.4067 48.2188 14.4714C48.1796 14.4865 48.2186 14.6026 48.2684 14.623C48.4177 14.6843 48.6097 14.8006 48.6882 14.6828C48.7274 14.6239 48.7524 14.5466 48.7739 14.4867C49.0227 14.6326 48.9839 14.4728 49.0871 14.4527C49.3077 14.4308 49.4608 14.3873 49.3437 14.1704C49.2444 13.9984 49.5043 13.9175 49.22 13.682C49.1418 13.6249 49.2132 13.4979 49.2738 13.4228C49.3701 13.306 49.58 13.2922 49.8752 13.3883C50.1526 13.4835 50.284 13.6312 50.3051 13.7899C50.3226 13.9659 50.518 14.1961 50.3896 14.3372C50.3183 14.4205 50.1438 14.5239 50.3891 14.6871C50.5384 14.7921 50.8088 14.7906 51.0079 14.8724C50.9584 14.677 51.2641 14.8963 51.3282 14.8476C51.3496 14.8313 51.4279 14.8447 51.4635 14.8468L51.6055 15.0302C51.4703 15.0309 51.3635 15.0246 51.239 15.0172C50.869 14.9779 50.5201 15.0535 49.9941 14.6813C49.9088 14.615 49.5958 14.5615 49.6808 14.759C49.7411 14.9025 49.6592 14.9501 49.5559 15.014C49.2851 15.1904 49.2064 15.4832 49.213 15.7985C49.2199 15.9389 49.6072 16.2417 48.9991 16.0046C48.9423 15.975 48.9277 16.1753 48.6468 16.0537C48.5721 16.0231 48.4758 16.1836 48.3512 16.2199C47.988 16.321 48.2152 16.658 48.0335 16.8397C47.9907 16.8722 47.9764 16.9413 47.962 17.0105C48.0047 17.0217 48.0581 17.0249 48.1007 17.0362C48.5455 17.0624 49.1073 17.3056 49.6269 17.2751C49.691 17.2701 50.004 17.3673 50.0075 17.3938C50.0713 17.52 50.1565 17.63 50.626 17.754C50.9853 17.8452 51.3409 17.9974 51.6894 18.1405C52.0379 18.2835 52.3864 18.4266 52.7171 18.5249C53.0835 18.6253 53.4321 18.7246 53.7771 18.7975C53.9976 18.863 54.0689 18.7797 53.7881 18.6144C53.3046 18.3409 53.2517 18.0316 52.5866 17.8086C52.5369 17.7882 52.4267 17.7117 52.3983 17.675C52.2207 17.4458 51.8864 17.3648 51.5164 17.2818C51.2745 17.2325 50.9081 17.1758 50.7268 17.0951C50.357 16.9246 49.8449 16.7019 49.7775 16.5929C49.7562 16.5654 49.7349 16.5379 49.7029 16.5185C50.0123 16.5893 50.3111 16.6682 50.6028 16.7379C50.3148 16.6072 50.0517 16.4429 49.7602 16.2857C49.6962 16.247 49.6608 16.1574 49.611 16.0932C49.7 16.0985 49.7818 16.0946 49.8743 16.1263C50.0273 16.1703 50.173 16.2489 50.3153 16.301C50.5322 16.3838 50.7599 16.4148 50.9625 16.523C51.2932 16.7087 51.2759 16.4015 51.5994 16.5781C51.5994 16.5781 51.5994 16.5781 51.6136 16.5964C51.6136 16.5964 51.6136 16.5964 51.5994 16.5781C51.6175 16.4042 51.7916 16.5632 51.9089 16.6489C51.948 16.6774 52.0191 16.7254 52.0653 16.7631C52.1115 16.8008 52.1577 16.8385 52.1577 16.8385C52.097 16.9574 51.9193 16.772 51.7984 16.7473C51.5672 16.6899 51.5741 16.8303 51.6201 16.9992C51.8335 17.0556 52.0291 17.1109 52.2176 17.157C52.47 17.3294 52.733 17.4936 52.9889 17.6924C53.3159 17.9392 53.7069 18.181 54.0766 18.439C54.6097 18.8204 55.0898 19.0237 55.2821 18.9214C55.2111 18.8297 55.1258 18.7634 55.0548 18.6718C54.7386 18.3294 54.9308 18.3145 54.995 18.2221C55.0057 18.214 55.0093 18.1967 55.0271 18.1978C55.084 18.1836 55.1303 18.1776 55.1873 18.1635C55.2583 18.2552 55.3578 18.3398 55.4146 18.4131C55.585 18.6331 55.8551 18.894 55.8513 19.0425C55.8512 19.0862 55.8369 19.1116 55.8155 19.1279C55.8368 19.1554 55.8297 19.1899 55.8332 19.2164C55.8294 19.3211 55.8827 19.368 56.0748 19.4406C56.185 19.4734 56.2775 19.5051 56.3949 19.547C56.5513 19.6175 56.722 19.7063 56.8748 19.794C56.9138 19.9101 56.9847 20.0455 56.9846 20.1329C56.9881 20.2031 56.8777 20.2141 56.8812 20.2843C56.8918 20.3199 57.0161 20.4585 57.1156 20.5431C57.1511 20.5889 57.2827 20.6492 57.304 20.6329C57.3717 20.6107 57.386 20.5415 57.4395 20.501C57.4715 20.4766 57.5427 20.4808 57.6068 20.4759C57.6707 20.5584 57.7488 20.6592 57.7878 20.7315C57.8552 20.8842 57.8728 21.0164 57.9614 21.1966C58.1424 21.5397 58.3553 21.9022 58.5433 22.2545C58.6462 22.453 58.7632 22.7136 58.9093 22.5735C59.2968 22.7889 59.6311 22.9136 59.937 23.0016C60.1251 23.2664 60.3204 23.5404 60.5228 23.8235C60.1352 23.6519 59.744 23.4976 59.3493 23.3168C59.2568 23.2851 59.2176 23.344 59.1607 23.3581C59.0681 23.3702 58.7838 23.1784 59.0074 23.5328C59.0358 23.5695 59.1175 23.653 59.1673 23.6735C59.2419 23.7041 59.2776 23.6625 59.338 23.7185C59.6863 23.9928 59.9211 23.9892 60.2765 24.2726C60.5466 24.4898 60.7424 24.4139 60.9949 24.4988C61.002 24.5079 61.0269 24.5181 61.0447 24.5192C61.1086 24.6017 61.1655 24.675 61.2294 24.7575C61.4424 25.0326 61.6697 25.3259 61.8614 25.6172C61.6659 25.4744 61.4383 25.356 61.2251 25.2122C61.0011 25.0765 60.7594 24.896 60.5817 24.798C60.5426 24.7694 60.5282 24.8386 60.5068 24.8548C60.5637 24.9281 60.6027 25.0004 60.6631 25.0565L61.1602 25.6982L61.3094 25.847L61.3378 25.8836C61.3378 25.8836 61.3591 25.9111 61.3662 25.9203L61.4302 26.0028L61.6503 26.3307C61.9378 26.7676 62.2716 27.1985 62.5199 27.6505C62.7754 28.1117 63.0415 28.5648 63.2614 29.024C63.4068 29.3212 63.5344 29.6174 63.6727 29.9055C63.7083 29.9076 63.7403 29.927 63.7651 29.981C64.0172 30.3283 64.2699 30.282 64.4678 31.1072C64.5103 31.2496 64.5316 31.2772 64.5388 31.2426C64.5388 31.2426 64.5317 31.2334 64.5246 31.2243C64.546 31.1643 64.5497 31.1033 64.5855 30.9742C64.6249 30.8278 64.7492 30.9663 64.686 30.4465C64.6297 30.067 64.5451 29.5634 64.4636 29.3487C64.1767 28.5182 63.7615 27.8289 63.3962 27.1162C63.3004 26.9268 63.1547 26.8045 63.1015 26.6702C62.7936 25.6373 62.5552 25.6582 62.2677 25.1776C61.9092 24.649 61.5932 24.2192 61.2274 23.769C61.1848 23.714 61.0855 23.5419 61.0713 23.4798C61.0395 23.373 61.0184 23.2143 61.054 23.2164C61.2319 23.2269 61.3851 23.096 61.6409 23.3385C62.5433 24.1966 61.9305 22.5071 62.1125 22.1505C62.1339 22.1343 61.9956 21.8462 61.9283 21.6935C61.5381 20.9269 61.2003 20.7757 60.8346 20.2817C60.9271 20.2697 60.9842 20.1681 61.1371 20.2559C61.8516 20.718 62.3178 20.6405 63.05 21.1474C63.1673 21.2331 63.2066 21.1304 63.2566 21.0634C63.3421 20.9548 63.186 20.7093 62.8417 20.1554C62.6394 19.8285 62.4513 19.5637 62.2701 19.3518L62.2594 19.4037ZM64.1108 5.66575C63.99 5.55364 63.8194 5.4211 63.7021 5.33544C63.5634 5.30974 63.4175 5.27488 63.2788 5.24919C63.3782 5.37753 63.4777 5.46214 63.5559 5.56298C63.6874 5.62324 63.8546 5.6856 63.9932 5.75502C64.1319 5.82445 64.2386 5.8745 64.2919 5.87765C64.3204 5.87058 64.228 5.79514 64.1001 5.67387L64.1108 5.66575ZM69.8287 12.5206C69.605 12.2099 69.4133 11.9187 69.2429 11.6549C69.0726 11.3912 68.8772 11.161 68.7282 10.9247C68.4086 10.4684 68.1353 10.0499 67.8371 9.62115C67.7023 9.40324 67.4002 9.12297 67.0983 8.79896C66.8175 8.58992 66.5404 8.36361 66.3235 8.23707C66.0462 8.05448 65.8116 7.9269 65.552 7.7891C65.5522 7.70163 65.5452 7.605 65.5703 7.52775C65.5917 7.46778 65.6203 7.41698 65.6986 7.38662C65.8054 7.34919 65.6065 7.13625 65.0733 6.75484C64.7464 6.50808 64.4087 6.26944 64.0746 6.01352C63.2394 5.43931 62.7663 5.28888 62.6061 5.32316C62.243 5.42416 61.951 5.57311 61.595 5.68328C61.5273 5.70553 61.385 5.69712 61.1646 5.58787C60.4036 5.26298 59.8202 5.12353 59.276 4.96891C59.0022 4.90024 58.7354 4.84074 58.4544 4.7629C58.1591 4.71046 57.8568 4.64885 57.5046 4.56681C56.3094 4.29499 56.5084 4.4642 57.8632 5.09535C58.1619 5.21798 58.4498 5.39245 58.7484 5.55881C59.0471 5.72516 59.3386 5.88235 59.6159 6.02121C59.9679 6.19071 60.338 6.18634 60.6759 6.29378C61.1489 6.4442 61.7143 6.71379 62.4787 7.10887C62.7489 7.23856 63.012 7.40281 63.275 7.56706C63.5381 7.73131 63.794 7.8864 64.05 8.04148C64.3059 8.19657 64.5619 8.35166 64.793 8.49652C65.0418 8.64244 65.2444 8.79437 65.4506 8.92902C65.7989 9.15955 66.1686 9.41758 66.5346 9.69289C66.9114 9.96008 67.2632 10.2608 67.6185 10.588C67.9667 10.9059 68.322 11.2331 68.6773 11.5603C69.0326 11.8874 69.3274 12.246 69.6542 12.5802C70.0947 13.0611 70.2086 13.0329 69.8322 12.5033L69.8287 12.5206Z" fill="#D60000"/>
</svg>
